<svg viewBox="0 0 18 18" fill="none" xmlns="http://www.w3.org/2000/svg">
  <path fill-rule="evenodd" clip-rule="evenodd"
    d="M11.8714 7.68568C11.8714 9.99737 9.99737 11.8714 7.68568 11.8714C5.37399 11.8714 3.5 9.99737 3.5 7.68568C3.5 5.37399 5.37399 3.5 7.68568 3.5C9.99737 3.5 11.8714 5.37399 11.8714 7.68568ZM11.1408 12.2015C10.1832 12.9353 8.98535 13.3714 7.68568 13.3714C4.54557 13.3714 2 10.8258 2 7.68568C2 4.54557 4.54557 2 7.68568 2C10.8258 2 13.3714 4.54557 13.3714 7.68568C13.3714 8.98535 12.9353 10.1832 12.2015 11.1408L15.5262 14.4655L16.0565 14.9959L14.9959 16.0565L14.4655 15.5262L11.1408 12.2015Z"
    fill="currentColor" />
</svg>