<svg width="699" height="401" viewBox="0 0 699 401" fill="none" xmlns="http://www.w3.org/2000/svg">
<path d="M284.747 294.826H264.782V321.034H224.85V294.826H163V264.685L232.229 165.529H264.782V263.593H284.747V294.826ZM224.85 263.593V226.901L199.459 263.593H224.85Z" fill="#969696"/>
<path d="M352.372 323C333.275 323 318.59 316.157 308.318 302.47C298.19 288.783 293.126 268.981 293.126 243.063C293.126 217.582 298.19 198.071 308.318 184.53C318.59 170.843 333.275 164 352.372 164C371.47 164 386.083 170.843 396.21 184.53C406.482 198.071 411.618 217.582 411.618 243.063C411.618 268.981 406.482 288.783 396.21 302.47C386.083 316.157 371.47 323 352.372 323ZM352.372 292.205C359.317 292.205 364.308 288.419 367.347 280.848C370.385 273.131 371.904 260.536 371.904 243.063C371.904 226.027 370.385 213.724 367.347 206.152C364.308 198.581 359.317 194.795 352.372 194.795C345.428 194.795 340.436 198.581 337.398 206.152C334.36 213.724 332.841 226.027 332.841 243.063C332.841 260.536 334.36 273.131 337.398 280.848C340.436 288.419 345.428 292.205 352.372 292.205Z" fill="#969696"/>
<path d="M545 294.826H525.034V321.034H485.103V294.826H423.253V264.685L492.482 165.529H525.034V263.593H545V294.826ZM485.103 263.593V226.901L459.712 263.593H485.103Z" fill="#969696"/>
<path d="M150.497 222.1C161.188 218.471 168.688 219.897 173.925 223.698C178.114 224.581 184.902 236.996 185.468 248.894C185.693 251.424 185.681 253.402 185.582 254.393C186.525 254.959 188.298 256.659 187.845 258.925C191.429 261.569 199.049 267.423 200.86 269.69C203.123 272.523 204.821 274.212 208.216 274.222C208.971 273.467 210.706 272.183 211.611 273.089C211.969 273.566 212.351 274.144 212.743 274.843C214.176 271.109 218.22 263.47 222.929 262.783C227.003 262.783 226.135 267.388 225.192 269.69C226.89 269.509 230.576 269.462 231.983 269.69C243.528 271.556 243.528 278.921 240.133 283.454C236.737 287.986 228.815 288.953 222.929 288.953H216.704C215.799 290.766 213.686 291.219 212.743 291.219C211.908 292.055 208.974 293.324 203.123 293.384C201.05 293.405 198.61 293.274 195.767 292.918C195.767 294.013 197.881 295.814 199.385 298.017C200.215 299.234 200.86 300.573 200.86 301.983C200.421 302.834 199.928 303.645 199.385 304.418C204.031 307.711 209.929 313.678 212.158 320.679C213.911 326.185 213.395 332.33 208.216 338.317C207.251 339.432 206.125 340.542 204.821 341.642C206.081 344.924 206.034 347.968 205.184 350.706C206.875 352.784 209.17 357.958 204.821 362.037C200.472 366.117 195.841 364.46 194.069 363.122C193.27 363.586 192.505 363.982 191.806 364.304C194.824 366.948 199.049 373.708 191.806 379.601C182.752 386.966 172 369.403 170.868 364.304C169.963 360.225 173.509 357.694 175.395 356.939C175.242 355.94 175.176 354.403 175.395 352.718C175.716 350.261 176.643 347.489 178.791 345.608C169.611 344.85 164.431 339.054 161.688 332.577C160.318 332.955 156.701 333.483 153.189 332.577C153.607 333.531 153.892 334.361 153.892 334.843C153.892 336.543 154.458 339.942 144.838 339.942C141.37 339.784 139.036 338.018 137.507 335.496C134.646 330.777 134.604 323.41 135.219 318.98C134.347 317.842 133.569 316.709 132.877 315.58C132.224 314.514 131.648 313.453 131.145 312.398C129.85 309.683 129.035 307.013 128.609 304.418C127.532 297.862 128.94 291.787 131.364 286.686C116.058 270.37 126.756 258.359 134.019 254.393C130.791 242.212 132.495 228.209 150.497 222.1Z" fill="white"/>
<path d="M140.877 269.69C169.737 269.69 179.923 258.359 185.582 254.393M140.877 269.69C140.311 270.823 139.519 273.316 140.877 274.222M140.877 269.69C138.295 265.75 135.58 260.284 134.019 254.393M185.582 254.393C186.147 248.727 183.884 210.769 150.497 222.1C132.495 228.209 130.791 242.212 134.019 254.393M185.582 254.393C186.525 254.959 188.298 256.659 187.845 258.925M140.877 274.222C142.88 274.222 146.936 274.577 152.195 274.232M140.877 274.222C138.193 276.472 135.03 280 132.54 284.42M187.845 258.925C191.429 261.569 199.049 267.423 200.86 269.69C203.123 272.523 204.821 274.212 208.216 274.222M187.845 258.925C186.35 260.334 184.838 261.616 183.318 262.783M135.219 318.98C139.746 319.886 145.404 317.091 147.668 315.58M135.219 318.98C134.347 317.842 133.569 316.709 132.877 315.58M135.219 318.98C134.604 323.41 134.646 330.777 137.507 335.496C139.036 338.018 141.37 339.784 144.838 339.942C154.458 339.942 153.892 336.543 153.892 334.843C153.892 334.361 153.607 333.531 153.189 332.577M147.668 315.58C147.632 314.685 147.626 313.595 147.668 312.398M147.668 315.58C157.853 320.679 157.853 325.778 156.722 327.478C155.816 328.838 152.195 328.044 150.497 327.478C151.227 328.696 152.428 330.842 153.189 332.577M152.195 298.017C157.287 294.618 163.512 284.44 152.195 274.232M152.195 298.017C148.893 300.221 147.846 307.286 147.668 312.398M152.195 298.017C152.949 302.739 154.911 312.861 156.722 315.58M152.195 274.232C160.644 273.678 172.196 271.319 183.318 262.783M208.216 274.222C210.932 277.395 212.366 286.875 212.743 291.219M208.216 274.222C208.971 273.467 210.706 272.183 211.611 273.089C211.969 273.566 212.351 274.144 212.743 274.843M212.743 291.219C213.686 291.219 215.799 290.766 216.704 288.953M212.743 291.219C211.908 292.055 208.974 293.324 203.123 293.384M195.767 292.918C195.767 294.013 197.881 295.814 199.385 298.017M195.767 292.918C193.143 285.912 192.547 284.998 191.366 281.021M195.767 292.918C198.61 293.274 201.05 293.405 203.123 293.384M183.318 262.783C185.581 264.375 187.845 267.99 190.108 276.488C190.622 278.419 191.02 279.852 191.366 281.021M216.704 288.953C217.566 288.953 219.279 288.953 222.929 288.953C228.815 288.953 236.737 287.986 240.133 283.454C243.528 278.921 243.528 271.556 231.983 269.69C230.576 269.462 226.89 269.509 225.192 269.69C226.135 267.388 227.003 262.783 222.929 262.783C218.22 263.47 214.176 271.109 212.743 274.843M216.704 288.953C215.78 283.128 214.05 277.176 212.743 274.843M132.877 315.58C134.601 316.103 139.972 316.198 147.668 312.398M132.877 315.58C132.224 314.514 131.648 313.453 131.145 312.398M156.722 315.58C167.208 315.958 190.422 312.974 199.385 298.017M156.722 315.58C157.483 316.724 158.271 317.507 158.985 318.03M199.385 298.017C200.215 299.234 200.86 300.573 200.86 301.983C200.421 302.834 199.928 303.645 199.385 304.418M199.385 304.418C190.973 316.401 170.817 319.157 161.249 318.98C160.811 318.98 159.969 318.751 158.985 318.03M199.385 304.418C204.031 307.711 209.929 313.678 212.158 320.679M204.821 341.642C206.081 344.924 206.034 347.968 205.184 350.706M204.821 341.642C202.974 338.754 201.859 336.913 200.86 335.496M204.821 341.642C206.125 340.542 207.251 339.432 208.216 338.317M191.806 327.478C197.41 331.592 198.918 332.743 200.86 335.496M158.985 318.03C158.869 321.85 159.508 327.429 161.688 332.577M175.395 356.939C173.509 357.694 169.963 360.225 170.868 364.304C172 369.403 182.752 386.966 191.806 379.601C199.049 373.708 194.824 366.948 191.806 364.304M175.395 356.939C179.017 366.003 187.845 365.626 191.806 364.304M175.395 356.939C175.242 355.94 175.176 354.403 175.395 352.718M191.806 364.304C181.394 362.944 176.527 356.013 175.395 352.718M191.806 364.304C192.505 363.982 193.27 363.586 194.069 363.122M175.395 352.718C175.716 350.261 176.643 347.489 178.791 345.608C169.611 344.85 164.431 339.054 161.688 332.577M205.184 350.706C206.875 352.784 209.17 357.958 204.821 362.037C200.472 366.117 195.841 364.46 194.069 363.122M205.184 350.706C204.354 353.379 202.757 355.76 200.86 357.784M194.069 363.122C196.278 361.84 198.754 360.031 200.86 357.784M161.688 332.577C160.318 332.955 156.701 333.483 153.189 332.577M134.019 254.393C126.756 258.359 116.058 270.37 131.364 286.686M131.364 286.686C131.734 285.908 132.128 285.152 132.54 284.42M131.364 286.686C128.94 291.787 127.532 297.862 128.609 304.418M132.54 284.42C137.326 289.065 143.24 299.567 128.609 304.418M128.609 304.418C129.035 307.013 129.85 309.683 131.145 312.398M191.366 281.021C195.285 282.275 203.123 286.504 203.123 293.384M200.86 335.496C192.372 338.864 180.488 348.036 200.86 357.784M212.158 320.679C213.911 326.185 213.395 332.33 208.216 338.317M212.158 320.679C208.581 322.429 202.784 328.405 208.216 338.317M1 362.037C14.5367 360.84 23.6832 362.362 29.1711 379.601C34.6589 396.839 57.708 402.893 73.8058 399.351C83.44 397.949 104.026 390.191 109.294 370.376C115.879 345.608 113.607 320.379 131.145 312.398M139.407 235.297C137.126 238.233 125.779 256.093 146.763 264.757C155.263 264.757 176.414 257.792 185.468 248.894C184.902 236.996 178.114 224.581 173.925 223.698C163.967 221.598 143.368 230.198 139.407 235.297Z" stroke="#969696"/>
<path d="M142.535 249.886C143.313 252.362 143.339 254.796 142.775 256.719C142.21 258.647 141.076 260.007 139.571 260.482C138.065 260.958 136.359 260.496 134.793 259.242C133.23 257.991 131.859 255.983 131.08 253.507C130.301 251.03 130.276 248.597 130.84 246.674C131.405 244.746 132.539 243.386 134.044 242.91C135.549 242.435 137.256 242.897 138.822 244.151C140.384 245.402 141.756 247.41 142.535 249.886Z" fill="white" stroke="#969696"/>
<g filter="url(#filter0_f)">
<path d="M322.994 95.0978C321.341 93.32 320.991 90.9526 322.213 89.8099L385.978 36.2177L328.202 96.2477C326.979 97.3903 324.648 96.8755 322.994 95.0978Z" fill="url(#paint0_linear)"/>
</g>
<path d="M323.294 94.2477C321.641 92.4699 322.804 89.5217 324.026 88.379L385.887 36.3015L329.514 94.2476C328.291 95.3903 325.124 96.2143 323.294 94.2477Z" fill="url(#paint1_linear)"/>
<g filter="url(#filter1_f)">
<path d="M626.995 308.099C625.956 306.982 625.736 305.494 626.504 304.776L666.571 271.101L630.267 308.821C629.499 309.539 628.034 309.216 626.995 308.099Z" fill="url(#paint2_linear)"/>
</g>
<path d="M627.183 307.565C626.144 306.448 626.875 304.595 627.643 303.877L666.513 271.154L631.091 307.565C630.323 308.283 628.332 308.8 627.183 307.565Z" fill="url(#paint3_linear)"/>
<g filter="url(#filter2_f)">
<path d="M624.942 105.262C623.897 104.138 623.675 102.641 624.448 101.918L664.769 68.0344L628.235 105.989C627.462 106.711 625.988 106.386 624.942 105.262Z" fill="url(#paint4_linear)"/>
</g>
<path d="M625.131 104.726C624.085 103.602 624.82 101.738 625.593 101.015L664.711 68.0891L629.063 104.726C628.291 105.448 626.287 105.969 625.131 104.726Z" fill="url(#paint5_linear)"/>
<g style="mix-blend-mode:screen" filter="url(#filter3_f)">
<ellipse rx="75.9792" ry="76.101" transform="matrix(0.905904 0.423484 -0.421754 0.90671 512.923 128.178)" fill="white"/>
</g>
<g style="mix-blend-mode:darken">
<path d="M578.117 159.851C561.272 196.065 518.333 211.732 482.211 194.846C446.089 177.959 430.46 134.914 447.305 98.7C464.15 62.486 507.089 46.8194 543.211 63.7054C579.333 80.5915 594.962 123.637 578.117 159.851Z" fill="white"/>
<path d="M578.117 159.851C561.272 196.065 518.333 211.732 482.211 194.846C446.089 177.959 430.46 134.914 447.305 98.7C464.15 62.486 507.089 46.8194 543.211 63.7054C579.333 80.5915 594.962 123.637 578.117 159.851Z" stroke="#969696"/>
</g>
<g style="mix-blend-mode:screen" filter="url(#filter4_f)">
<path d="M494.733 167.764C575.334 205.443 644.523 227.714 649.27 217.507C652.623 210.299 622.943 188.823 576.827 163.556C575.598 165.872 574.259 168.096 572.82 170.225C577.33 173.735 579.568 176.368 578.926 177.749C578.211 179.287 574.008 179.078 567.255 177.435C553.471 174.081 529.065 164.752 502.016 152.107C461.715 133.268 430.809 114.203 432.985 109.525C433.632 108.135 437.129 108.172 442.783 109.406C443.144 108.133 443.542 106.864 443.977 105.601C444.384 104.416 444.825 103.235 445.298 102.061C396.287 82.8557 360.744 73.8472 357.388 81.0606C352.641 91.2672 414.132 130.086 494.733 167.764Z" fill="#DCDCDC"/>
<path d="M649.134 217.444C648.577 218.643 647.051 219.403 644.555 219.696C642.071 219.988 638.679 219.811 634.477 219.191C626.076 217.951 614.472 214.95 600.492 210.45C572.534 201.451 535.093 186.466 494.796 167.628C454.5 148.791 418.982 129.67 394.135 113.984C381.71 106.14 371.958 99.1585 365.611 93.5034C362.436 90.675 360.12 88.1845 358.746 86.0889C357.366 83.9837 356.966 82.3234 357.524 81.1242C357.918 80.2778 358.793 79.6489 360.161 79.2483C361.528 78.8481 363.366 78.6832 365.643 78.7481C370.198 78.8779 376.475 79.9249 384.187 81.7996C399.58 85.5413 420.66 92.5721 445.102 102.145C444.65 103.276 444.227 104.412 443.835 105.552C443.415 106.773 443.029 107.999 442.677 109.229C439.909 108.631 437.656 108.321 436.005 108.331C435.167 108.337 434.474 108.424 433.946 108.604C433.417 108.785 433.035 109.064 432.849 109.462C432.694 109.797 432.692 110.185 432.815 110.609C432.938 111.033 433.189 111.502 433.552 112.012C434.278 113.033 435.475 114.245 437.089 115.617C440.319 118.364 445.245 121.779 451.493 125.634C463.992 133.343 481.799 142.822 501.953 152.243C529.004 164.889 553.421 174.224 567.22 177.581C570.599 178.403 573.35 178.869 575.35 178.935C576.349 178.968 577.17 178.901 577.792 178.724C578.412 178.547 578.857 178.253 579.062 177.812C579.246 177.417 579.215 176.948 579.017 176.431C578.819 175.914 578.447 175.331 577.921 174.69C576.885 173.429 575.225 171.915 573.023 170.193C574.407 168.136 575.699 165.991 576.889 163.761C599.883 176.365 618.777 188.02 631.51 197.425C637.89 202.137 642.717 206.279 645.738 209.689C647.249 211.395 648.302 212.91 648.874 214.216C649.446 215.523 649.528 216.598 649.134 217.444Z" stroke="#969696" stroke-width="0.3"/>
</g>
<path d="M445.298 102.061C396.287 82.8557 360.744 73.8472 357.388 81.0606C352.641 91.2672 414.132 130.086 494.733 167.764C513.995 176.769 532.604 184.893 549.839 191.904C604.722 214.233 645.657 225.275 649.27 217.507C652.623 210.299 622.943 188.823 576.827 163.556M442.783 109.406C437.129 108.172 433.632 108.135 432.985 109.525C430.809 114.203 461.715 133.268 502.016 152.107C529.065 164.752 553.471 174.081 567.255 177.435C574.008 179.078 578.211 179.287 578.926 177.749C579.568 176.368 577.33 173.735 572.82 170.225" stroke="#ADADAD"/>
<defs>
<filter id="filter0_f" x="297.484" y="12.2168" width="112.494" height="108.638" filterUnits="userSpaceOnUse" color-interpolation-filters="sRGB">
<feFlood flood-opacity="0" result="BackgroundImageFix"/>
<feBlend mode="normal" in="SourceGraphic" in2="BackgroundImageFix" result="shape"/>
<feGaussianBlur stdDeviation="12" result="effect1_foregroundBlur"/>
</filter>
<filter id="filter1_f" x="602.045" y="247.102" width="88.5253" height="86.1021" filterUnits="userSpaceOnUse" color-interpolation-filters="sRGB">
<feFlood flood-opacity="0" result="BackgroundImageFix"/>
<feBlend mode="normal" in="SourceGraphic" in2="BackgroundImageFix" result="shape"/>
<feGaussianBlur stdDeviation="12" result="effect1_foregroundBlur"/>
</filter>
<filter id="filter2_f" x="599.987" y="44.0352" width="88.7823" height="86.3388" filterUnits="userSpaceOnUse" color-interpolation-filters="sRGB">
<feFlood flood-opacity="0" result="BackgroundImageFix"/>
<feBlend mode="normal" in="SourceGraphic" in2="BackgroundImageFix" result="shape"/>
<feGaussianBlur stdDeviation="12" result="effect1_foregroundBlur"/>
</filter>
<filter id="filter3_f" x="412.96" y="28.0254" width="199.927" height="200.306" filterUnits="userSpaceOnUse" color-interpolation-filters="sRGB">
<feFlood flood-opacity="0" result="BackgroundImageFix"/>
<feBlend mode="normal" in="SourceGraphic" in2="BackgroundImageFix" result="shape"/>
<feGaussianBlur stdDeviation="12" result="effect1_foregroundBlur"/>
</filter>
<filter id="filter4_f" x="333.131" y="54.584" width="340.397" height="189.399" filterUnits="userSpaceOnUse" color-interpolation-filters="sRGB">
<feFlood flood-opacity="0" result="BackgroundImageFix"/>
<feBlend mode="normal" in="SourceGraphic" in2="BackgroundImageFix" result="shape"/>
<feGaussianBlur stdDeviation="12" result="effect1_foregroundBlur"/>
</filter>
<linearGradient id="paint0_linear" x1="322.994" y1="95.0978" x2="386.124" y2="36.3746" gradientUnits="userSpaceOnUse">
<stop stop-color="#C4C4C4" stop-opacity="0.53"/>
<stop offset="1" stop-color="white" stop-opacity="0"/>
</linearGradient>
<linearGradient id="paint1_linear" x1="322.996" y1="95.0975" x2="386.033" y2="36.4603" gradientUnits="userSpaceOnUse">
<stop stop-color="#C4C4C4" stop-opacity="0.53"/>
<stop offset="1" stop-color="white" stop-opacity="0"/>
</linearGradient>
<linearGradient id="paint2_linear" x1="626.995" y1="308.099" x2="666.663" y2="271.2" gradientUnits="userSpaceOnUse">
<stop stop-color="#C4C4C4" stop-opacity="0.53"/>
<stop offset="1" stop-color="white" stop-opacity="0"/>
</linearGradient>
<linearGradient id="paint3_linear" x1="626.995" y1="308.099" x2="666.605" y2="271.254" gradientUnits="userSpaceOnUse">
<stop stop-color="#C4C4C4" stop-opacity="0.53"/>
<stop offset="1" stop-color="white" stop-opacity="0"/>
</linearGradient>
<linearGradient id="paint4_linear" x1="624.942" y1="105.262" x2="664.857" y2="68.1285" gradientUnits="userSpaceOnUse">
<stop stop-color="#C4C4C4" stop-opacity="0.53"/>
<stop offset="1" stop-color="white" stop-opacity="0"/>
</linearGradient>
<linearGradient id="paint5_linear" x1="624.942" y1="105.263" x2="664.798" y2="68.1844" gradientUnits="userSpaceOnUse">
<stop stop-color="#C4C4C4" stop-opacity="0.53"/>
<stop offset="1" stop-color="white" stop-opacity="0"/>
</linearGradient>
</defs>
</svg>
