<svg viewBox="0 0 1316 547" fill="none" xmlns="http://www.w3.org/2000/svg">
  <g style="mix-blend-mode:screen" filter="url(#filter0_f_comet_sky)">
    <circle cx="1119.59" cy="187.159" r="50" transform="rotate(25 1119.59 187.159)" fill="url(#paint0_linear_comet_sky)"
      style="mix-blend-mode:color" />
  </g>
  <g style="mix-blend-mode:darken">
    <circle cx="1119.59" cy="187.159" r="50" transform="rotate(25 1119.59 187.159)" fill="#FF0075" />
  </g>
  <g style="mix-blend-mode:screen" filter="url(#filter1_f_comet_sky)">
    <path
      d="M1213.55 247.716C1211.07 253.047 1182.9 245.469 1145.14 230.144C1133.28 225.331 1120.47 219.755 1107.22 213.575C1051.76 187.714 1009.45 161.071 1012.72 154.066C1015.03 149.115 1039.48 155.298 1073.21 168.479C1072.88 169.285 1072.58 170.096 1072.3 170.909C1072 171.776 1071.72 172.647 1071.48 173.52C1067.59 172.674 1065.18 172.648 1064.73 173.603C1063.24 176.813 1084.5 189.898 1112.23 202.829C1130.84 211.508 1147.64 217.911 1157.12 220.213C1161.77 221.34 1164.66 221.484 1165.15 220.428C1165.59 219.48 1164.05 217.673 1160.95 215.264C1161.94 213.803 1162.86 212.276 1163.71 210.687C1195.44 228.029 1215.86 242.769 1213.55 247.716Z"
      fill="url(#paint1_linear_comet_sky)" style="mix-blend-mode:color" />
  </g>
  <g style="mix-blend-mode:screen">
    <path
      d="M1213.55 247.716C1211.07 253.048 1182.9 245.469 1145.14 230.144C1133.28 225.332 1120.47 219.756 1107.22 213.575C1051.76 187.715 1009.45 161.071 1012.72 154.066C1015.03 149.115 1039.48 155.298 1073.21 168.48C1072.88 169.286 1072.58 170.096 1072.3 170.91C1072 171.776 1071.72 172.647 1071.48 173.521C1067.59 172.674 1065.18 172.648 1064.73 173.603C1063.24 176.814 1084.5 189.899 1112.23 202.829C1130.84 211.508 1147.64 217.911 1157.12 220.213C1161.77 221.341 1164.66 221.484 1165.15 220.428C1165.59 219.481 1164.05 217.673 1160.95 215.264C1161.94 213.803 1162.86 212.276 1163.71 210.687C1195.44 228.029 1215.86 242.769 1213.55 247.716Z"
      fill="#7600FF" />
  </g>
  <g opacity="0.5" filter="url(#filter2_f_comet_sky)">
    <path
      d="M38.322 257.139C30.4122 248.657 30.8762 235.369 39.3584 227.459L131.04 154.954L70.1549 211.73L210.739 96.3583L38.322 257.139Z"
      fill="url(#paint2_linear_comet_sky)" style="mix-blend-mode:color" />
    <path
      d="M38.322 257.139C46.2318 265.622 59.5201 266.086 68.0024 258.176L146.726 171.775L85.8409 228.552L210.739 96.3583L38.322 257.139Z"
      fill="url(#paint3_linear_comet_sky)" style="mix-blend-mode:color" />
  </g>
  <path
    d="M52.9491 243.5C48.9942 239.258 49.2262 232.614 53.4673 228.659L99.3081 192.407L68.8655 220.795L139.157 163.109L52.9491 243.5Z"
    fill="#7600FF" />
  <path
    d="M52.9491 243.5C56.904 247.741 63.5482 247.973 67.7893 244.018L107.151 200.817L76.7085 229.206L139.157 163.109L52.9491 243.5Z"
    fill="#7600FF" />
  <circle r="18" transform="matrix(0.681998 0.731354 0.731354 -0.681998 53.6803 242.818)" fill="#7600FF" />
  <circle r="3" transform="matrix(0.99863 -0.0523359 -0.0523359 -0.99863 41.4973 246.045)" fill="#5E00CC" />
  <circle r="3.5" transform="matrix(0.99863 -0.0523359 -0.0523359 -0.99863 54.5852 242.605)" fill="#5E00CC" />
  <circle r="2.5" transform="matrix(0.99863 -0.0523359 -0.0523359 -0.99863 53.2683 255.692)" fill="#5E00CC" />
  <circle r="2" transform="matrix(0.99863 -0.0523359 -0.0523359 -0.99863 63.1672 234.395)" fill="#5E00CC" />
  <circle r="1.5" transform="matrix(0.99863 -0.0523359 -0.0523359 -0.99863 47.2556 231.724)" fill="#5E00CC" />
  <circle r="1.5" transform="matrix(0.99863 -0.0523359 -0.0523359 -0.99863 66.1206 247.759)" fill="#5E00CC" />
  <path
    d="M38.322 257.139C30.4122 248.657 30.8762 235.369 39.3584 227.459L131.04 154.954L70.1549 211.73L210.739 96.3583L38.322 257.139Z"
    fill="url(#paint4_linear_comet_sky)" style="mix-blend-mode:color" />
  <path
    d="M38.322 257.139C46.2318 265.622 59.5201 266.086 68.0024 258.176L146.726 171.775L85.8409 228.552L210.739 96.3583L38.322 257.139Z"
    fill="url(#paint5_linear_comet_sky)" style="mix-blend-mode:color" />
  <g opacity="0.4" filter="url(#filter3_f_comet_sky)">
    <path
      d="M709.79 55.9384L608.493 160.654L614.631 167.237L726.158 73.4909L674.236 111.654L803.176 -14.7381L668.098 105.071L709.79 55.9384Z"
      fill="url(#paint6_linear_comet_sky)" style="mix-blend-mode:color" />
  </g>
  <path
    d="M662.567 107.493L609.791 162.049L612.988 165.477L671.092 116.635L644.042 136.519L711.22 70.6701L640.845 133.09L662.567 107.493Z"
    fill="url(#paint7_linear_comet_sky)" style="mix-blend-mode:color-dodge" />
  <path
    d="M709.788 55.9387L608.491 160.655L614.629 167.237L726.156 73.4912L674.235 111.654L803.175 -14.7379L668.097 105.072L709.788 55.9387Z"
    fill="url(#paint8_linear_comet_sky)" style="mix-blend-mode:color" />
  <path
    d="M597.299 177.245L610.139 171.257L619.801 181.619L618.075 167.557L630.915 161.569L617.008 158.866L615.281 144.804L608.413 157.195L594.505 154.492L604.168 164.854L597.299 177.245Z"
    fill="#7600FF" />
  <g filter="url(#filter4_f_comet_sky)">
    <path
      d="M1162.09 447.839C1159.83 445.416 1159.96 441.619 1162.39 439.359L1286.97 331.388L1170.57 448.135C1168.15 450.395 1164.35 450.263 1162.09 447.839Z"
      fill="url(#paint9_linear_comet_sky)" />
  </g>
  <path
    d="M1162.09 447.839C1159.83 445.416 1159.96 441.619 1162.39 439.359L1286.79 331.559L1170.57 448.135C1168.15 450.395 1164.35 450.263 1162.09 447.839Z"
    fill="url(#paint10_linear_comet_sky)" />
  <circle r="6" transform="matrix(0.681998 0.731354 0.731354 -0.681998 1166.48 443.747)" fill="white" />
  <g filter="url(#filter5_f_comet_sky)">
    <path
      d="M250.092 517.839C247.832 515.416 247.965 511.619 250.388 509.359L374.971 401.388L258.572 518.135C256.149 520.395 252.352 520.263 250.092 517.839Z"
      fill="url(#paint11_linear_comet_sky)" />
  </g>
  <path
    d="M250.092 517.839C247.832 515.416 247.965 511.619 250.388 509.359L374.788 401.559L258.572 518.135C256.149 520.395 252.352 520.263 250.092 517.839Z"
    fill="url(#paint12_linear_comet_sky)" />
  <circle r="6" transform="matrix(0.681998 0.731354 0.731354 -0.681998 254.48 513.747)" fill="white" />
  <defs>
    <filter id="filter0_f_comet_sky" x="1029.14" y="96.7129" width="180.893" height="180.893"
      filterUnits="userSpaceOnUse" color-interpolation-filters="sRGB">
      <feFlood flood-opacity="0" result="BackgroundImageFix" />
      <feBlend mode="normal" in="SourceGraphic" in2="BackgroundImageFix" result="shape" />
      <feGaussianBlur stdDeviation="12" result="effect1_foregroundBlur" />
    </filter>
    <filter id="filter1_f_comet_sky" x="982.804" y="118.737" width="260.032" height="165.664"
      filterUnits="userSpaceOnUse" color-interpolation-filters="sRGB">
      <feFlood flood-opacity="0" result="BackgroundImageFix" />
      <feBlend mode="normal" in="SourceGraphic" in2="BackgroundImageFix" result="shape" />
      <feGaussianBlur stdDeviation="12" result="effect1_foregroundBlur" />
    </filter>
    <filter id="filter2_f_comet_sky" x="0" y="57" width="249.061" height="239.498" filterUnits="userSpaceOnUse"
      color-interpolation-filters="sRGB">
      <feFlood flood-opacity="0" result="BackgroundImageFix" />
      <feBlend mode="normal" in="SourceGraphic" in2="BackgroundImageFix" result="shape" />
      <feGaussianBlur stdDeviation="12" result="effect1_foregroundBlur" />
    </filter>
    <filter id="filter3_f_comet_sky" x="579.378" y="-47.5144" width="255.983" height="244.236"
      filterUnits="userSpaceOnUse" color-interpolation-filters="sRGB">
      <feFlood flood-opacity="0" result="BackgroundImageFix" />
      <feBlend mode="normal" in="SourceGraphic" in2="BackgroundImageFix" result="shape" />
      <feGaussianBlur stdDeviation="12" result="effect1_foregroundBlur" />
    </filter>
    <filter id="filter4_f_comet_sky" x="1134" y="303" width="181.063" height="173.227" filterUnits="userSpaceOnUse"
      color-interpolation-filters="sRGB">
      <feFlood flood-opacity="0" result="BackgroundImageFix" />
      <feBlend mode="normal" in="SourceGraphic" in2="BackgroundImageFix" result="shape" />
      <feGaussianBlur stdDeviation="12" result="effect1_foregroundBlur" />
    </filter>
    <filter id="filter5_f_comet_sky" x="222" y="373" width="181.063" height="173.227" filterUnits="userSpaceOnUse"
      color-interpolation-filters="sRGB">
      <feFlood flood-opacity="0" result="BackgroundImageFix" />
      <feBlend mode="normal" in="SourceGraphic" in2="BackgroundImageFix" result="shape" />
      <feGaussianBlur stdDeviation="12" result="effect1_foregroundBlur" />
    </filter>
    <linearGradient id="paint0_linear_comet_sky" x1="1059.42" y1="145.944" x2="1069.73" y2="242.808"
      gradientUnits="userSpaceOnUse">
      <stop stop-color="#9E00FF" />
      <stop offset="1" stop-color="#180026" />
    </linearGradient>
    <linearGradient id="paint1_linear_comet_sky" x1="995.823" y1="136.982" x2="977.194" y2="179.426"
      gradientUnits="userSpaceOnUse">
      <stop stop-color="#9E00FF" />
      <stop offset="1" stop-color="#180026" />
    </linearGradient>
    <linearGradient id="paint2_linear_comet_sky" x1="210.739" y1="96.3583" x2="38.322" y2="257.139"
      gradientUnits="userSpaceOnUse">
      <stop stop-color="#231557" />
      <stop offset="1" stop-color="#FF0084" />
    </linearGradient>
    <linearGradient id="paint3_linear_comet_sky" x1="210.739" y1="96.3583" x2="38.322" y2="257.139"
      gradientUnits="userSpaceOnUse">
      <stop stop-color="#231557" />
      <stop offset="1" stop-color="#FF0084" />
    </linearGradient>
    <linearGradient id="paint4_linear_comet_sky" x1="210.739" y1="96.3583" x2="38.322" y2="257.139"
      gradientUnits="userSpaceOnUse">
      <stop stop-color="#231557" />
      <stop offset="1" stop-color="#FF0084" />
    </linearGradient>
    <linearGradient id="paint5_linear_comet_sky" x1="210.739" y1="96.3583" x2="38.322" y2="257.139"
      gradientUnits="userSpaceOnUse">
      <stop stop-color="#231557" />
      <stop offset="1" stop-color="#FF0084" />
    </linearGradient>
    <linearGradient id="paint6_linear_comet_sky" x1="618.547" y1="137.687" x2="784.951" y2="156.02"
      gradientUnits="userSpaceOnUse">
      <stop stop-color="#9E00FF" />
      <stop offset="1" stop-color="#180026" />
    </linearGradient>
    <linearGradient id="paint7_linear_comet_sky" x1="711.22" y1="70.6701" x2="611.39" y2="163.763"
      gradientUnits="userSpaceOnUse">
      <stop stop-color="#833AB4" />
      <stop offset="0.489583" stop-color="#FD1D1D" />
      <stop offset="1" stop-color="#FCB045" />
    </linearGradient>
    <linearGradient id="paint8_linear_comet_sky" x1="618.546" y1="137.687" x2="784.95" y2="156.02"
      gradientUnits="userSpaceOnUse">
      <stop stop-color="#9E00FF" />
      <stop offset="1" stop-color="#180026" />
    </linearGradient>
    <linearGradient id="paint9_linear_comet_sky" x1="1162.09" y1="447.839" x2="1286.97" y2="331.388"
      gradientUnits="userSpaceOnUse">
      <stop stop-color="white" />
      <stop offset="1" stop-color="white" stop-opacity="0" />
    </linearGradient>
    <linearGradient id="paint10_linear_comet_sky" x1="1162.09" y1="447.839" x2="1286.79" y2="331.559"
      gradientUnits="userSpaceOnUse">
      <stop stop-color="white" />
      <stop offset="1" stop-color="white" stop-opacity="0" />
    </linearGradient>
    <linearGradient id="paint11_linear_comet_sky" x1="250.092" y1="517.839" x2="374.971" y2="401.388"
      gradientUnits="userSpaceOnUse">
      <stop stop-color="white" />
      <stop offset="1" stop-color="white" stop-opacity="0" />
    </linearGradient>
    <linearGradient id="paint12_linear_comet_sky" x1="250.092" y1="517.839" x2="374.788" y2="401.559"
      gradientUnits="userSpaceOnUse">
      <stop stop-color="white" />
      <stop offset="1" stop-color="white" stop-opacity="0" />
    </linearGradient>
  </defs>
</svg>