<svg viewBox="0 0 717 762" fill="none" xmlns="http://www.w3.org/2000/svg">
  <g opacity="0.5" filter="url(#filter0_f_comets)">
    <path
      d="M101.994 133.348C72.174 168.886 76.8095 221.87 112.348 251.69L493.75 522.119L238.658 308.071L824.374 739.497L101.994 133.348Z"
      fill="url(#paint0_linear_comets)" style="mix-blend-mode:color" />
    <path
      d="M101.994 133.348C131.814 97.8096 184.798 93.1741 220.336 122.994L552.887 451.643L297.794 237.595L824.374 739.497L101.994 133.348Z"
      fill="url(#paint1_linear_comets)" style="mix-blend-mode:color" />
  </g>
  <path
    d="M163.278 184.771C148.368 202.54 150.685 229.032 168.455 243.942L359.156 379.156L231.609 272.132L524.468 487.845L163.278 184.771Z"
    fill="#FF0075" />
  <path
    d="M163.278 184.771C178.188 167.002 204.68 164.684 222.449 179.594L388.724 343.918L261.178 236.894L524.468 487.845L163.278 184.771Z"
    fill="#FF0075" />
  <circle cx="166.342" cy="187.342" r="72" transform="rotate(-50 166.342 187.342)" fill="#FF00DA" />
  <circle cx="117" cy="177" r="12" fill="#990046" />
  <circle cx="170" cy="188" r="14" fill="#990046" />
  <circle cx="162" cy="136" r="10" fill="#990046" />
  <circle cx="206" cy="219" r="8" fill="#990046" />
  <circle cx="143" cy="233" r="6" fill="#990046" />
  <circle cx="215" cy="165" r="6" fill="#990046" />
  <path
    d="M101.994 133.348C72.174 168.886 76.8095 221.87 112.348 251.69L493.75 522.119L238.658 308.071L824.374 739.497L101.994 133.348Z"
    fill="url(#paint2_linear_comets)" style="mix-blend-mode:color" />
  <path
    d="M101.994 133.348C131.814 97.8096 184.798 93.1741 220.336 122.994L552.887 451.643L297.794 237.595L824.374 739.497L101.994 133.348Z"
    fill="url(#paint3_linear_comets)" style="mix-blend-mode:color" />
  <g opacity="0.5" filter="url(#filter1_f_comets)">
    <path
      d="M50.9971 471.174C36.087 488.943 38.4047 515.435 56.1739 530.345L246.875 665.559L119.329 558.535L412.187 774.248L50.9971 471.174Z"
      fill="url(#paint4_linear_comets)" style="mix-blend-mode:color" />
    <path
      d="M50.9971 471.174C65.9072 453.405 92.3989 451.087 110.168 465.997L276.443 630.321L148.897 523.297L412.187 774.248L50.9971 471.174Z"
      fill="url(#paint5_linear_comets)" style="mix-blend-mode:color" />
  </g>
  <path
    d="M81.6389 496.885C74.1838 505.77 75.3427 519.016 84.2273 526.471L179.578 594.078L115.805 540.566L262.234 648.422L81.6389 496.885Z"
    fill="#7600FF" />
  <path
    d="M81.6389 496.885C89.0939 488.001 102.34 486.842 111.224 494.297L194.362 576.459L130.589 522.947L262.234 648.422L81.6389 496.885Z"
    fill="#7600FF" />
  <circle cx="83.171" cy="498.171" r="36" transform="rotate(-50 83.171 498.171)" fill="#7600FF" />
  <circle cx="58.5" cy="493" r="6" fill="#5E00CC" />
  <circle cx="85" cy="498.5" r="7" fill="#5E00CC" />
  <circle cx="81" cy="472.5" r="5" fill="#5E00CC" />
  <circle cx="103" cy="514" r="4" fill="#5E00CC" />
  <circle cx="71.5" cy="521" r="3" fill="#5E00CC" />
  <circle cx="107.5" cy="487" r="3" fill="#5E00CC" />
  <path
    d="M50.9971 471.174C36.087 488.943 38.4047 515.435 56.1739 530.345L246.875 665.559L119.329 558.535L412.187 774.248L50.9971 471.174Z"
    fill="url(#paint6_linear_comets)" style="mix-blend-mode:color" />
  <path
    d="M50.9971 471.174C65.9072 453.405 92.3989 451.087 110.168 465.997L276.443 630.321L148.897 523.297L412.187 774.248L50.9971 471.174Z"
    fill="url(#paint7_linear_comets)" style="mix-blend-mode:color" />
  <g opacity="0.4" filter="url(#filter2_f_comets)">
    <path
      d="M649.439 260.381L436.162 61.8394L447.732 48.0506L680.293 223.611L572.597 152.825L843.354 391.766L561.027 166.614L649.439 260.381Z"
      fill="url(#paint8_linear_comets)" style="mix-blend-mode:color" />
  </g>
  <path
    d="M549.727 162.355L438.61 58.9184L444.636 51.7367L565.797 143.204L509.69 106.323L650.753 230.809L503.664 113.505L549.727 162.355Z"
    fill="url(#paint9_linear_comets)" style="mix-blend-mode:color-dodge" />
  <path
    d="M649.436 260.381L436.159 61.8389L447.73 48.0501L680.29 223.611L572.595 152.824L843.352 391.765L561.025 166.613L649.436 260.381Z"
    fill="url(#paint10_linear_comets)" style="mix-blend-mode:color" />
  <path
    d="M412.069 29.8757L438.341 40.4903L456.554 18.7843L454.578 47.0504L480.849 57.665L453.356 64.5198L451.379 92.786L436.364 68.7564L408.871 75.6113L427.084 53.9053L412.069 29.8757Z"
    fill="#7600FF" />
  <g filter="url(#filter3_f_comets)">
    <path
      d="M67.7135 325.193C63.4534 330.27 64.1156 337.839 69.1925 342.099L329.318 544.705L84.6194 323.714C79.5425 319.454 71.9735 320.116 67.7135 325.193Z"
      fill="url(#paint11_linear_comets)" />
  </g>
  <path
    d="M67.7135 325.193C63.4534 330.27 64.1156 337.839 69.1925 342.099L328.935 544.383L84.6194 323.714C79.5425 319.454 71.9735 320.116 67.7135 325.193Z"
    fill="url(#paint12_linear_comets)" />
  <circle cx="76.906" cy="332.906" r="12" transform="rotate(-50 76.906 332.906)" fill="white" />
  <g filter="url(#filter4_f_comets)">
    <path
      d="M285.713 69.1927C281.453 74.2696 282.116 81.8387 287.193 86.0987L547.318 288.705L302.619 67.7136C297.543 63.4536 289.973 64.1158 285.713 69.1927Z"
      fill="url(#paint13_linear_comets)" />
  </g>
  <path
    d="M285.713 69.1927C281.453 74.2696 282.116 81.8387 287.193 86.0987L546.935 288.383L302.619 67.7136C297.543 63.4536 289.973 64.1158 285.713 69.1927Z"
    fill="url(#paint14_linear_comets)" />
  <circle cx="294.906" cy="76.9062" r="12" transform="rotate(-50 294.906 76.9062)" fill="white" />
  <defs>
    <filter id="filter0_f_comets" x="24" y="45" width="878.368" height="782.844" filterUnits="userSpaceOnUse"
      color-interpolation-filters="sRGB">
      <feFlood flood-opacity="0" result="BackgroundImageFix" />
      <feBlend mode="normal" in="SourceGraphic" in2="BackgroundImageFix" result="shape" />
      <feGaussianBlur stdDeviation="12" result="effect1_foregroundBlur" />
    </filter>
    <filter id="filter1_f_comets" x="0" y="415" width="463.184" height="415.422" filterUnits="userSpaceOnUse"
      color-interpolation-filters="sRGB">
      <feFlood flood-opacity="0" result="BackgroundImageFix" />
      <feBlend mode="normal" in="SourceGraphic" in2="BackgroundImageFix" result="shape" />
      <feGaussianBlur stdDeviation="12" result="effect1_foregroundBlur" />
    </filter>
    <filter id="filter2_f_comets" x="402.52" y="12.5601" width="480.261" height="421.591" filterUnits="userSpaceOnUse"
      color-interpolation-filters="sRGB">
      <feFlood flood-opacity="0" result="BackgroundImageFix" />
      <feBlend mode="normal" in="SourceGraphic" in2="BackgroundImageFix" result="shape" />
      <feGaussianBlur stdDeviation="12" result="effect1_foregroundBlur" />
    </filter>
    <filter id="filter3_f_comets" x="36" y="292" width="325.031" height="285.897" filterUnits="userSpaceOnUse"
      color-interpolation-filters="sRGB">
      <feFlood flood-opacity="0" result="BackgroundImageFix" />
      <feBlend mode="normal" in="SourceGraphic" in2="BackgroundImageFix" result="shape" />
      <feGaussianBlur stdDeviation="12" result="effect1_foregroundBlur" />
    </filter>
    <filter id="filter4_f_comets" x="254" y="36.0002" width="325.031" height="285.897" filterUnits="userSpaceOnUse"
      color-interpolation-filters="sRGB">
      <feFlood flood-opacity="0" result="BackgroundImageFix" />
      <feBlend mode="normal" in="SourceGraphic" in2="BackgroundImageFix" result="shape" />
      <feGaussianBlur stdDeviation="12" result="effect1_foregroundBlur" />
    </filter>
    <linearGradient id="paint0_linear_comets" x1="824.374" y1="739.497" x2="101.994" y2="133.348"
      gradientUnits="userSpaceOnUse">
      <stop stop-color="#231557" />
      <stop offset="1" stop-color="#FF0084" />
    </linearGradient>
    <linearGradient id="paint1_linear_comets" x1="824.374" y1="739.497" x2="101.994" y2="133.348"
      gradientUnits="userSpaceOnUse">
      <stop stop-color="#231557" />
      <stop offset="1" stop-color="#FF0084" />
    </linearGradient>
    <linearGradient id="paint2_linear_comets" x1="824.374" y1="739.497" x2="101.994" y2="133.348"
      gradientUnits="userSpaceOnUse">
      <stop stop-color="#231557" />
      <stop offset="1" stop-color="#FF0084" />
    </linearGradient>
    <linearGradient id="paint3_linear_comets" x1="824.374" y1="739.497" x2="101.994" y2="133.348"
      gradientUnits="userSpaceOnUse">
      <stop stop-color="#231557" />
      <stop offset="1" stop-color="#FF0084" />
    </linearGradient>
    <linearGradient id="paint4_linear_comets" x1="60.0244" y1="469.098" x2="377.956" y2="803.509"
      gradientUnits="userSpaceOnUse">
      <stop stop-color="#FD00FF" />
      <stop offset="1" stop-color="#001AFF" />
    </linearGradient>
    <linearGradient id="paint5_linear_comets" x1="60.0244" y1="469.098" x2="377.956" y2="803.509"
      gradientUnits="userSpaceOnUse">
      <stop stop-color="#FD00FF" />
      <stop offset="1" stop-color="#001AFF" />
    </linearGradient>
    <linearGradient id="paint6_linear_comets" x1="60.0244" y1="469.098" x2="377.956" y2="803.509"
      gradientUnits="userSpaceOnUse">
      <stop stop-color="#FD00FF" />
      <stop offset="1" stop-color="#001AFF" />
    </linearGradient>
    <linearGradient id="paint7_linear_comets" x1="60.0244" y1="469.098" x2="377.956" y2="803.509"
      gradientUnits="userSpaceOnUse">
      <stop stop-color="#FD00FF" />
      <stop offset="1" stop-color="#001AFF" />
    </linearGradient>
    <linearGradient id="paint8_linear_comets" x1="449.414" y1="55.6961" x2="756.985" y2="455.011"
      gradientUnits="userSpaceOnUse">
      <stop stop-color="#FD00FF" />
      <stop offset="1" stop-color="#001AFF" />
    </linearGradient>
    <linearGradient id="paint9_linear_comets" x1="650.753" y1="230.809" x2="441.623" y2="55.3275"
      gradientUnits="userSpaceOnUse">
      <stop stop-color="#833AB4" />
      <stop offset="0.489583" stop-color="#FD1D1D" />
      <stop offset="1" stop-color="#FCB045" />
    </linearGradient>
    <linearGradient id="paint10_linear_comets" x1="449.411" y1="55.6956" x2="756.982" y2="455.01"
      gradientUnits="userSpaceOnUse">
      <stop stop-color="#FD00FF" />
      <stop offset="1" stop-color="#001AFF" />
    </linearGradient>
    <linearGradient id="paint11_linear_comets" x1="67.7135" y1="325.193" x2="329.318" y2="544.705"
      gradientUnits="userSpaceOnUse">
      <stop stop-color="white" />
      <stop offset="1" stop-color="white" stop-opacity="0" />
    </linearGradient>
    <linearGradient id="paint12_linear_comets" x1="67.7135" y1="325.193" x2="328.935" y2="544.383"
      gradientUnits="userSpaceOnUse">
      <stop stop-color="white" />
      <stop offset="1" stop-color="white" stop-opacity="0" />
    </linearGradient>
    <linearGradient id="paint13_linear_comets" x1="285.713" y1="69.1927" x2="547.318" y2="288.705"
      gradientUnits="userSpaceOnUse">
      <stop stop-color="white" />
      <stop offset="1" stop-color="white" stop-opacity="0" />
    </linearGradient>
    <linearGradient id="paint14_linear_comets" x1="285.713" y1="69.1927" x2="546.935" y2="288.383"
      gradientUnits="userSpaceOnUse">
      <stop stop-color="white" />
      <stop offset="1" stop-color="white" stop-opacity="0" />
    </linearGradient>
  </defs>
</svg>