<svg viewBox="0 0 307 771" fill="none" xmlns="http://www.w3.org/2000/svg">
  <g opacity="0.5" filter="url(#filter0_f_comets_mobile)">
    <path
      d="M52.5429 164.332C44.5111 173.903 45.7596 188.174 55.3315 196.206L158.059 269.044L89.352 211.392L247.11 327.593L52.5429 164.332Z"
      fill="url(#paint0_linear_comets_mobile)" style="mix-blend-mode:color" />
    <path
      d="M52.5429 164.332C60.5747 154.76 74.8453 153.511 84.4173 161.543L173.987 250.062L105.28 192.41L247.11 327.593L52.5429 164.332Z"
      fill="url(#paint1_linear_comets_mobile)" style="mix-blend-mode:color" />
  </g>
  <path
    d="M69.0493 178.182C65.0334 182.968 65.6576 190.103 70.4436 194.119L121.807 230.538L87.4538 201.712L166.333 259.812L69.0493 178.182Z"
    fill="#FF0075" />
  <path
    d="M69.0493 178.182C73.0652 173.396 80.2005 172.772 84.9865 176.788L129.771 221.047L95.4178 192.221L166.333 259.812L69.0493 178.182Z"
    fill="#FF0075" />
  <ellipse cx="69.8741" cy="178.874" rx="19.3926" ry="19.3926" transform="rotate(-50 69.8741 178.874)" fill="#FF00DA" />
  <circle cx="56.5846" cy="176.088" r="3.2321" fill="#990046" />
  <circle cx="70.8596" cy="179.051" r="3.77078" fill="#990046" />
  <circle cx="68.7046" cy="165.045" r="2.69341" fill="#990046" />
  <circle cx="80.5561" cy="187.401" r="2.15473" fill="#990046" />
  <circle cx="63.5877" cy="191.172" r="1.61605" fill="#990046" />
  <circle cx="82.9803" cy="172.857" r="1.61605" fill="#990046" />
  <path
    d="M52.5429 164.332C44.5111 173.903 45.7596 188.174 55.3315 196.206L158.059 269.044L89.352 211.392L247.11 327.593L52.5429 164.332Z"
    fill="url(#paint2_linear_comets_mobile)" style="mix-blend-mode:color" />
  <path
    d="M52.5429 164.332C60.5747 154.76 74.8453 153.511 84.4173 161.543L173.987 250.062L105.28 192.41L247.11 327.593L52.5429 164.332Z"
    fill="url(#paint3_linear_comets_mobile)" style="mix-blend-mode:color" />
  <g opacity="0.5" filter="url(#filter1_f_comets_mobile)">
    <path
      d="M18.4453 614.256C13.2288 620.473 14.0397 629.741 20.2564 634.957L86.9756 682.264L42.3519 644.82L144.812 720.29L18.4453 614.256Z"
      fill="url(#paint4_linear_comets_mobile)" style="mix-blend-mode:color" />
    <path
      d="M18.4453 614.256C23.6617 608.039 32.9302 607.228 39.1469 612.445L97.3204 669.935L52.6967 632.492L144.812 720.29L18.4453 614.256Z"
      fill="url(#paint5_linear_comets_mobile)" style="mix-blend-mode:color" />
  </g>
  <path
    d="M29.166 623.252C26.5578 626.361 26.9632 630.995 30.0716 633.603L63.4311 657.256L41.1193 638.534L92.3493 676.269L29.166 623.252Z"
    fill="#7600FF" />
  <path
    d="M29.166 623.252C31.7742 620.144 36.4084 619.738 39.5168 622.347L68.6035 651.092L46.2917 632.37L92.3493 676.269L29.166 623.252Z"
    fill="#7600FF" />
  <ellipse cx="29.7028" cy="623.701" rx="12.595" ry="12.595" transform="rotate(-50 29.7028 623.701)" fill="#7600FF" />
  <circle cx="21.0713" cy="621.893" r="2.09917" fill="#5E00CC" />
  <circle cx="30.3421" cy="623.818" r="2.44903" fill="#5E00CC" />
  <circle cx="28.9422" cy="614.721" r="1.74931" fill="#5E00CC" />
  <circle cx="36.6392" cy="629.241" r="1.39945" fill="#5E00CC" />
  <circle cx="25.6184" cy="631.689" r="1.04959" fill="#5E00CC" />
  <circle cx="38.2136" cy="619.793" r="1.04959" fill="#5E00CC" />
  <path
    d="M18.4453 614.256C13.2288 620.473 14.0397 629.741 20.2564 634.957L86.9756 682.264L42.3519 644.82L144.812 720.29L18.4453 614.256Z"
    fill="url(#paint6_linear_comets_mobile)" style="mix-blend-mode:color" />
  <path
    d="M18.4453 614.256C23.6617 608.039 32.9302 607.228 39.1469 612.445L97.3204 669.935L52.6967 632.492L144.812 720.29L18.4453 614.256Z"
    fill="url(#paint7_linear_comets_mobile)" style="mix-blend-mode:color" />
  <g opacity="0.4" filter="url(#filter2_f_comets_mobile)">
    <path
      d="M337.823 171.253L278.641 116.16L281.852 112.333L346.385 161.049L316.5 141.407L391.632 207.71L313.29 145.233L337.823 171.253Z"
      fill="url(#paint8_linear_comets_mobile)" style="mix-blend-mode:color" />
  </g>
  <path
    d="M310.155 144.051L279.321 115.349L280.993 113.356L314.614 138.737L299.045 128.503L338.188 163.046L297.373 130.496L310.155 144.051Z"
    fill="url(#paint9_linear_comets_mobile)" style="mix-blend-mode:color-dodge" />
  <path
    d="M337.823 171.253L278.641 116.16L281.852 112.333L346.385 161.049L316.5 141.407L391.632 207.71L313.29 145.233L337.823 171.253Z"
    fill="url(#paint10_linear_comets_mobile)" style="mix-blend-mode:color" />
  <path
    d="M271.956 107.29L279.246 110.235L284.3 104.212L283.752 112.056L291.042 115.001L283.413 116.903L282.864 124.747L278.698 118.079L271.069 119.981L276.123 113.958L271.956 107.29Z"
    fill="#7600FF" />
  <g filter="url(#filter3_f_comets_mobile)">
    <path
      d="M249.84 674.385C248.272 676.254 248.516 679.041 250.385 680.61L346.173 755.217L256.066 673.84C254.196 672.271 251.409 672.515 249.84 674.385Z"
      fill="url(#paint11_linear_comets_mobile)" />
  </g>
  <path
    d="M249.84 674.385C248.272 676.254 248.516 679.041 250.385 680.61L346.031 755.098L256.066 673.84C254.196 672.271 251.409 672.515 249.84 674.385Z"
    fill="url(#paint12_linear_comets_mobile)" />
  <ellipse rx="4.41884" ry="4.41884" transform="matrix(0.642787 -0.766045 0.766044 0.642788 253.225 677.225)"
    fill="white" />
  <g filter="url(#filter4_f_comets_mobile)">
    <path
      d="M61.1699 9.5859C59.9715 11.0141 60.1578 13.1434 61.586 14.3418L134.762 71.3373L65.9257 9.16982C64.4976 7.97142 62.3683 8.15771 61.1699 9.5859Z"
      fill="url(#paint13_linear_comets_mobile)" />
  </g>
  <path
    d="M61.1699 9.5859C59.9715 11.0141 60.1578 13.1434 61.586 14.3418L134.655 71.2469L65.9257 9.16982C64.4976 7.97142 62.3683 8.15771 61.1699 9.5859Z"
    fill="url(#paint14_linear_comets_mobile)" />
  <ellipse rx="3.37575" ry="3.37575" transform="matrix(0.642787 -0.766045 0.766044 0.642788 63.7559 11.7558)"
    fill="white" />
  <defs>
    <filter id="filter0_f_comets_mobile" x="31.3389" y="140.339" width="236.975" height="211.246"
      filterUnits="userSpaceOnUse" color-interpolation-filters="sRGB">
      <feFlood flood-opacity="0" result="BackgroundImageFix" />
      <feBlend mode="normal" in="SourceGraphic" in2="BackgroundImageFix" result="shape" />
      <feGaussianBlur stdDeviation="3.33053" result="effect1_foregroundBlur" />
    </filter>
    <filter id="filter1_f_comets_mobile" x="0.347585" y="594.347" width="162.562" height="145.852"
      filterUnits="userSpaceOnUse" color-interpolation-filters="sRGB">
      <feFlood flood-opacity="0" result="BackgroundImageFix" />
      <feBlend mode="normal" in="SourceGraphic" in2="BackgroundImageFix" result="shape" />
      <feGaussianBlur stdDeviation="4.32621" result="effect1_foregroundBlur" />
    </filter>
    <filter id="filter2_f_comets_mobile" x="271.779" y="105.471" width="126.716" height="109.102"
      filterUnits="userSpaceOnUse" color-interpolation-filters="sRGB">
      <feFlood flood-opacity="0" result="BackgroundImageFix" />
      <feBlend mode="normal" in="SourceGraphic" in2="BackgroundImageFix" result="shape" />
      <feGaussianBlur stdDeviation="3.43127" result="effect1_foregroundBlur" />
    </filter>
    <filter id="filter3_f_comets_mobile" x="235.239" y="659.239" width="125.535" height="111.124"
      filterUnits="userSpaceOnUse" color-interpolation-filters="sRGB">
      <feFlood flood-opacity="0" result="BackgroundImageFix" />
      <feBlend mode="normal" in="SourceGraphic" in2="BackgroundImageFix" result="shape" />
      <feGaussianBlur stdDeviation="5.88043" result="effect1_foregroundBlur" />
    </filter>
    <filter id="filter4_f_comets_mobile" x="52.0429" y="0.0428834" width="91.8465" height="80.8376"
      filterUnits="userSpaceOnUse" color-interpolation-filters="sRGB">
      <feFlood flood-opacity="0" result="BackgroundImageFix" />
      <feBlend mode="normal" in="SourceGraphic" in2="BackgroundImageFix" result="shape" />
      <feGaussianBlur stdDeviation="3.47856" result="effect1_foregroundBlur" />
    </filter>
    <linearGradient id="paint0_linear_comets_mobile" x1="247.11" y1="327.593" x2="52.5429" y2="164.332"
      gradientUnits="userSpaceOnUse">
      <stop stop-color="#231557" />
      <stop offset="1" stop-color="#FF0084" />
    </linearGradient>
    <linearGradient id="paint1_linear_comets_mobile" x1="247.11" y1="327.593" x2="52.5429" y2="164.332"
      gradientUnits="userSpaceOnUse">
      <stop stop-color="#231557" />
      <stop offset="1" stop-color="#FF0084" />
    </linearGradient>
    <linearGradient id="paint2_linear_comets_mobile" x1="247.11" y1="327.593" x2="52.5429" y2="164.332"
      gradientUnits="userSpaceOnUse">
      <stop stop-color="#231557" />
      <stop offset="1" stop-color="#FF0084" />
    </linearGradient>
    <linearGradient id="paint3_linear_comets_mobile" x1="247.11" y1="327.593" x2="52.5429" y2="164.332"
      gradientUnits="userSpaceOnUse">
      <stop stop-color="#231557" />
      <stop offset="1" stop-color="#FF0084" />
    </linearGradient>
    <linearGradient id="paint4_linear_comets_mobile" x1="21.6036" y1="613.53" x2="132.836" y2="730.527"
      gradientUnits="userSpaceOnUse">
      <stop stop-color="#FD00FF" />
      <stop offset="1" stop-color="#001AFF" />
    </linearGradient>
    <linearGradient id="paint5_linear_comets_mobile" x1="21.6036" y1="613.53" x2="132.836" y2="730.527"
      gradientUnits="userSpaceOnUse">
      <stop stop-color="#FD00FF" />
      <stop offset="1" stop-color="#001AFF" />
    </linearGradient>
    <linearGradient id="paint6_linear_comets_mobile" x1="21.6036" y1="613.53" x2="132.836" y2="730.527"
      gradientUnits="userSpaceOnUse">
      <stop stop-color="#FD00FF" />
      <stop offset="1" stop-color="#001AFF" />
    </linearGradient>
    <linearGradient id="paint7_linear_comets_mobile" x1="21.6036" y1="613.53" x2="132.836" y2="730.527"
      gradientUnits="userSpaceOnUse">
      <stop stop-color="#FD00FF" />
      <stop offset="1" stop-color="#001AFF" />
    </linearGradient>
    <linearGradient id="paint8_linear_comets_mobile" x1="282.319" y1="114.455" x2="367.666" y2="225.26"
      gradientUnits="userSpaceOnUse">
      <stop stop-color="#FD00FF" />
      <stop offset="1" stop-color="#001AFF" />
    </linearGradient>
    <linearGradient id="paint9_linear_comets_mobile" x1="338.188" y1="163.046" x2="280.157" y2="114.352"
      gradientUnits="userSpaceOnUse">
      <stop stop-color="#833AB4" />
      <stop offset="0.489583" stop-color="#FD1D1D" />
      <stop offset="1" stop-color="#FCB045" />
    </linearGradient>
    <linearGradient id="paint10_linear_comets_mobile" x1="282.319" y1="114.455" x2="367.666" y2="225.26"
      gradientUnits="userSpaceOnUse">
      <stop stop-color="#FD00FF" />
      <stop offset="1" stop-color="#001AFF" />
    </linearGradient>
    <linearGradient id="paint11_linear_comets_mobile" x1="249.84" y1="674.385" x2="346.173" y2="755.217"
      gradientUnits="userSpaceOnUse">
      <stop stop-color="white" />
      <stop offset="1" stop-color="white" stop-opacity="0" />
    </linearGradient>
    <linearGradient id="paint12_linear_comets_mobile" x1="249.84" y1="674.385" x2="346.031" y2="755.098"
      gradientUnits="userSpaceOnUse">
      <stop stop-color="white" />
      <stop offset="1" stop-color="white" stop-opacity="0" />
    </linearGradient>
    <linearGradient id="paint13_linear_comets_mobile" x1="61.1699" y1="9.5859" x2="134.762" y2="71.3373"
      gradientUnits="userSpaceOnUse">
      <stop stop-color="white" />
      <stop offset="1" stop-color="white" stop-opacity="0" />
    </linearGradient>
    <linearGradient id="paint14_linear_comets_mobile" x1="61.1699" y1="9.5859" x2="134.655" y2="71.2469"
      gradientUnits="userSpaceOnUse">
      <stop stop-color="white" />
      <stop offset="1" stop-color="white" stop-opacity="0" />
    </linearGradient>
  </defs>
</svg>