<svg width="40" height="28" viewBox="0 0 40 28" fill="none" xmlns="http://www.w3.org/2000/svg">
<mask id="mask0" mask-type="alpha" maskUnits="userSpaceOnUse" x="0" y="0" width="40" height="28">
<path d="M16 28H8H0V0H40V4H36V8H32V16H24V20H16V28Z" fill="#222121"/>
</mask>
<g mask="url(#mask0)">
<rect width="40" height="28" fill="white"/>
<rect x="12" y="24" width="4" height="4" transform="rotate(-90 12 24)" fill="#01B6CB"/>
<rect x="16" y="20" width="4" height="4" transform="rotate(-90 16 20)" fill="#01B6CB"/>
<rect x="20" y="20" width="4" height="4" transform="rotate(-90 20 20)" fill="#01B6CB"/>
<rect x="8" y="24" width="4" height="4" transform="rotate(-90 8 24)" fill="#34E9FE"/>
<rect x="8" y="20" width="4" height="4" transform="rotate(-90 8 20)" fill="#34E9FE"/>
<rect x="8" y="16" width="4" height="4" transform="rotate(-90 8 16)" fill="#67EEFE"/>
<rect x="16" y="16" width="4" height="4" transform="rotate(-90 16 16)" fill="#34E9FE"/>
<rect x="12" y="12" width="4" height="4" transform="rotate(-90 12 12)" fill="#67EEFE"/>
<rect x="20" y="12" width="4" height="4" transform="rotate(-90 20 12)" fill="#34E9FE"/>
<rect x="16" y="8" width="4" height="4" transform="rotate(-90 16 8)" fill="#99F4FF"/>
<rect x="20" y="8" width="4" height="4.00001" transform="rotate(-90 20 8)" fill="#67EEFE"/>
<rect x="4" y="12" width="4" height="4" transform="rotate(-90 4 12)" fill="#CCF9FF"/>
<rect x="4" y="16" width="4" height="4" transform="rotate(-90 4 16)" fill="#99F4FF"/>
<rect y="20" width="4" height="4" transform="rotate(-90 0 20)" fill="#99F4FF"/>
<rect y="8" width="4" height="4" transform="rotate(-90 0 8)" fill="#CCF9FF"/>
<rect x="4" y="4" width="4" height="4" transform="rotate(-90 4 4)" fill="#CCF9FF"/>
<rect x="8" y="4" width="4" height="4" transform="rotate(-90 8 4)" fill="#CCF9FF"/>
<rect x="12" y="4" width="4" height="4" transform="rotate(-90 12 4)" fill="#CCF9FF"/>
<rect x="24" y="4" width="4" height="4" transform="rotate(-90 24 4)" fill="#67EEFE"/>
<rect x="28" y="8" width="4" height="4" transform="rotate(-90 28 8)" fill="#34E9FE"/>
<rect x="32" y="4" width="4" height="4.00001" transform="rotate(-90 32 4)" fill="#34E9FE"/>
<rect x="36" y="4" width="4" height="4" transform="rotate(-90 36 4)" fill="#01B6CB"/>
<rect x="28" y="12" width="4" height="4" transform="rotate(-90 28 12)" fill="#01B6CB"/>
<rect x="28" y="16" width="4" height="4" transform="rotate(-90 28 16)" fill="#01B6CB"/>
<rect x="8" y="8" width="4" height="4" transform="rotate(-90 8 8)" fill="#CCF9FF"/>
<rect x="8" y="28" width="4" height="4" transform="rotate(-90 8 28)" fill="#01B6CB"/>
<rect x="4" y="28" width="4" height="4" transform="rotate(-90 4 28)" fill="#01B6CB"/>
</g>
</svg>
