<svg width="80" height="56" viewBox="0 0 80 56" fill="none" xmlns="http://www.w3.org/2000/svg">
<rect x="24" y="48" width="8" height="8" transform="rotate(-90 24 48)" fill="#FFCCE3"/>
<rect x="32" y="40" width="8" height="8" transform="rotate(-90 32 40)" fill="#FFCCE3"/>
<rect x="40" y="40" width="8" height="8" transform="rotate(-90 40 40)" fill="#FFCCE3"/>
<rect x="16" y="48" width="8" height="8" transform="rotate(-90 16 48)" fill="#FF99C8"/>
<rect x="16" y="40" width="8" height="8" transform="rotate(-90 16 40)" fill="#FF99C8"/>
<rect x="16" y="32" width="8" height="8" transform="rotate(-90 16 32)" fill="#FF66AC"/>
<rect x="32" y="32" width="8" height="8" transform="rotate(-90 32 32)" fill="#FF99C8"/>
<rect x="24" y="24" width="8" height="8" transform="rotate(-90 24 24)" fill="#FF66AC"/>
<rect x="40" y="24" width="8" height="8" transform="rotate(-90 40 24)" fill="#FF99C8"/>
<rect x="32" y="16" width="8" height="8" transform="rotate(-90 32 16)" fill="#FF3391"/>
<rect x="40" y="16" width="8" height="8" transform="rotate(-90 40 16)" fill="#FF66AC"/>
<rect x="8" y="24" width="8" height="8" transform="rotate(-90 8 24)" fill="#FF0075"/>
<rect x="8" y="32" width="8" height="8" transform="rotate(-90 8 32)" fill="#FF3391"/>
<rect y="40" width="8" height="8" transform="rotate(-90 0 40)" fill="#FF3391"/>
<rect y="16" width="8" height="8" transform="rotate(-90 0 16)" fill="#FF0075"/>
<rect x="8" y="8" width="8" height="8" transform="rotate(-90 8 8)" fill="#FF0075"/>
<rect y="8" width="8" height="8" transform="rotate(-90 0 8)" fill="white"/>
<rect y="24" width="8" height="8" transform="rotate(-90 0 24)" fill="white"/>
<rect y="32" width="8" height="8" transform="rotate(-90 0 32)" fill="white"/>
<rect x="8" y="16" width="8" height="8" transform="rotate(-90 8 16)" fill="white"/>
<rect x="8" y="40" width="8" height="8" transform="rotate(-90 8 40)" fill="white"/>
<rect x="8" y="48" width="8" height="8" transform="rotate(-90 8 48)" fill="white"/>
<rect y="48" width="8" height="8" transform="rotate(-90 0 48)" fill="white"/>
<rect y="56" width="8" height="8" transform="rotate(-90 0 56)" fill="white"/>
<rect x="16" y="24" width="8" height="8" transform="rotate(-90 16 24)" fill="white"/>
<rect x="24" y="16" width="8" height="8" transform="rotate(-90 24 16)" fill="white"/>
<rect x="32" y="8" width="8" height="8" transform="rotate(-90 32 8)" fill="white"/>
<rect x="40" y="8" width="8" height="8" transform="rotate(-90 40 8)" fill="white"/>
<rect x="56" y="8" width="8" height="8" transform="rotate(-90 56 8)" fill="white"/>
<rect x="48" y="16" width="8" height="8" transform="rotate(-90 48 16)" fill="white"/>
<rect x="48" y="24" width="8" height="8" transform="rotate(-90 48 24)" fill="white"/>
<rect x="48" y="32" width="8" height="8" transform="rotate(-90 48 32)" fill="white"/>
<rect x="40" y="32" width="8" height="8" transform="rotate(-90 40 32)" fill="white"/>
<rect x="32" y="24" width="8" height="8" transform="rotate(-90 32 24)" fill="white"/>
<rect x="24" y="32" width="8" height="8" transform="rotate(-90 24 32)" fill="white"/>
<rect x="24" y="40" width="8" height="8" transform="rotate(-90 24 40)" fill="white"/>
<rect x="24" y="56" width="8" height="8" transform="rotate(-90 24 56)" fill="white"/>
<rect x="64" y="16" width="8" height="8" transform="rotate(-90 64 16)" fill="white"/>
<rect x="16" y="8" width="8" height="8" transform="rotate(-90 16 8)" fill="#FF0075"/>
<rect x="24" y="8" width="8" height="8" transform="rotate(-90 24 8)" fill="#FF0075"/>
<rect x="48" y="8" width="8" height="8" transform="rotate(-90 48 8)" fill="#FF66AC"/>
<rect x="56" y="16" width="8" height="8" transform="rotate(-90 56 16)" fill="#FF99C8"/>
<rect x="64" y="8" width="8" height="8" transform="rotate(-90 64 8)" fill="#FF99C8"/>
<rect x="72" y="8" width="8" height="8" transform="rotate(-90 72 8)" fill="#FFCCE3"/>
<rect x="56" y="24" width="8" height="8" transform="rotate(-90 56 24)" fill="#FFCCE3"/>
<rect x="56" y="32" width="8" height="8" transform="rotate(-90 56 32)" fill="#FFCCE3"/>
<rect x="16" y="16" width="8" height="8" transform="rotate(-90 16 16)" fill="#FF0075"/>
<rect x="16" y="56" width="8" height="8" transform="rotate(-90 16 56)" fill="#FFCCE3"/>
<rect x="8" y="56" width="8" height="8" transform="rotate(-90 8 56)" fill="#FFCCE3"/>
</svg>
