<svg width="14" height="15" viewBox="0 0 14 15" fill="none" xmlns="http://www.w3.org/2000/svg">
  <circle cx="1.53536" cy="0.535357" r="0.535357" fill="white" />
  <circle cx="5.31104" cy="3.64893" r="0.545418" fill="white" />
  <circle cx="10.5107" cy="13.9141" r="0.5" fill="white" />
  <path
    d="M2.71056 8.90823C2.72935 8.75357 2.90995 8.67883 3.03254 8.77499L3.7889 9.36829C3.83463 9.40417 3.89371 9.41837 3.95075 9.40721L4.89415 9.22257C5.04705 9.19264 5.17394 9.34131 5.12037 9.48761L4.78983 10.3903C4.76984 10.4449 4.77459 10.5054 4.80284 10.5562L5.26996 11.3964C5.34568 11.5326 5.2435 11.6992 5.0878 11.6935L4.12715 11.6581C4.06907 11.6559 4.01293 11.6791 3.97334 11.7217L3.31865 12.4256C3.21253 12.5397 3.02249 12.494 2.97984 12.3441L2.71667 11.4196C2.70075 11.3637 2.66131 11.3174 2.6086 11.293L1.73685 10.8878C1.59555 10.8222 1.58028 10.6273 1.70962 10.5404L2.50761 10.0044C2.55586 9.97201 2.58763 9.92021 2.59464 9.86251L2.71056 8.90823Z"
    fill="white" />
  <path
    d="M11.3919 3.69092C11.4351 3.54122 11.6253 3.4962 11.731 3.61066L12.095 4.00475C12.1344 4.04745 12.1905 4.07088 12.2486 4.06894L12.7847 4.05107C12.9404 4.04588 13.042 4.21285 12.9658 4.34876L12.7035 4.81669C12.6751 4.86739 12.6701 4.92795 12.6899 4.9826L12.8726 5.48699C12.9257 5.63348 12.7982 5.7817 12.6454 5.75123L12.1193 5.64634C12.0623 5.63498 12.0032 5.64897 11.9574 5.68469L11.5341 6.01429C11.4112 6.11002 11.2308 6.03464 11.2126 5.87991L11.1498 5.34715C11.143 5.28943 11.1114 5.23752 11.0633 5.20494L10.619 4.90426C10.49 4.81693 10.5059 4.62213 10.6474 4.55696L11.1347 4.33259C11.1875 4.30828 11.2271 4.2622 11.2432 4.20636L11.3919 3.69092Z"
    fill="white" />
</svg>