<svg width="426" height="216" viewBox="0 0 426 216" fill="none" xmlns="http://www.w3.org/2000/svg">
<path d="M180.862 28.8398C191.554 25.2114 199.053 26.6372 204.291 30.4384C208.479 31.3215 215.267 43.7367 215.833 55.6343C216.058 58.1639 216.046 60.1423 215.947 61.1331C216.89 61.6997 218.663 63.3994 218.21 65.6656C221.794 68.3095 229.414 74.1637 231.225 76.43C233.489 79.2628 235.186 80.9526 238.581 80.9625C239.336 80.2071 241.071 78.9229 241.977 79.8294C242.334 80.3065 242.717 80.8842 243.108 81.5834C244.542 77.8496 248.585 70.2102 253.294 69.5234C257.368 69.5234 256.501 74.1278 255.557 76.43C257.255 76.2493 260.941 76.2025 262.348 76.43C273.893 78.2963 273.893 85.6614 270.498 90.1938C267.103 94.7262 259.18 95.6928 253.294 95.6928H247.07C246.164 97.5057 244.052 97.959 243.108 97.959C242.273 98.7956 239.339 100.065 233.488 100.124C231.415 100.145 228.975 100.014 226.132 99.6586C226.132 100.754 228.246 102.554 229.75 104.758C230.581 105.974 231.225 107.313 231.225 108.723C230.786 109.574 230.293 110.385 229.75 111.158C234.396 114.451 240.294 120.418 242.523 127.42C244.276 132.925 243.76 139.07 238.581 145.057C237.617 146.173 236.49 147.283 235.186 148.382C236.446 151.664 236.4 154.709 235.549 157.447C237.24 159.524 239.535 164.699 235.186 168.778C230.838 172.857 226.207 171.2 224.435 169.862C223.635 170.327 222.87 170.722 222.171 171.044C225.189 173.688 229.414 180.449 222.171 186.341C213.117 193.706 202.365 176.143 201.234 171.044C200.328 166.965 203.874 164.434 205.761 163.679C205.607 162.68 205.541 161.143 205.761 159.458C206.081 157.002 207.008 154.23 209.156 152.348C199.977 151.59 194.796 145.794 192.054 139.317C190.684 139.695 187.066 140.224 183.554 139.317C183.972 140.271 184.257 141.101 184.257 141.583C184.257 143.283 184.823 146.682 175.203 146.682C171.735 146.524 169.401 144.758 167.872 142.236C165.011 137.517 164.969 130.151 165.584 125.72C164.712 124.583 163.934 123.449 163.243 122.321C162.589 121.254 162.014 120.193 161.511 119.139C160.215 116.423 159.4 113.753 158.974 111.158C157.897 104.602 159.306 98.5275 161.729 93.4266C146.423 77.1099 157.121 65.099 164.384 61.1331C161.156 48.9522 162.86 34.9495 180.862 28.8398Z" fill="#161515"/>
<path d="M171.243 76.43C200.102 76.43 210.288 65.099 215.947 61.1331M171.243 76.43C170.677 77.5631 169.884 80.056 171.243 80.9625M171.243 76.43C168.66 72.4899 165.945 67.0246 164.384 61.1331M215.947 61.1331C216.513 55.4676 214.249 17.5088 180.862 28.8398C162.86 34.9495 161.156 48.9522 164.384 61.1331M215.947 61.1331C216.89 61.6997 218.663 63.3994 218.21 65.6656M171.243 80.9625C173.245 80.9625 177.301 81.3171 182.56 80.9724M171.243 80.9625C168.559 83.2123 165.395 86.7403 162.905 91.1604M218.21 65.6656C221.794 68.3095 229.414 74.1637 231.225 76.43C233.489 79.2628 235.186 80.9526 238.581 80.9625M218.21 65.6656C216.715 67.0744 215.203 68.3566 213.683 69.5234M165.584 125.72C170.111 126.626 175.769 123.831 178.033 122.321M165.584 125.72C164.712 124.583 163.934 123.449 163.243 122.321M165.584 125.72C164.969 130.151 165.011 137.517 167.872 142.236C169.401 144.758 171.735 146.524 175.203 146.682C184.823 146.682 184.257 143.283 184.257 141.583C184.257 141.101 183.972 140.271 183.554 139.317M178.033 122.321C177.997 121.425 177.991 120.335 178.033 119.139M178.033 122.321C188.219 127.42 188.219 132.519 187.087 134.218C186.181 135.578 182.56 134.785 180.862 134.218C181.593 135.437 182.794 137.582 183.554 139.317M182.56 104.758C187.653 101.358 193.877 91.1802 182.56 80.9724M182.56 104.758C179.258 106.961 178.211 114.026 178.033 119.139M182.56 104.758C183.314 109.479 185.276 119.601 187.087 122.321M182.56 80.9724C191.009 80.4186 202.562 78.0594 213.683 69.5234M238.581 80.9625C241.298 84.1352 242.731 93.6154 243.108 97.959M238.581 80.9625C239.336 80.2071 241.071 78.9229 241.977 79.8294C242.334 80.3065 242.717 80.8842 243.108 81.5834M243.108 97.959C244.052 97.959 246.164 97.5057 247.07 95.6928M243.108 97.959C242.273 98.7956 239.339 100.065 233.488 100.124M226.132 99.6586C226.132 100.754 228.246 102.554 229.75 104.758M226.132 99.6586C223.508 92.6527 222.912 91.7383 221.732 87.7611M226.132 99.6586C228.975 100.014 231.415 100.145 233.488 100.124M213.683 69.5234C215.946 71.115 218.21 74.7304 220.473 83.2287C220.987 85.1589 221.385 86.5922 221.732 87.7611M247.07 95.6928C247.931 95.6928 249.644 95.6928 253.294 95.6928C259.18 95.6928 267.103 94.7262 270.498 90.1938C273.893 85.6614 273.893 78.2963 262.348 76.43C260.941 76.2025 257.255 76.2493 255.557 76.43C256.501 74.1278 257.368 69.5234 253.294 69.5234C248.585 70.2102 244.542 77.8496 243.108 81.5834M247.07 95.6928C246.145 89.8682 244.415 83.916 243.108 81.5834M163.243 122.321C164.966 122.843 170.337 122.939 178.033 119.139M163.243 122.321C162.589 121.254 162.014 120.193 161.511 119.139M187.087 122.321C197.574 122.698 220.788 119.714 229.75 104.758M187.087 122.321C187.848 123.464 188.636 124.247 189.35 124.77M229.75 104.758C230.581 105.974 231.225 107.313 231.225 108.723C230.786 109.574 230.293 110.385 229.75 111.158M229.75 111.158C221.339 123.141 201.183 125.897 191.614 125.72C191.177 125.72 190.334 125.492 189.35 124.77M229.75 111.158C234.396 114.451 240.295 120.418 242.523 127.42M235.186 148.382C236.446 151.664 236.4 154.709 235.549 157.447M235.186 148.382C233.339 145.494 232.225 143.653 231.225 142.236M235.186 148.382C236.49 147.283 237.617 146.173 238.581 145.057M222.171 134.218C227.775 138.333 229.283 139.484 231.225 142.236M189.35 124.77C189.234 128.59 189.874 134.169 192.054 139.317M205.761 163.679C203.874 164.434 200.328 166.965 201.234 171.044C202.365 176.143 213.117 193.706 222.171 186.341C229.414 180.449 225.189 173.688 222.171 171.044M205.761 163.679C209.382 172.744 218.21 172.366 222.171 171.044M205.761 163.679C205.607 162.68 205.541 161.143 205.761 159.458M222.171 171.044C211.759 169.684 206.892 162.754 205.761 159.458M222.171 171.044C222.87 170.722 223.635 170.327 224.435 169.862M205.761 159.458C206.081 157.002 207.008 154.23 209.156 152.348C199.977 151.59 194.796 145.794 192.054 139.317M235.549 157.447C237.24 159.524 239.535 164.699 235.186 168.778C230.838 172.857 226.207 171.2 224.435 169.862M235.549 157.447C234.719 160.119 233.122 162.5 231.225 164.524M224.435 169.862C226.643 168.58 229.119 166.772 231.225 164.524M192.054 139.317C190.684 139.695 187.066 140.224 183.554 139.317M164.384 61.1331C157.121 65.099 146.423 77.1099 161.729 93.4266M161.729 93.4266C162.099 92.6479 162.493 91.8919 162.905 91.1604M161.729 93.4266C159.306 98.5275 157.897 104.602 158.974 111.158M162.905 91.1604C167.691 95.8051 173.605 106.307 158.974 111.158M158.974 111.158C159.4 113.753 160.215 116.423 161.511 119.139M221.732 87.7611C225.651 89.0157 233.488 93.2447 233.488 100.124M231.225 142.236C222.737 145.604 210.854 154.776 231.225 164.524M242.523 127.42C244.276 132.925 243.76 139.07 238.581 145.057M242.523 127.42C238.946 129.169 233.149 135.146 238.581 145.057M31.3652 168.778C44.902 167.58 54.0484 169.103 59.5363 186.341C65.0242 203.579 88.0732 209.634 104.171 206.091C113.805 204.689 134.391 196.931 139.659 177.116C146.245 152.348 143.972 127.119 161.511 119.139M169.772 42.0371C167.491 44.9734 156.144 62.8328 177.129 71.4977C185.628 71.4977 206.779 64.5325 215.833 55.6343C215.267 43.7367 208.479 31.3215 204.291 30.4384C194.332 28.3387 173.733 36.9381 169.772 42.0371Z" stroke="#969696"/>
<path d="M172.899 56.6263C173.678 59.1027 173.703 61.5359 173.139 63.4595C172.574 65.3869 171.441 66.7468 169.935 67.2226C168.43 67.6984 166.723 67.2364 165.158 65.9825C163.595 64.731 162.224 62.7233 161.445 60.247C160.666 57.7706 160.641 55.3374 161.205 53.4138C161.77 51.4863 162.903 50.1265 164.409 49.6507C165.914 49.1749 167.621 49.6369 169.186 50.8908C170.749 52.1423 172.12 54.15 172.899 56.6263Z" fill="#161515" stroke="#969696"/>
<g style="mix-blend-mode:screen" filter="url(#filter0_f)">
<ellipse rx="23.9381" ry="23.9764" transform="matrix(0.905904 0.423484 -0.421754 0.90671 303.213 48.213)" fill="#161515"/>
<path d="M324.446 58.1386C318.977 69.8954 305.038 74.9808 293.312 69.4993C281.586 64.0179 276.512 50.0442 281.98 38.2874C287.449 26.5306 301.389 21.4452 313.114 26.9267C324.84 32.4081 329.914 46.3818 324.446 58.1386Z" stroke="#E8E8E8"/>
</g>
<g style="mix-blend-mode:darken">
<path d="M324.446 58.1386C318.977 69.8954 305.038 74.9808 293.312 69.4993C281.586 64.0179 276.512 50.0442 281.98 38.2874C287.449 26.5306 301.389 21.4452 313.114 26.9267C324.84 32.4081 329.914 46.3818 324.446 58.1386Z" fill="#161515"/>
<path d="M324.446 58.1386C318.977 69.8954 305.038 74.9808 293.312 69.4993C281.586 64.0179 276.512 50.0442 281.98 38.2874C287.449 26.5306 301.389 21.4452 313.114 26.9267C324.84 32.4081 329.914 46.3818 324.446 58.1386Z" stroke="#505050"/>
</g>
<g style="mix-blend-mode:screen" filter="url(#filter1_f)">
<path d="M297.293 60.8865C323.833 73.293 346.615 80.6261 348.178 77.2653C349.282 74.892 339.509 67.8205 324.325 59.5008C323.92 60.2633 323.479 60.9957 323.005 61.6967C324.49 62.8525 325.227 63.7195 325.016 64.174C324.78 64.6805 323.396 64.6117 321.173 64.0707C316.634 62.9664 308.598 59.8945 299.692 55.731C286.422 49.5277 276.245 43.2503 276.962 41.71C277.175 41.2521 278.326 41.2643 280.188 41.6705C280.307 41.2514 280.438 40.8338 280.581 40.4179C280.715 40.0276 280.86 39.6389 281.016 39.2521C264.878 32.9284 253.174 29.9621 252.07 32.3373C250.506 35.698 270.754 48.48 297.293 60.8865Z" fill="#161515"/>
<path d="M348.042 77.2018C347.883 77.5453 347.43 77.7903 346.614 77.8862C345.809 77.9809 344.702 77.9238 343.322 77.7201C340.564 77.3132 336.749 76.3268 332.148 74.8457C322.947 71.8842 310.623 66.9519 297.357 60.7505C284.091 54.549 272.4 48.2549 264.223 43.0928C260.133 40.5111 256.928 38.2158 254.844 36.3592C253.801 35.4301 253.046 34.6169 252.601 33.9378C252.149 33.2491 252.046 32.7443 252.205 32.4008C252.318 32.1593 252.574 31.9651 253.011 31.8372C253.447 31.7096 254.04 31.6552 254.785 31.6765C256.274 31.7189 258.333 32.0617 260.87 32.6785C265.912 33.9041 272.814 36.2041 280.821 39.3367C280.685 39.6793 280.558 40.0235 280.439 40.3688C280.31 40.7426 280.191 41.1179 280.082 41.4943C279.21 41.3096 278.491 41.2128 277.955 41.2161C277.674 41.2179 277.434 41.2472 277.245 41.3114C277.057 41.3756 276.903 41.4812 276.826 41.6464C276.761 41.7851 276.764 41.9394 276.809 42.0949C276.854 42.2492 276.943 42.4142 277.066 42.5872C277.313 42.9335 277.714 43.3387 278.248 43.7926C279.317 44.702 280.944 45.8296 283.003 47.0997C287.123 49.6408 292.99 52.7637 299.628 55.867C308.537 60.0317 316.584 63.1087 321.138 64.2166C322.253 64.4879 323.166 64.6432 323.835 64.6652C324.169 64.6762 324.451 64.6544 324.67 64.592C324.888 64.5299 325.067 64.4203 325.152 64.2375C325.228 64.0735 325.211 63.8887 325.14 63.704C325.069 63.5195 324.939 63.3181 324.763 63.103C324.426 62.6937 323.899 62.2095 323.208 61.6646C323.627 61.036 324.021 60.3825 324.386 59.7051C331.915 63.8356 338.1 67.653 342.271 70.7337C344.37 72.2839 345.952 73.643 346.94 74.7579C347.435 75.3159 347.774 75.8058 347.956 76.222C348.139 76.6393 348.155 76.9604 348.042 77.2018Z" stroke="#505050" stroke-width="0.3"/>
</g>
<g style="mix-blend-mode:screen">
<path d="M281.016 39.2521C264.878 32.9284 253.174 29.9621 252.07 32.3373C250.506 35.698 270.754 48.48 297.293 60.8865C303.636 63.8513 309.763 66.5264 315.438 68.8351C333.51 76.1871 346.989 79.823 348.178 77.2653C349.282 74.892 339.509 67.8205 324.325 59.5008M280.188 41.6705C278.326 41.2643 277.175 41.2521 276.962 41.71C276.245 43.2503 286.422 49.5277 299.692 55.731C308.598 59.8945 316.634 62.9664 321.173 64.0707C323.396 64.6117 324.78 64.6805 325.016 64.174C325.227 63.7195 324.49 62.8525 323.005 61.6967" stroke="#505050" stroke-width="0.3"/>
</g>
<g filter="url(#filter2_f)">
<path d="M338.022 190.067C336.368 188.289 336.018 185.921 337.241 184.779L401.006 131.186L343.229 191.216C342.007 192.359 339.675 191.844 338.022 190.067Z" fill="url(#paint0_linear)"/>
</g>
<path d="M338.322 189.216C336.668 187.439 337.831 184.49 339.054 183.348L400.915 131.27L344.541 189.216C343.319 190.359 340.151 191.183 338.322 189.216Z" fill="url(#paint1_linear)"/>
<g filter="url(#filter3_f)">
<path d="M25.9422 66.0059C24.8965 64.8819 24.6754 63.385 25.4483 62.6626L65.7693 28.7785L29.235 66.7329C28.4621 67.4554 26.9878 67.1299 25.9422 66.0059Z" fill="url(#paint2_linear)"/>
</g>
<path d="M26.1311 65.4701C25.0854 64.3461 25.821 62.4821 26.5939 61.7596L65.7111 28.8332L30.0639 65.4701C29.291 66.1925 27.2879 66.7136 26.1311 65.4701Z" fill="url(#paint3_linear)"/>
<defs>
<filter id="filter0_f" x="255.28" y="0.220703" width="95.8662" height="95.9856" filterUnits="userSpaceOnUse" color-interpolation-filters="sRGB">
<feFlood flood-opacity="0" result="BackgroundImageFix"/>
<feBlend mode="normal" in="SourceGraphic" in2="BackgroundImageFix" result="shape"/>
<feGaussianBlur stdDeviation="12" result="effect1_foregroundBlur"/>
</filter>
<filter id="filter1_f" x="227.984" y="7.52148" width="144.278" height="94.5589" filterUnits="userSpaceOnUse" color-interpolation-filters="sRGB">
<feFlood flood-opacity="0" result="BackgroundImageFix"/>
<feBlend mode="normal" in="SourceGraphic" in2="BackgroundImageFix" result="shape"/>
<feGaussianBlur stdDeviation="12" result="effect1_foregroundBlur"/>
</filter>
<filter id="filter2_f" x="312.511" y="107.186" width="112.494" height="108.638" filterUnits="userSpaceOnUse" color-interpolation-filters="sRGB">
<feFlood flood-opacity="0" result="BackgroundImageFix"/>
<feBlend mode="normal" in="SourceGraphic" in2="BackgroundImageFix" result="shape"/>
<feGaussianBlur stdDeviation="12" result="effect1_foregroundBlur"/>
</filter>
<filter id="filter3_f" x="0.987305" y="4.7793" width="88.7823" height="86.3388" filterUnits="userSpaceOnUse" color-interpolation-filters="sRGB">
<feFlood flood-opacity="0" result="BackgroundImageFix"/>
<feBlend mode="normal" in="SourceGraphic" in2="BackgroundImageFix" result="shape"/>
<feGaussianBlur stdDeviation="12" result="effect1_foregroundBlur"/>
</filter>
<linearGradient id="paint0_linear" x1="338.022" y1="190.067" x2="401.152" y2="131.343" gradientUnits="userSpaceOnUse">
<stop stop-color="#C4C4C4" stop-opacity="0.53"/>
<stop offset="1" stop-color="white" stop-opacity="0"/>
</linearGradient>
<linearGradient id="paint1_linear" x1="338.023" y1="190.066" x2="401.061" y2="131.429" gradientUnits="userSpaceOnUse">
<stop stop-color="#C4C4C4" stop-opacity="0.53"/>
<stop offset="1" stop-color="white" stop-opacity="0"/>
</linearGradient>
<linearGradient id="paint2_linear" x1="25.9422" y1="66.0059" x2="65.8569" y2="28.8727" gradientUnits="userSpaceOnUse">
<stop stop-color="#C4C4C4" stop-opacity="0.53"/>
<stop offset="1" stop-color="white" stop-opacity="0"/>
</linearGradient>
<linearGradient id="paint3_linear" x1="25.9424" y1="66.0074" x2="65.7987" y2="28.9286" gradientUnits="userSpaceOnUse">
<stop stop-color="#C4C4C4" stop-opacity="0.53"/>
<stop offset="1" stop-color="white" stop-opacity="0"/>
</linearGradient>
</defs>
</svg>
