<svg width="232" height="408" viewBox="0 0 232 408" fill="none" xmlns="http://www.w3.org/2000/svg">
  <mask id="mask0_exclamation" mask-type="alpha" maskUnits="userSpaceOnUse" x="0" y="0" width="232" height="408">
    <path d="M232 408V0H22.5L0 22.5V408H232Z" fill="#222121" />
  </mask>
  <g mask="url(#mask0_exclamation)">
    <path d="M200.2 376.409V274H171V376.409H200.2ZM171 420H200.2V390.8H171V420Z" fill="#61FF00" />
    <path d="M85.1852 354.071V319H75V354.071H85.1852ZM75 369H85.1852V359H75V369Z" fill="#4ECC00" />
    <path d="M28.6667 271.626V259H25V271.626H28.6667ZM25 277H28.6667V273.4H25V277Z" fill="#276600" />
    <path d="M180.907 141.341V121H175V141.341H180.907ZM175 150H180.907V144.2H175V150Z" fill="#3A9900" />
    <path d="M186.037 37.0143V30H184V37.0143H186.037ZM184 40H186.037V38H184V40Z" fill="#276600" />
  </g>
</svg>