<svg width="18" height="18" viewBox="0 0 18 18" fill="none" xmlns="http://www.w3.org/2000/svg">
<path fill-rule="evenodd" clip-rule="evenodd" d="M6.91667 0C3.37284 0 0.5 2.87284 0.5 6.41667C0.5 8.67183 2.32817 10.5 4.58334 10.5H13.4167C15.6718 10.5 17.5 8.67183 17.5 6.41667C17.5 2.87284 14.6272 0 11.0833 0H6.91667ZM5.76872 1.04985C3.73907 1.04985 2.09372 2.69521 2.09372 4.72485C2.09372 6.7545 3.73907 8.39985 5.76872 8.39985H12.2312C14.2609 8.39985 15.9062 6.7545 15.9062 4.72485C15.9062 2.69521 14.2609 1.04985 12.2312 1.04985H5.76872Z" fill="#161515"/>
<rect x="5.5" y="11" width="7" height="7" rx="3.5" fill="#161515"/>
<rect x="11" y="3.5" width="2" height="3" rx="1" fill="white"/>
<rect x="5" y="3.5" width="2" height="3" rx="1" fill="white"/>
</svg>
