<svg width="129" height="129" viewBox="0 0 129 129" fill="none" xmlns="http://www.w3.org/2000/svg">
  <rect x="129" y="60.4844" width="8.05892" height="8.05892" transform="rotate(90 129 60.4844)" fill="currentColor" />
  <rect x="122.387" y="93.2061" width="8.05892" height="8.05892" transform="rotate(119.939 122.387 93.2061)"
    fill="currentColor" />
  <rect width="8.05892" height="8.05892" transform="matrix(-0.864711 0.50227 -0.502267 -0.864713 100.246 118.32)"
    fill="currentColor" />
  <rect x="68.2773" y="129" width="8.05892" height="8.05892" transform="rotate(-179.779 68.2773 129)"
    fill="currentColor" />
  <rect width="8.05892" height="8.05892" transform="matrix(-0.864711 -0.50227 0.502267 -0.864713 35.5469 122.265)"
    fill="currentColor" />
  <rect width="8.05892" height="8.05892" transform="matrix(-0.49908 -0.866556 0.866557 -0.499079 10.5781 100.086)"
    fill="currentColor" />
  <rect y="68.0352" width="8.05892" height="8.05892" transform="rotate(-89.5577 0 68.0352)" fill="currentColor" />
  <rect x="6.75781" y="35.5137" width="8.05892" height="8.05892" transform="rotate(-59.6388 6.75781 35.5137)"
    fill="currentColor" />
  <rect width="8.05892" height="8.05892" transform="matrix(0.868389 -0.495883 0.495881 0.86839 28.9727 10.5469)"
    fill="currentColor" />
  <rect x="61.2305" width="8.05892" height="8.05892" transform="rotate(0.663504 61.2305 0)" fill="currentColor" />
  <rect x="93.6523" y="6.84375" width="8.05892" height="8.05892" transform="rotate(30.5721 93.6523 6.84375)"
    fill="currentColor" />
  <rect width="8.05892" height="8.05892" transform="matrix(0.492678 0.870211 -0.870213 0.492676 118.621 29.2227)"
    fill="currentColor" />
</svg>