<svg viewBox="19 6 43 61" fill="none" xmlns="http://www.w3.org/2000/svg">
  <g opacity="0.5">
    <path d="M21.8354 28.78L22.3814 29.0952L22.0662 29.6412L21.5202 29.326L21.8354 28.78Z" fill="#7600FF" />
    <path d="M22.6479 28.8853L23.1939 29.2005L22.8787 29.7464L22.3327 29.4312L22.6479 28.8853Z" fill="#7600FF" />
    <path d="M23.1458 29.5359L23.6917 29.8511L23.3765 30.3971L22.8305 30.0819L23.1458 29.5359Z" fill="#7600FF" />
    <path d="M24.1165 29.3684L24.6624 29.6836L24.3472 30.2296L23.8012 29.9144L24.1165 29.3684Z" fill="#FF00DA" />
    <path d="M24.9292 29.4736L25.4752 29.7889L25.16 30.3348L24.614 30.0196L24.9292 29.4736Z" fill="#FF0075" />
    <path d="M22.7673 30.1909L23.3133 30.5061L22.9981 31.0521L22.4521 30.7369L22.7673 30.1909Z" fill="#FF00DA" />
    <path d="M23.4229 30.5698L23.9688 30.885L23.6536 31.431L23.1076 31.1158L23.4229 30.5698Z" fill="#FF0075" />
    <path d="M24.7329 31.3257L25.2789 31.6409L24.9637 32.1869L24.4177 31.8717L24.7329 31.3257Z" fill="#0E00FF" />
    <path d="M23.6997 31.6028L24.2457 31.918L23.9305 32.464L23.3845 32.1488L23.6997 31.6028Z" fill="#7600FF" />
    <path d="M24.3545 31.9814L24.9005 32.2967L24.5852 32.8426L24.0393 32.5274L24.3545 31.9814Z" fill="#7600FF" />
    <path d="M41.7024 39.886L42.2484 40.2012L41.9332 40.7472L41.3872 40.432L41.7024 39.886Z" fill="#FF00DA" />
    <path d="M42.2002 40.5369L42.7462 40.8521L42.431 41.3981L41.885 41.0828L42.2002 40.5369Z" fill="#FF0075" />
    <path d="M43.1707 40.3691L43.7166 40.6844L43.4014 41.2303L42.8554 40.9151L43.1707 40.3691Z" fill="#38E9FE" />
    <path d="M43.9834 40.4744L44.5294 40.7896L44.2142 41.3356L43.6682 41.0203L43.9834 40.4744Z" fill="#0E00FF" />
    <path d="M44.3232 41.3987L44.8692 41.7139L44.554 42.2599L44.008 41.9447L44.3232 41.3987Z" fill="#0E00FF" />
    <path d="M44.8208 42.0503L45.3668 42.3655L45.0516 42.9115L44.5056 42.5963L44.8208 42.0503Z" fill="#0E00FF" />
    <path d="M45.854 41.7732L46.4 42.0884L46.0848 42.6344L45.5388 42.3192L45.854 41.7732Z" fill="#0E00FF" />
    <path d="M46.2324 41.1182L46.7784 41.4334L46.4632 41.9794L45.9172 41.6641L46.2324 41.1182Z" fill="#7600FF" />
    <path d="M46.1313 42.8071L46.6773 43.1223L46.3621 43.6683L45.8161 43.3531L46.1313 42.8071Z" fill="#7600FF" />
    <path d="M46.7866 43.1851L47.3326 43.5003L47.0174 44.0463L46.4714 43.731L46.7866 43.1851Z" fill="#7600FF" />
    <path d="M47.4414 43.563L47.9874 43.8782L47.6722 44.4242L47.1262 44.109L47.4414 43.563Z" fill="#FF00DA" />
    <path d="M50.1638 43.3877L50.7098 43.7029L50.3946 44.2489L49.8486 43.9337L50.1638 43.3877Z" fill="#FF0075" />
    <path d="M53.874 46.0393L54.42 46.3545L54.1048 46.9005L53.5588 46.5853L53.874 46.0393Z" fill="#38E9FE" />
    <path d="M49.7925 44.0308L50.3385 44.346L50.0232 44.892L49.4773 44.5767L49.7925 44.0308Z" fill="#0E00FF" />
    <path d="M49.407 44.6978L49.953 45.013L49.6377 45.559L49.0918 45.2437L49.407 44.6978Z" fill="#0E00FF" />
    <path d="M50.062 45.0764L50.608 45.3916L50.2928 45.9376L49.7468 45.6224L50.062 45.0764Z" fill="#0E00FF" />
    <path d="M50.7178 45.4546L51.2638 45.7698L50.9485 46.3158L50.4026 46.0006L50.7178 45.4546Z" fill="#0E00FF" />
    <path d="M51.3726 45.8325L51.9185 46.1477L51.6033 46.6937L51.0573 46.3785L51.3726 45.8325Z" fill="#7600FF" />
    <path d="M52.1853 45.9385L52.7313 46.2537L52.4161 46.7997L51.8701 46.4845L52.1853 45.9385Z" fill="#7600FF" />
    <path d="M52.6829 46.5891L53.2288 46.9043L52.9136 47.4503L52.3676 47.1351L52.6829 46.5891Z" fill="#7600FF" />
    <path d="M53.3384 46.968L53.8844 47.2832L53.5691 47.8292L53.0232 47.514L53.3384 46.968Z" fill="#FF00DA" />
    <path d="M53.9934 47.3459L54.5394 47.6612L54.2242 48.2071L53.6782 47.8919L53.9934 47.3459Z" fill="#FF0075" />
    <path d="M54.6484 47.7249L55.1944 48.0401L54.8792 48.586L54.3332 48.2708L54.6484 47.7249Z" fill="#38E9FE" />
    <path d="M55.6816 47.4468L56.2276 47.762L55.9124 48.308L55.3664 47.9928L55.6816 47.4468Z" fill="#0E00FF" />
    <path d="M56.5093 47.0757L57.0553 47.3909L56.74 47.9369L56.1941 47.6217L56.5093 47.0757Z" fill="#0E00FF" />
    <path d="M56.6138 48.8594L57.1597 49.1746L56.8445 49.7206L56.2985 49.4054L56.6138 48.8594Z" fill="#0E00FF" />
    <path d="M41.8218 41.1919L42.3678 41.5071L42.0525 42.0531L41.5066 41.7379L41.8218 41.1919Z" fill="#7600FF" />
    <path d="M43.1323 41.9485L43.6783 42.2637L43.3631 42.8097L42.8171 42.4945L43.1323 41.9485Z" fill="#FF00DA" />
    <path d="M43.7874 42.3274L44.3333 42.6426L44.0181 43.1886L43.4721 42.8734L43.7874 42.3274Z" fill="#FF0075" />
    <path d="M44.4424 42.7053L44.9884 43.0205L44.6731 43.5665L44.1272 43.2513L44.4424 42.7053Z" fill="#38E9FE" />
    <path d="M45.0979 43.0842L45.6439 43.3994L45.3287 43.9454L44.7827 43.6302L45.0979 43.0842Z" fill="#0E00FF" />
    <path d="M45.7529 43.4622L46.2989 43.7774L45.9837 44.3234L45.4377 44.0081L45.7529 43.4622Z" fill="#0E00FF" />
    <path d="M46.4082 43.8401L46.9542 44.1553L46.639 44.7013L46.093 44.3861L46.4082 43.8401Z" fill="#0E00FF" />
    <path d="M47.0632 44.2188L47.6092 44.534L47.294 45.0799L46.748 44.7647L47.0632 44.2188Z" fill="#0E00FF" />
    <path d="M47.7188 44.5969L48.2647 44.9121L47.9495 45.4581L47.4035 45.1429L47.7188 44.5969Z" fill="#7600FF" />
    <path d="M48.3738 44.9749L48.9198 45.2901L48.6045 45.8361L48.0586 45.5208L48.3738 44.9749Z" fill="#7600FF" />
    <path d="M49.0291 45.3528L49.575 45.668L49.2598 46.214L48.7138 45.8988L49.0291 45.3528Z" fill="#7600FF" />
    <path d="M49.6838 45.7314L50.2298 46.0467L49.9146 46.5926L49.3686 46.2774L49.6838 45.7314Z" fill="#FF00DA" />
    <path d="M50.3391 46.1094L50.8851 46.4246L50.5699 46.9706L50.0239 46.6554L50.3391 46.1094Z" fill="#FF0075" />
    <path d="M50.9946 46.4875L51.5406 46.8028L51.2254 47.3487L50.6794 47.0335L50.9946 46.4875Z" fill="#38E9FE" />
    <path d="M51.6494 46.8662L52.1954 47.1814L51.8802 47.7274L51.3342 47.4122L51.6494 46.8662Z" fill="#0E00FF" />
    <path d="M52.3044 47.2441L52.8504 47.5594L52.5352 48.1053L51.9892 47.7901L52.3044 47.2441Z" fill="#0E00FF" />
    <path d="M52.96 47.623L53.5059 47.9383L53.1907 48.4842L52.6447 48.169L52.96 47.623Z" fill="#0E00FF" />
    <path d="M53.615 48.001L54.161 48.3162L53.8457 48.8622L53.2998 48.547L53.615 48.001Z" fill="#0E00FF" />
    <path d="M54.2703 48.3789L54.8162 48.6941L54.501 49.2401L53.955 48.9249L54.2703 48.3789Z" fill="#7600FF" />
    <path d="M54.9253 48.7578L55.4713 49.073L55.156 49.619L54.6101 49.3038L54.9253 48.7578Z" fill="#7600FF" />
    <path d="M55.5808 49.1357L56.1268 49.451L55.8116 49.9969L55.2656 49.6817L55.5808 49.1357Z" fill="#7600FF" />
    <path d="M56.2358 49.5144L56.7818 49.8296L56.4666 50.3756L55.9206 50.0604L56.2358 49.5144Z" fill="#FF00DA" />
    <path d="M56.8909 49.8923L57.4368 50.2076L57.1216 50.7535L56.5756 50.4383L56.8909 49.8923Z" fill="#FF0075" />
    <path d="M41.4578 41.8494L42.0037 42.1646L41.6885 42.7106L41.1425 42.3953L41.4578 41.8494Z" fill="#0E00FF" />
    <path d="M42.0991 42.2256L42.6451 42.5408L42.3299 43.0868L41.7839 42.7716L42.0991 42.2256Z" fill="#0E00FF" />
    <path d="M42.7542 42.6045L43.3001 42.9197L42.9849 43.4657L42.4389 43.1505L42.7542 42.6045Z" fill="#0E00FF" />
    <path d="M43.4089 42.9824L43.9549 43.2976L43.6397 43.8436L43.0937 43.5284L43.4089 42.9824Z" fill="#7600FF" />
    <path d="M43.5283 44.2891L44.0743 44.6043L43.7591 45.1503L43.2131 44.835L43.5283 44.2891Z" fill="#7600FF" />
    <path d="M44.5618 44.012L45.1077 44.3272L44.7925 44.8732L44.2465 44.5579L44.5618 44.012Z" fill="#7600FF" />
    <path d="M45.3748 44.1172L45.9207 44.4324L45.6055 44.9784L45.0595 44.6632L45.3748 44.1172Z" fill="#FF00DA" />
    <path d="M45.8723 44.7678L46.4183 45.083L46.1031 45.629L45.5571 45.3138L45.8723 44.7678Z" fill="#FF0075" />
    <path d="M51.5483 48.5552L52.0943 48.8704L51.7791 49.4164L51.2331 49.1012L51.5483 48.5552Z" fill="#38E9FE" />
    <path d="M46.5271 45.1467L47.0731 45.4619L46.7579 46.0079L46.2119 45.6927L46.5271 45.1467Z" fill="#0E00FF" />
    <path d="M47.3403 45.2517L47.8863 45.5669L47.5711 46.1129L47.0251 45.7977L47.3403 45.2517Z" fill="#0E00FF" />
    <path d="M46.9622 45.9067L47.5081 46.222L47.1929 46.7679L46.6469 46.4527L46.9622 45.9067Z" fill="#0E00FF" />
    <path d="M47.199 47.1355L47.745 47.4507L47.4297 47.9967L46.8838 47.6815L47.199 47.1355Z" fill="#0E00FF" />
    <path d="M46.8206 47.7915L47.3665 48.1067L47.0513 48.6527L46.5053 48.3375L46.8206 47.7915Z" fill="#7600FF" />
    <path d="M48.4927 46.2812L49.0387 46.5965L48.7234 47.1424L48.1775 46.8272L48.4927 46.2812Z" fill="#7600FF" />
    <path d="M49.1482 46.6594L49.6942 46.9746L49.379 47.5206L48.833 47.2054L49.1482 46.6594Z" fill="#7600FF" />
    <path d="M49.4253 47.6931L49.9713 48.0083L49.6561 48.5543L49.1101 48.2391L49.4253 47.6931Z" fill="#FF00DA" />
    <path d="M48.7698 47.3152L49.3158 47.6304L49.0005 48.1764L48.4546 47.8612L48.7698 47.3152Z" fill="#FF0075" />
    <path d="M50.616 47.1433L51.1619 47.4585L50.8467 48.0045L50.3007 47.6893L50.616 47.1433Z" fill="#38E9FE" />
    <path d="M51.1135 47.7939L51.6595 48.1092L51.3443 48.6551L50.7983 48.3399L51.1135 47.7939Z" fill="#0E00FF" />
    <path d="M51.926 47.9001L52.472 48.2154L52.1568 48.7613L51.6108 48.4461L51.926 47.9001Z" fill="#0E00FF" />
    <path d="M52.5815 48.2781L53.1275 48.5933L52.8123 49.1393L52.2663 48.8241L52.5815 48.2781Z" fill="#0E00FF" />
    <path d="M53.2366 48.656L53.7825 48.9712L53.4673 49.5172L52.9214 49.202L53.2366 48.656Z" fill="#0E00FF" />
    <path d="M53.7344 49.3076L54.2804 49.6228L53.9651 50.1688L53.4192 49.8536L53.7344 49.3076Z" fill="#7600FF" />
    <path d="M54.2317 49.9592L54.7777 50.2744L54.4624 50.8204L53.9165 50.5052L54.2317 49.9592Z" fill="#7600FF" />
    <path d="M55.2024 49.7908L55.7484 50.106L55.4331 50.652L54.8872 50.3367L55.2024 49.7908Z" fill="#7600FF" />
    <path d="M55.8574 50.1694L56.4034 50.4847L56.0882 51.0306L55.5422 50.7154L55.8574 50.1694Z" fill="#FF00DA" />
    <path d="M56.5125 50.5474L57.0584 50.8626L56.7432 51.4086L56.1972 51.0933L56.5125 50.5474Z" fill="#0E00FF" />
    <path d="M56.1345 51.2024L56.6805 51.5176L56.3653 52.0636L55.8193 51.7484L56.1345 51.2024Z" fill="#0E00FF" />
    <path d="M25.2686 30.3979L25.8145 30.7132L25.4993 31.2591L24.9533 30.9439L25.2686 30.3979Z" fill="#38E9FE" />
    <path d="M25.7661 31.0486L26.3121 31.3638L25.9969 31.9098L25.4509 31.5946L25.7661 31.0486Z" fill="#0E00FF" />
    <path d="M26.8 30.7725L27.346 31.0877L27.0308 31.6337L26.4848 31.3184L26.8 30.7725Z" fill="#0E00FF" />
    <path d="M27.1777 30.1174L27.7237 30.4327L27.4085 30.9786L26.8625 30.6634L27.1777 30.1174Z" fill="#0E00FF" />
    <path d="M27.0767 31.8054L27.6226 32.1206L27.3074 32.6666L26.7614 32.3514L27.0767 31.8054Z" fill="#0E00FF" />
    <path d="M27.7319 32.1841L28.2779 32.4993L27.9627 33.0453L27.4167 32.7301L27.7319 32.1841Z" fill="#7600FF" />
    <path d="M28.387 32.5623L28.9329 32.8775L28.6177 33.4235L28.0717 33.1082L28.387 32.5623Z" fill="#7600FF" />
    <path d="M31.1091 32.3867L31.6551 32.7019L31.3399 33.2479L30.7939 32.9327L31.1091 32.3867Z" fill="#7600FF" />
    <path d="M34.8193 35.0386L35.3653 35.3538L35.0501 35.8998L34.5041 35.5846L34.8193 35.0386Z" fill="#FF00DA" />
    <path d="M30.738 33.0291L31.284 33.3443L30.9688 33.8903L30.4228 33.575L30.738 33.0291Z" fill="#FF0075" />
    <path d="M30.3525 33.6968L30.8985 34.012L30.5833 34.558L30.0373 34.2428L30.3525 33.6968Z" fill="#38E9FE" />
    <path d="M31.0073 34.0757L31.5533 34.3909L31.2381 34.9369L30.6921 34.6217L31.0073 34.0757Z" fill="#0E00FF" />
    <path d="M31.6628 34.4536L32.2088 34.7688L31.8936 35.3148L31.3476 34.9996L31.6628 34.4536Z" fill="#0E00FF" />
    <path d="M32.3184 34.8315L32.8643 35.1468L32.5491 35.6927L32.0031 35.3775L32.3184 34.8315Z" fill="#0E00FF" />
    <path d="M33.1306 34.9375L33.6766 35.2527L33.3614 35.7987L32.8154 35.4835L33.1306 34.9375Z" fill="#0E00FF" />
    <path d="M33.6282 35.5884L34.1741 35.9036L33.8589 36.4496L33.313 36.1344L33.6282 35.5884Z" fill="#7600FF" />
    <path d="M34.2839 35.9663L34.8299 36.2815L34.5147 36.8275L33.9687 36.5123L34.2839 35.9663Z" fill="#7600FF" />
    <path d="M34.9387 36.3452L35.4847 36.6604L35.1695 37.2064L34.6235 36.8912L34.9387 36.3452Z" fill="#7600FF" />
    <path d="M35.5938 36.7231L36.1397 37.0384L35.8245 37.5843L35.2785 37.2691L35.5938 36.7231Z" fill="#FF00DA" />
    <path d="M36.6272 36.446L37.1732 36.7613L36.858 37.3072L36.312 36.992L36.6272 36.446Z" fill="#FF0075" />
    <path d="M24.0776 30.9478L24.6236 31.263L24.3084 31.8089L23.7624 31.4937L24.0776 30.9478Z" fill="#38E9FE" />
    <path d="M25.3877 31.7046L25.9337 32.0198L25.6185 32.5658L25.0725 32.2506L25.3877 31.7046Z" fill="#0E00FF" />
    <path d="M26.0432 32.0825L26.5892 32.3977L26.274 32.9437L25.728 32.6285L26.0432 32.0825Z" fill="#0E00FF" />
    <path d="M26.6982 32.4612L27.2442 32.7764L26.929 33.3224L26.383 33.0072L26.6982 32.4612Z" fill="#0E00FF" />
    <path d="M27.3535 32.8391L27.8995 33.1543L27.5843 33.7003L27.0383 33.3851L27.3535 32.8391Z" fill="#7600FF" />
    <path d="M28.0085 33.217L28.5545 33.5323L28.2393 34.0782L27.6933 33.763L28.0085 33.217Z" fill="#7600FF" />
    <path d="M28.6641 33.5959L29.21 33.9112L28.8948 34.4571L28.3488 34.1419L28.6641 33.5959Z" fill="#7600FF" />
    <path d="M29.3191 33.9739L29.8651 34.2891L29.5498 34.8351L29.0039 34.5199L29.3191 33.9739Z" fill="#FF00DA" />
    <path d="M29.9741 34.3518L30.5201 34.667L30.2049 35.213L29.6589 34.8978L29.9741 34.3518Z" fill="#FF0075" />
    <path d="M30.6296 34.7297L31.1756 35.045L30.8604 35.5909L30.3144 35.2757L30.6296 34.7297Z" fill="#38E9FE" />
    <path d="M31.2847 35.1086L31.8306 35.4239L31.5154 35.9698L30.9694 35.6546L31.2847 35.1086Z" fill="#0E00FF" />
    <path d="M31.9399 35.4866L32.4859 35.8018L32.1707 36.3478L31.6247 36.0325L31.9399 35.4866Z" fill="#0E00FF" />
    <path d="M32.595 35.8645L33.1409 36.1797L32.8257 36.7257L32.2798 36.4105L32.595 35.8645Z" fill="#0E00FF" />
    <path d="M33.2505 36.2434L33.7965 36.5586L33.4812 37.1046L32.9353 36.7894L33.2505 36.2434Z" fill="#0E00FF" />
    <path d="M33.9053 36.6213L34.4512 36.9366L34.136 37.4825L33.5901 37.1673L33.9053 36.6213Z" fill="#7600FF" />
    <path d="M34.5605 37L35.1065 37.3152L34.7913 37.8612L34.2453 37.546L34.5605 37Z" fill="#7600FF" />
    <path d="M35.2153 37.3782L35.7613 37.6934L35.4461 38.2394L34.9001 37.9242L35.2153 37.3782Z" fill="#7600FF" />
    <path d="M35.8708 37.7561L36.4168 38.0713L36.1016 38.6173L35.5556 38.3021L35.8708 37.7561Z" fill="#FF00DA" />
    <path d="M36.5259 38.1348L37.0719 38.45L36.7566 38.996L36.2107 38.6807L36.5259 38.1348Z" fill="#FF0075" />
    <path d="M24.4739 33.2881L25.0199 33.6033L24.7046 34.1493L24.1587 33.8341L24.4739 33.2881Z" fill="#7600FF" />
    <path d="M25.5078 33.0103L26.0538 33.3255L25.7386 33.8715L25.1926 33.5562L25.5078 33.0103Z" fill="#FF00DA" />
    <path d="M26.3203 33.1155L26.8663 33.4307L26.5511 33.9767L26.0051 33.6615L26.3203 33.1155Z" fill="#FF0075" />
    <path d="M26.8176 33.7671L27.3636 34.0823L27.0484 34.6283L26.5024 34.3131L26.8176 33.7671Z" fill="#38E9FE" />
    <path d="M32.4939 37.5535L33.0399 37.8687L32.7247 38.4147L32.1787 38.0994L32.4939 37.5535Z" fill="#0E00FF" />
    <path d="M27.4727 34.145L28.0186 34.4602L27.7034 35.0062L27.1574 34.691L27.4727 34.145Z" fill="#0E00FF" />
    <path d="M28.2859 34.251L28.8319 34.5662L28.5166 35.1122L27.9707 34.797L28.2859 34.251Z" fill="#0E00FF" />
    <path d="M27.9075 34.906L28.4534 35.2212L28.1382 35.7672L27.5923 35.452L27.9075 34.906Z" fill="#0E00FF" />
    <path d="M28.1443 36.1348L28.6903 36.45L28.375 36.996L27.8291 36.6807L28.1443 36.1348Z" fill="#7600FF" />
    <path d="M27.7661 36.7898L28.3121 37.105L27.9969 37.651L27.4509 37.3358L27.7661 36.7898Z" fill="#7600FF" />
    <path d="M29.4385 35.2805L29.9845 35.5957L29.6692 36.1417L29.1233 35.8265L29.4385 35.2805Z" fill="#7600FF" />
    <path d="M30.0935 35.6584L30.6395 35.9737L30.3243 36.5196L29.7783 36.2044L30.0935 35.6584Z" fill="#FF00DA" />
    <path d="M30.3708 36.6924L30.9168 37.0076L30.6016 37.5536L30.0556 37.2384L30.3708 36.6924Z" fill="#FF0075" />
    <path d="M29.7151 36.3142L30.2611 36.6294L29.9458 37.1754L29.3999 36.8602L29.7151 36.3142Z" fill="#38E9FE" />
    <path d="M31.5615 36.1423L32.1075 36.4576L31.7923 37.0035L31.2463 36.6883L31.5615 36.1423Z" fill="#0E00FF" />
    <path d="M32.0588 36.7932L32.6048 37.1084L32.2896 37.6544L31.7436 37.3392L32.0588 36.7932Z" fill="#0E00FF" />
    <path d="M32.8721 36.8992L33.418 37.2144L33.1028 37.7604L32.5569 37.4451L32.8721 36.8992Z" fill="#0E00FF" />
    <path d="M33.5271 37.2771L34.0731 37.5923L33.7579 38.1383L33.2119 37.8231L33.5271 37.2771Z" fill="#0E00FF" />
    <path d="M34.1824 37.655L34.7283 37.9703L34.4131 38.5162L33.8672 38.201L34.1824 37.655Z" fill="#7600FF" />
    <path d="M34.6797 38.3066L35.2257 38.6219L34.9104 39.1678L34.3645 38.8526L34.6797 38.3066Z" fill="#7600FF" />
    <path d="M35.1772 38.9575L35.7232 39.2727L35.408 39.8187L34.862 39.5035L35.1772 38.9575Z" fill="#7600FF" />
    <path d="M36.1477 38.7898L36.6937 39.105L36.3785 39.651L35.8325 39.3358L36.1477 38.7898Z" fill="#FF00DA" />
    <path d="M36.8027 39.1677L37.3487 39.4829L37.0335 40.0289L36.4875 39.7137L36.8027 39.1677Z" fill="#FF0075" />
    <path d="M37.0793 40.2017L37.6253 40.5169L37.3101 41.0629L36.7641 40.7476L37.0793 40.2017Z" fill="#0E00FF" />
    <path d="M56.825 48.5894V47.9589H57.4554V48.5894H56.825Z" fill="#0E00FF" />
    <path d="M40.8901 39.7808L41.4361 40.096L41.1209 40.642L40.5749 40.3267L40.8901 39.7808Z" fill="#7600FF" />
    <path d="M40.5117 40.4358L41.0577 40.751L40.7425 41.297L40.1965 40.9818L40.5117 40.4358Z" fill="#0E00FF" />
    <path d="M41.167 40.814L41.713 41.1292L41.3977 41.6752L40.8518 41.3599L41.167 40.814Z" fill="#7600FF" />
    <path d="M40.1338 41.0908L40.6798 41.406L40.3645 41.952L39.8186 41.6368L40.1338 41.0908Z" fill="#38E9FE" />
    <path d="M40.4736 42.0151L41.0196 42.3304L40.7044 42.8763L40.1584 42.5611L40.4736 42.0151Z" fill="#0E00FF" />
    <path d="M37.5598 37.8577L38.1058 38.1729L37.7906 38.7189L37.2446 38.4036L37.5598 37.8577Z" fill="#7600FF" />
    <path d="M38.3721 37.9629L38.918 38.2781L38.6028 38.8241L38.0569 38.5089L38.3721 37.9629Z" fill="#7600FF" />
    <path d="M39.4058 37.6858L39.9517 38.001L39.6365 38.547L39.0905 38.2318L39.4058 37.6858Z" fill="#7600FF" />
    <path d="M39.5251 38.9924L40.0711 39.3077L39.7559 39.8536L39.2099 39.5384L39.5251 38.9924Z" fill="#FF00DA" />
    <path d="M40.3376 39.0977L40.8836 39.4129L40.5684 39.9589L40.0224 39.6436L40.3376 39.0977Z" fill="#FF0075" />
    <path d="M37.1814 38.5127L37.7274 38.8279L37.4122 39.3739L36.8662 39.0587L37.1814 38.5127Z" fill="#38E9FE" />
    <path d="M37.8364 38.8916L38.3824 39.2068L38.0672 39.7528L37.5212 39.4376L37.8364 38.8916Z" fill="#0E00FF" />
    <path d="M38.4919 39.2695L39.0379 39.5848L38.7227 40.1307L38.1767 39.8155L38.4919 39.2695Z" fill="#0E00FF" />
    <path d="M39.1467 39.6475L39.6927 39.9627L39.3775 40.5087L38.8315 40.1934L39.1467 39.6475Z" fill="#0E00FF" />
    <path d="M39.8022 40.0264L40.3482 40.3416L40.033 40.8876L39.487 40.5723L39.8022 40.0264Z" fill="#0E00FF" />
    <path d="M37.4583 39.5466L38.0042 39.8619L37.689 40.4078L37.143 40.0926L37.4583 39.5466Z" fill="#38E9FE" />
    <path d="M38.7688 40.3035L39.3148 40.6187L38.9996 41.1647L38.4536 40.8494L38.7688 40.3035Z" fill="#0E00FF" />
  </g>
  <g filter="url(#filter0_f)">
    <path d="M39.873 35.7734L40.4142 3.47803L40.8219 35.7734H39.873Z" fill="white" />
    <path d="M41.3671 31.9773C41.1695 25.691 40.8787 13.3415 40.9736 12.6772L41.9603 31.9773H41.3671Z" fill="white" />
    <path d="M38.2498 33.1628L39.3321 16.1941L38.9614 33.1628H38.2498Z" fill="white" />
  </g>
  <path d="M37.3301 23.1641L36.3553 33.2422L39.0611 60.5708L34.1907 33.2422L36.737 23.8757L37.3301 23.1641Z"
    fill="white" />
  <path d="M32.2966 33.2411L34.7874 27.4329L35.5436 29.1824L34.4613 33.2411L39.0611 60.5696L32.2966 33.2411Z"
    fill="white" />
  <path
    d="M36.8965 30.8066L38.483 21.2659C41.2347 22.4045 42.3476 23.7592 42.3081 24.3127L42.8492 29.7243L36.8965 30.8066Z"
    fill="white" />
  <g filter="url(#filter1_d)">
    <path
      d="M38.79 26.747C41.1272 25.8705 42.268 24.8257 42.3076 24.3118L44.4722 33.2409L40.4135 61.6518L36.0842 33.2409C37.1665 25.1235 37.3469 27.2881 38.79 26.747Z"
      fill="white" />
  </g>
  <path d="M41.6518 19.0113L42.2448 17.9438L48.5312 33.2409L40.4138 66.5222L45.0137 33.2409L41.6518 19.0113Z"
    fill="white" />
  <path d="M39.8723 37.3965L40.4135 5.64233L40.8212 37.3965H39.8723Z" fill="white" />
  <path d="M41.2842 33.6017C41.0865 27.3154 40.8849 14.4247 40.9797 13.7605L41.8773 33.6017H41.2842Z" fill="white" />
  <path d="M38.2498 34.7867L39.3321 17.2769L38.9614 34.7867H38.2498Z" fill="white" />
  <path d="M42.4768 41.571L43.0228 41.8863L42.7076 42.4322L42.1616 42.117L42.4768 41.571Z" fill="#7600FF" />
  <path d="M37.6604 36.1694L38.2064 36.4847L37.8912 37.0306L37.3452 36.7154L37.6604 36.1694Z" fill="#0E00FF" />
  <path d="M39.4236 40.6819L39.9696 40.9971L39.6543 41.5431L39.1084 41.2279L39.4236 40.6819Z" fill="#0E00FF" />
  <path d="M39.3135 39.7173L39.8595 39.4021L40.1747 39.948L39.6287 40.2633L39.3135 39.7173Z" fill="#0E00FF" />
  <path d="M39.811 39.0664L40.357 38.7512L40.6722 39.2972L40.1263 39.6124L39.811 39.0664Z" fill="#7600FF" />
  <path d="M40.624 38.9604L41.17 38.6452L41.4852 39.1912L40.9392 39.5064L40.624 38.9604Z" fill="#7600FF" />
  <path d="M40.9639 38.0369L41.5098 37.7216L41.8251 38.2676L41.2791 38.5828L40.9639 38.0369Z" fill="#7600FF" />
  <path d="M41.4612 37.3855L42.0072 37.0703L42.3224 37.6163L41.7764 37.9315L41.4612 37.3855Z" fill="#FF00DA" />
  <path d="M42.4316 37.5537L42.9776 37.2385L43.2928 37.7845L42.7469 38.0997L42.4316 37.5537Z" fill="#FF0075" />
  <path d="M43.2449 37.4478L43.7909 37.1325L44.1061 37.6785L43.5601 37.9937L43.2449 37.4478Z" fill="#38E9FE" />
  <path d="M43.5215 36.4148L44.0675 36.0996L44.3827 36.6456L43.8367 36.9608L43.5215 36.4148Z" fill="#0E00FF" />
  <path d="M43.1431 35.759L43.689 35.4438L44.0043 35.9898L43.4583 36.305L43.1431 35.759Z" fill="#0E00FF" />
  <path d="M44.5549 36.6919L45.1009 36.3767L45.4161 36.9227L44.8702 37.2379L44.5549 36.6919Z" fill="#0E00FF" />
  <path d="M45.2102 36.313L45.7562 35.9978L46.0714 36.5437L45.5254 36.859L45.2102 36.313Z" fill="#0E00FF" />
  <path d="M45.8652 35.9351L46.4112 35.6198L46.7264 36.1658L46.1805 36.481L45.8652 35.9351Z" fill="#7600FF" />
  <path d="M47.0742 33.4895L47.6202 33.1743L47.9354 33.7203L47.3894 34.0355L47.0742 33.4895Z" fill="#7600FF" />
  <path d="M51.2258 31.6023L51.7718 31.2871L52.087 31.8331L51.5411 32.1483L51.2258 31.6023Z" fill="#7600FF" />
  <path d="M47.4456 34.1326L47.9915 33.8173L48.3068 34.3633L47.7608 34.6785L47.4456 34.1326Z" fill="#FF00DA" />
  <path d="M47.8306 34.7996L48.3765 34.4843L48.6918 35.0303L48.1458 35.3455L47.8306 34.7996Z" fill="#FF0075" />
  <path d="M48.4861 34.4224L49.0321 34.1071L49.3473 34.6531L48.8013 34.9683L48.4861 34.4224Z" fill="#38E9FE" />
  <path d="M49.1411 34.0427L49.6871 33.7275L50.0023 34.2735L49.4563 34.5887L49.1411 34.0427Z" fill="#0E00FF" />
  <path d="M49.7961 33.6648L50.3421 33.3496L50.6573 33.8956L50.1114 34.2108L49.7961 33.6648Z" fill="#0E00FF" />
  <path d="M50.2939 33.0142L50.8399 32.6989L51.1551 33.2449L50.6092 33.5601L50.2939 33.0142Z" fill="#0E00FF" />
  <path d="M51.1064 32.9089L51.6524 32.5937L51.9676 33.1397L51.4217 33.4549L51.1064 32.9089Z" fill="#0E00FF" />
  <path d="M51.762 32.53L52.3079 32.2148L52.6232 32.7608L52.0772 33.076L51.762 32.53Z" fill="#7600FF" />
  <path d="M52.417 32.1521L52.963 31.8369L53.2782 32.3829L52.7322 32.6981L52.417 32.1521Z" fill="#7600FF" />
  <path d="M53.0723 31.7742L53.6182 31.459L53.9335 32.0049L53.3875 32.3201L53.0723 31.7742Z" fill="#7600FF" />
  <path d="M53.3491 30.7405L53.8951 30.4253L54.2103 30.9712L53.6643 31.2865L53.3491 30.7405Z" fill="#FF00DA" />
  <path d="M53.626 29.7075L54.172 29.3923L54.4872 29.9383L53.9412 30.2535L53.626 29.7075Z" fill="#FF0075" />
  <path d="M55.0378 30.6394L55.5838 30.3242L55.899 30.8702L55.3531 31.1854L55.0378 30.6394Z" fill="#38E9FE" />
  <path d="M55.5352 29.9878L56.0811 29.6726L56.3964 30.2186L55.8504 30.5338L55.5352 29.9878Z" fill="#0E00FF" />
  <path d="M55.8123 28.9541L56.3582 28.6389L56.6735 29.1849L56.1275 29.5001L55.8123 28.9541Z" fill="#0E00FF" />
  <path d="M57.0032 29.5049L57.5492 29.1897L57.8644 29.7356L57.3184 30.0509L57.0032 29.5049Z" fill="#0E00FF" />
  <path d="M57.5007 28.8533L58.0467 28.5381L58.3619 29.084L57.816 29.3992L57.5007 28.8533Z" fill="#0E00FF" />
  <path d="M39.6919 40.373L40.2379 40.0578L40.5531 40.6038L40.0071 40.919L39.6919 40.373Z" fill="#7600FF" />
  <path d="M40.3469 39.9944L40.8929 39.6792L41.2081 40.2251L40.6621 40.5404L40.3469 39.9944Z" fill="#7600FF" />
  <path d="M41.0022 39.6162L41.5482 39.301L41.8634 39.847L41.3174 40.1622L41.0022 39.6162Z" fill="#7600FF" />
  <path d="M41.6575 39.2375L42.2034 38.9223L42.5187 39.4683L41.9727 39.7835L41.6575 39.2375Z" fill="#FF00DA" />
  <path d="M42.3127 38.8596L42.8587 38.5444L43.1739 39.0904L42.628 39.4056L42.3127 38.8596Z" fill="#FF0075" />
  <path d="M42.9678 38.4807L43.5137 38.1655L43.829 38.7115L43.283 39.0267L42.9678 38.4807Z" fill="#38E9FE" />
  <path d="M43.6228 38.1028L44.1688 37.7876L44.484 38.3335L43.938 38.6488L43.6228 38.1028Z" fill="#0E00FF" />
  <path d="M44.2781 37.7249L44.8241 37.4096L45.1393 37.9556L44.5933 38.2708L44.2781 37.7249Z" fill="#0E00FF" />
  <path d="M44.9333 37.3469L45.4793 37.0317L45.7945 37.5777L45.2486 37.8929L44.9333 37.3469Z" fill="#0E00FF" />
  <path d="M45.5881 36.968L46.1341 36.6528L46.4493 37.1988L45.9034 37.514L45.5881 36.968Z" fill="#0E00FF" />
  <path d="M46.2437 36.5901L46.7896 36.2749L47.1048 36.8208L46.5589 37.1361L46.2437 36.5901Z" fill="#7600FF" />
  <path d="M46.8987 36.2122L47.4447 35.8969L47.7599 36.4429L47.2139 36.7581L46.8987 36.2122Z" fill="#7600FF" />
  <path d="M47.554 35.8333L48.0999 35.518L48.4152 36.064L47.8692 36.3792L47.554 35.8333Z" fill="#7600FF" />
  <path d="M48.2092 35.4553L48.7552 35.1401L49.0704 35.6861L48.5244 36.0013L48.2092 35.4553Z" fill="#FF00DA" />
  <path d="M48.864 35.0767L49.41 34.7614L49.7252 35.3074L49.1792 35.6226L48.864 35.0767Z" fill="#FF0075" />
  <path d="M49.5195 34.6987L50.0655 34.3835L50.3807 34.9295L49.8347 35.2447L49.5195 34.6987Z" fill="#38E9FE" />
  <path d="M50.1746 34.3208L50.7205 34.0056L51.0358 34.5516L50.4898 34.8668L50.1746 34.3208Z" fill="#0E00FF" />
  <path d="M50.8298 33.9426L51.3758 33.6274L51.691 34.1734L51.1451 34.4886L50.8298 33.9426Z" fill="#0E00FF" />
  <path d="M51.4849 33.563L52.0308 33.2478L52.3461 33.7937L51.8001 34.109L51.4849 33.563Z" fill="#0E00FF" />
  <path d="M52.1399 33.1851L52.6859 32.8698L53.0011 33.4158L52.4551 33.731L52.1399 33.1851Z" fill="#0E00FF" />
  <path d="M52.7954 32.8081L53.3414 32.4929L53.6566 33.0389L53.1106 33.3541L52.7954 32.8081Z" fill="#7600FF" />
  <path d="M53.4504 32.4292L53.9964 32.114L54.3116 32.66L53.7657 32.9752L53.4504 32.4292Z" fill="#7600FF" />
  <path d="M54.1057 32.0503L54.6517 31.7351L54.9669 32.281L54.4209 32.5963L54.1057 32.0503Z" fill="#7600FF" />
  <path d="M54.7607 31.6724L55.3067 31.3571L55.6219 31.9031L55.076 32.2183L54.7607 31.6724Z" fill="#FF00DA" />
  <path d="M55.4158 31.2944L55.9617 30.9792L56.277 31.5252L55.731 31.8404L55.4158 31.2944Z" fill="#FF0075" />
  <path d="M56.0713 30.9158L56.6173 30.6006L56.9325 31.1465L56.3865 31.4617L56.0713 30.9158Z" fill="#7600FF" />
  <path d="M56.7263 30.5378L57.2723 30.2226L57.5875 30.7686L57.0415 31.0838L56.7263 30.5378Z" fill="#FF00DA" />
  <path d="M57.3816 30.1597L57.9276 29.8444L58.2428 30.3904L57.6968 30.7056L57.3816 30.1597Z" fill="#FF0075" />
  <path d="M58.0366 29.781L58.5826 29.4658L58.8978 30.0118L58.3518 30.327L58.0366 29.781Z" fill="#38E9FE" />
  <path d="M40.0703 41.0281L40.6163 40.7129L40.9315 41.2588L40.3855 41.5741L40.0703 41.0281Z" fill="#0E00FF" />
  <path d="M41.0405 41.1958L41.5865 40.8806L41.9017 41.4266L41.3557 41.7418L41.0405 41.1958Z" fill="#0E00FF" />
  <path d="M41.3889 40.2603L41.9349 39.945L42.2501 40.491L41.7041 40.8062L41.3889 40.2603Z" fill="#0E00FF" />
  <path d="M42.0356 39.8933L42.5816 39.5781L42.8968 40.1241L42.3509 40.4393L42.0356 39.8933Z" fill="#0E00FF" />
  <path d="M42.6909 39.5146L43.2369 39.1994L43.5521 39.7454L43.0061 40.0606L42.6909 39.5146Z" fill="#7600FF" />
  <path d="M43.3457 39.1367L43.8917 38.8215L44.2069 39.3675L43.6609 39.6827L43.3457 39.1367Z" fill="#7600FF" />
  <path d="M44.5371 39.6865L45.0831 39.3713L45.3983 39.9173L44.8523 40.2325L44.5371 39.6865Z" fill="#7600FF" />
  <path d="M44.8142 38.6526L45.3602 38.3374L45.6754 38.8833L45.1294 39.1986L44.8142 38.6526Z" fill="#FF00DA" />
  <path d="M45.3115 38.001L45.8575 37.6858L46.1727 38.2317L45.6267 38.547L45.3115 38.001Z" fill="#FF0075" />
  <path d="M46.1243 37.8958L46.6702 37.5805L46.9855 38.1265L46.4395 38.4417L46.1243 37.8958Z" fill="#38E9FE" />
  <path d="M52.2417 34.874L52.7877 34.5588L53.1029 35.1048L52.5569 35.42L52.2417 34.874Z" fill="#0E00FF" />
  <path d="M46.7795 37.5188L47.3255 37.2036L47.6407 37.7496L47.0948 38.0648L46.7795 37.5188Z" fill="#0E00FF" />
  <path d="M47.2771 36.8672L47.8231 36.552L48.1383 37.0979L47.5923 37.4132L47.2771 36.8672Z" fill="#0E00FF" />
  <path d="M47.6553 37.5222L48.2013 37.207L48.5165 37.753L47.9705 38.0682L47.6553 37.5222Z" fill="#0E00FF" />
  <path d="M48.8379 37.9309L49.3839 37.6157L49.6991 38.1617L49.1531 38.4769L48.8379 37.9309Z" fill="#7600FF" />
  <path d="M49.2161 38.5869L49.762 38.2717L50.0773 38.8177L49.5313 39.1329L49.2161 38.5869Z" fill="#7600FF" />
  <path d="M48.7449 36.3833L49.2908 36.0681L49.6061 36.6141L49.0601 36.9293L48.7449 36.3833Z" fill="#7600FF" />
  <path d="M49.4001 36.0051L49.9461 35.6899L50.2613 36.2359L49.7154 36.5511L49.4001 36.0051Z" fill="#7600FF" />
  <path d="M50.4333 36.2822L50.9793 35.967L51.2945 36.513L50.7486 36.8282L50.4333 36.2822Z" fill="#FF00DA" />
  <path d="M49.7783 36.6602L50.3243 36.3449L50.6395 36.8909L50.0935 37.2061L49.7783 36.6602Z" fill="#FF0075" />
  <path d="M50.553 34.9756L51.099 34.6604L51.4142 35.2063L50.8682 35.5216L50.553 34.9756Z" fill="#38E9FE" />
  <path d="M51.3655 34.8706L51.9115 34.5554L52.2267 35.1014L51.6807 35.4166L51.3655 34.8706Z" fill="#0E00FF" />
  <path d="M51.8633 34.219L52.4093 33.9038L52.7245 34.4498L52.1785 34.765L51.8633 34.219Z" fill="#0E00FF" />
  <path d="M52.5183 33.8411L53.0643 33.5258L53.3795 34.0718L52.8335 34.387L52.5183 33.8411Z" fill="#0E00FF" />
  <path d="M53.1736 33.4622L53.7196 33.1469L54.0348 33.6929L53.4888 34.0081L53.1736 33.4622Z" fill="#0E00FF" />
  <path d="M53.9863 33.3569L54.5323 33.0417L54.8475 33.5877L54.3015 33.9029L53.9863 33.3569Z" fill="#7600FF" />
  <path d="M54.7993 33.2517L55.3453 32.9365L55.6605 33.4825L55.1145 33.7977L54.7993 33.2517Z" fill="#7600FF" />
  <path d="M55.1392 32.3284L55.6851 32.0131L56.0004 32.5591L55.4544 32.8743L55.1392 32.3284Z" fill="#7600FF" />
  <path d="M55.7942 31.9495L56.3402 31.6342L56.6554 32.1802L56.1094 32.4954L55.7942 31.9495Z" fill="#FF00DA" />
  <path d="M56.4495 31.5715L56.9954 31.2563L57.3107 31.8023L56.7647 32.1175L56.4495 31.5715Z" fill="#FF0075" />
  <path d="M57.76 30.8147L58.306 30.4995L58.6212 31.0455L58.0752 31.3607L57.76 30.8147Z" fill="#38E9FE" />
  <path d="M56.8276 32.2266L57.3736 31.9113L57.6888 32.4573L57.1429 32.7725L56.8276 32.2266Z" fill="#0E00FF" />
  <path d="M58.4148 30.4368L58.9608 30.1215L59.276 30.6675L58.73 30.9827L58.4148 30.4368Z" fill="#0E00FF" />
  <path d="M20.259 50.719L20.805 50.4038L21.1202 50.9498L20.5743 51.265L20.259 50.719Z" fill="#0E00FF" />
  <path d="M20.7568 50.0674L21.3028 49.7522L21.618 50.2981L21.0721 50.6134L20.7568 50.0674Z" fill="#0E00FF" />
  <path d="M21.5693 49.9622L22.1153 49.6469L22.4305 50.1929L21.8846 50.5081L21.5693 49.9622Z" fill="#7600FF" />
  <path d="M21.9094 49.0386L22.4554 48.7234L22.7706 49.2693L22.2246 49.5846L21.9094 49.0386Z" fill="#7600FF" />
  <path d="M22.407 48.3872L22.953 48.072L23.2682 48.618L22.7222 48.9332L22.407 48.3872Z" fill="#7600FF" />
  <path d="M23.3772 48.5547L23.9232 48.2395L24.2384 48.7854L23.6924 49.1007L23.3772 48.5547Z" fill="#FF00DA" />
  <path d="M24.1902 48.4495L24.7362 48.1342L25.0514 48.6802L24.5054 48.9954L24.1902 48.4495Z" fill="#FF0075" />
  <path d="M24.467 47.4158L25.013 47.1006L25.3282 47.6465L24.7823 47.9617L24.467 47.4158Z" fill="#38E9FE" />
  <path d="M24.0889 46.7607L24.6348 46.4455L24.9501 46.9915L24.4041 47.3067L24.0889 46.7607Z" fill="#0E00FF" />
  <path d="M25.5007 47.6926L26.0467 47.3774L26.3619 47.9234L25.816 48.2386L25.5007 47.6926Z" fill="#0E00FF" />
  <path d="M26.1558 47.3147L26.7017 46.9995L27.017 47.5455L26.471 47.8607L26.1558 47.3147Z" fill="#0E00FF" />
  <path d="M26.8108 46.936L27.3568 46.6208L27.672 47.1668L27.126 47.482L26.8108 46.936Z" fill="#0E00FF" />
  <path d="M28.0198 44.4912L28.5658 44.176L28.881 44.722L28.335 45.0372L28.0198 44.4912Z" fill="#7600FF" />
  <path d="M32.1714 42.6033L32.7174 42.2881L33.0326 42.834L32.4866 43.1492L32.1714 42.6033Z" fill="#7600FF" />
  <path d="M28.3909 45.1343L28.9368 44.8191L29.2521 45.365L28.7061 45.6803L28.3909 45.1343Z" fill="#7600FF" />
  <path d="M28.7761 45.8013L29.3221 45.486L29.6373 46.032L29.0913 46.3472L28.7761 45.8013Z" fill="#FF00DA" />
  <path d="M29.4316 45.4233L29.9776 45.1081L30.2928 45.6541L29.7469 45.9693L29.4316 45.4233Z" fill="#FF0075" />
  <path d="M30.0864 45.0454L30.6324 44.7302L30.9476 45.2762L30.4016 45.5914L30.0864 45.0454Z" fill="#38E9FE" />
  <path d="M30.7419 44.6665L31.2879 44.3513L31.6031 44.8973L31.0572 45.2125L30.7419 44.6665Z" fill="#0E00FF" />
  <path d="M31.2393 44.0149L31.7852 43.6997L32.1005 44.2456L31.5545 44.5609L31.2393 44.0149Z" fill="#0E00FF" />
  <path d="M32.052 43.9097L32.598 43.5944L32.9132 44.1404L32.3672 44.4556L32.052 43.9097Z" fill="#0E00FF" />
  <path d="M32.7073 43.5317L33.2533 43.2165L33.5685 43.7625L33.0225 44.0777L32.7073 43.5317Z" fill="#0E00FF" />
  <path d="M33.3623 43.1531L33.9083 42.8379L34.2235 43.3838L33.6775 43.6991L33.3623 43.1531Z" fill="#7600FF" />
  <path d="M34.0178 42.7759L34.5638 42.4607L34.879 43.0066L34.333 43.3219L34.0178 42.7759Z" fill="#7600FF" />
  <path d="M34.2949 41.7422L34.8409 41.427L35.1561 41.9729L34.6101 42.2882L34.2949 41.7422Z" fill="#7600FF" />
  <path d="M34.5715 40.7083L35.1175 40.393L35.4327 40.939L34.8868 41.2542L34.5715 40.7083Z" fill="#FF00DA" />
  <path d="M35.9832 41.6404L36.5291 41.3252L36.8444 41.8711L36.2984 42.1864L35.9832 41.6404Z" fill="#FF0075" />
  <path d="M36.4807 40.9895L37.0267 40.6743L37.3419 41.2203L36.7959 41.5355L36.4807 40.9895Z" fill="#38E9FE" />
  <path d="M36.7576 39.9558L37.3035 39.6406L37.6188 40.1866L37.0728 40.5018L36.7576 39.9558Z" fill="#0E00FF" />
  <path d="M37.9487 40.5056L38.4947 40.1904L38.8099 40.7364L38.264 41.0516L37.9487 40.5056Z" fill="#0E00FF" />
  <path d="M38.4465 39.855L38.9925 39.5398L39.3077 40.0857L38.7618 40.401L38.4465 39.855Z" fill="#0E00FF" />
  <path d="M20.6375 51.374L21.1834 51.0588L21.4986 51.6048L20.9527 51.92L20.6375 51.374Z" fill="#0E00FF" />
  <path d="M21.2925 50.9961L21.8385 50.6809L22.1537 51.2269L21.6077 51.5421L21.2925 50.9961Z" fill="#7600FF" />
  <path d="M21.9478 50.6172L22.4937 50.302L22.8089 50.8479L22.263 51.1632L21.9478 50.6172Z" fill="#7600FF" />
  <path d="M22.6028 50.2393L23.1488 49.924L23.464 50.47L22.918 50.7852L22.6028 50.2393Z" fill="#7600FF" />
  <path d="M23.2578 49.8604L23.8038 49.5451L24.119 50.0911L23.573 50.4063L23.2578 49.8604Z" fill="#FF00DA" />
  <path d="M23.9133 49.4834L24.4593 49.1682L24.7745 49.7142L24.2286 50.0294L23.9133 49.4834Z" fill="#FF0075" />
  <path d="M24.5684 49.1038L25.1143 48.7885L25.4296 49.3345L24.8836 49.6497L24.5684 49.1038Z" fill="#38E9FE" />
  <path d="M25.2236 48.7266L25.7696 48.4113L26.0848 48.9573L25.5389 49.2725L25.2236 48.7266Z" fill="#0E00FF" />
  <path d="M25.8787 48.3477L26.4246 48.0324L26.7399 48.5784L26.1939 48.8936L25.8787 48.3477Z" fill="#0E00FF" />
  <path d="M26.5337 47.9697L27.0797 47.6545L27.3949 48.2005L26.8489 48.5157L26.5337 47.9697Z" fill="#0E00FF" />
  <path d="M27.1892 47.5911L27.7352 47.2758L28.0504 47.8218L27.5044 48.137L27.1892 47.5911Z" fill="#0E00FF" />
  <path d="M27.844 47.2131L28.39 46.8979L28.7052 47.4439L28.1592 47.7591L27.844 47.2131Z" fill="#7600FF" />
  <path d="M28.4995 46.835L29.0455 46.5197L29.3607 47.0657L28.8147 47.3809L28.4995 46.835Z" fill="#7600FF" />
  <path d="M29.1545 46.4563L29.7005 46.1411L30.0157 46.6871L29.4698 47.0023L29.1545 46.4563Z" fill="#7600FF" />
  <path d="M29.8098 46.0784L30.3558 45.7631L30.671 46.3091L30.125 46.6243L29.8098 46.0784Z" fill="#FF00DA" />
  <path d="M30.4651 45.7004L31.0111 45.3852L31.3263 45.9312L30.7803 46.2464L30.4651 45.7004Z" fill="#FF0075" />
  <path d="M31.1199 45.3215L31.6658 45.0063L31.9811 45.5523L31.4351 45.8675L31.1199 45.3215Z" fill="#38E9FE" />
  <path d="M31.7754 44.9436L32.3214 44.6284L32.6366 45.1744L32.0906 45.4896L31.7754 44.9436Z" fill="#0E00FF" />
  <path d="M32.4304 44.5657L32.9764 44.2505L33.2916 44.7964L32.7456 45.1117L32.4304 44.5657Z" fill="#0E00FF" />
  <path d="M33.0857 44.1868L33.6317 43.8715L33.9469 44.4175L33.4009 44.7327L33.0857 44.1868Z" fill="#0E00FF" />
  <path d="M33.7407 43.8088L34.2867 43.4936L34.6019 44.0396L34.0559 44.3548L33.7407 43.8088Z" fill="#0E00FF" />
  <path d="M34.3958 43.4309L34.9417 43.1157L35.2569 43.6617L34.711 43.9769L34.3958 43.4309Z" fill="#7600FF" />
  <path d="M35.0513 43.052L35.5972 42.7368L35.9125 43.2828L35.3665 43.598L35.0513 43.052Z" fill="#7600FF" />
  <path d="M35.7063 42.6733L36.2523 42.3581L36.5675 42.9041L36.0215 43.2193L35.7063 42.6733Z" fill="#7600FF" />
  <path d="M36.3616 42.2954L36.9075 41.9802L37.2228 42.5262L36.6768 42.8414L36.3616 42.2954Z" fill="#FF00DA" />
  <path d="M37.0166 41.9175L37.5626 41.6023L37.8778 42.1482L37.3318 42.4635L37.0166 41.9175Z" fill="#FF0075" />
  <path d="M37.6716 41.5386L38.2176 41.2234L38.5328 41.7693L37.9869 42.0846L37.6716 41.5386Z" fill="#38E9FE" />
  <path d="M38.3271 41.1606L38.8731 40.8454L39.1883 41.3914L38.6424 41.7066L38.3271 41.1606Z" fill="#0E00FF" />
  <path d="M38.9822 40.7827L39.5282 40.4675L39.8434 41.0135L39.2974 41.3287L38.9822 40.7827Z" fill="#0E00FF" />
  <path d="M21.0156 52.0291L21.5616 51.7138L21.8768 52.2598L21.3308 52.575L21.0156 52.0291Z" fill="#0E00FF" />
  <path d="M21.9858 52.1965L22.5318 51.8813L22.847 52.4273L22.3011 52.7425L21.9858 52.1965Z" fill="#0E00FF" />
  <path d="M22.3345 51.262L22.8804 50.9467L23.1957 51.4927L22.6497 51.8079L22.3345 51.262Z" fill="#7600FF" />
  <path d="M22.9812 50.8943L23.5272 50.5791L23.8424 51.125L23.2964 51.4403L22.9812 50.8943Z" fill="#7600FF" />
  <path d="M23.6362 50.5164L24.1822 50.2011L24.4974 50.7471L23.9515 51.0623L23.6362 50.5164Z" fill="#7600FF" />
  <path d="M24.2915 50.1384L24.8375 49.8232L25.1527 50.3692L24.6067 50.6844L24.2915 50.1384Z" fill="#FF00DA" />
  <path d="M25.4824 50.6882L26.0284 50.373L26.3436 50.919L25.7976 51.2342L25.4824 50.6882Z" fill="#FF0075" />
  <path d="M25.7595 49.6543L26.3055 49.3391L26.6207 49.8851L26.0747 50.2003L25.7595 49.6543Z" fill="#38E9FE" />
  <path d="M26.2571 49.0027L26.8031 48.6875L27.1183 49.2334L26.5723 49.5487L26.2571 49.0027Z" fill="#0E00FF" />
  <path d="M27.0701 48.8975L27.616 48.5822L27.9313 49.1282L27.3853 49.4434L27.0701 48.8975Z" fill="#0E00FF" />
  <path d="M33.187 45.8757L33.733 45.5605L34.0482 46.1065L33.5022 46.4217L33.187 45.8757Z" fill="#FF00DA" />
  <path d="M27.7249 48.5195L28.2708 48.2043L28.586 48.7503L28.0401 49.0655L27.7249 48.5195Z" fill="#0E00FF" />
  <path d="M28.2224 47.8689L28.7684 47.5537L29.0836 48.0997L28.5376 48.4149L28.2224 47.8689Z" fill="#7600FF" />
  <path d="M28.6008 48.5229L29.1468 48.2077L29.462 48.7537L28.916 49.0689L28.6008 48.5229Z" fill="#7600FF" />
  <path d="M29.7834 48.9326L30.3294 48.6174L30.6446 49.1634L30.0987 49.4786L29.7834 48.9326Z" fill="#7600FF" />
  <path d="M30.1619 49.5876L30.7078 49.2724L31.0231 49.8184L30.4771 50.1336L30.1619 49.5876Z" fill="#FF00DA" />
  <path d="M29.6904 47.385L30.2364 47.0698L30.5516 47.6158L30.0056 47.931L29.6904 47.385Z" fill="#FF0075" />
  <path d="M30.3459 47.0068L30.8919 46.6916L31.2071 47.2376L30.6612 47.5528L30.3459 47.0068Z" fill="#38E9FE" />
  <path d="M31.3789 47.2832L31.9249 46.968L32.2401 47.514L31.6941 47.8292L31.3789 47.2832Z" fill="#0E00FF" />
  <path d="M30.7239 47.6619L31.2699 47.3466L31.5851 47.8926L31.0391 48.2078L30.7239 47.6619Z" fill="#0E00FF" />
  <path d="M31.4983 45.9766L32.0443 45.6613L32.3595 46.2073L31.8135 46.5225L31.4983 45.9766Z" fill="#0E00FF" />
  <path d="M32.3113 45.8713L32.8573 45.5561L33.1725 46.1021L32.6265 46.4173L32.3113 45.8713Z" fill="#0E00FF" />
  <path d="M32.8088 45.2207L33.3548 44.9055L33.67 45.4515L33.1241 45.7667L32.8088 45.2207Z" fill="#7600FF" />
  <path d="M33.4639 44.8418L34.0098 44.5266L34.3251 45.0726L33.7791 45.3878L33.4639 44.8418Z" fill="#7600FF" />
  <path d="M34.1191 44.4639L34.6651 44.1486L34.9803 44.6946L34.4344 45.0098L34.1191 44.4639Z" fill="#7600FF" />
  <path d="M34.9319 44.3586L35.4779 44.0434L35.7931 44.5894L35.2471 44.9046L34.9319 44.3586Z" fill="#FF00DA" />
  <path d="M35.7446 44.2534L36.2906 43.9382L36.6058 44.4842L36.0598 44.7994L35.7446 44.2534Z" fill="#FF0075" />
  <path d="M36.0845 43.3291L36.6304 43.0139L36.9457 43.5599L36.3997 43.8751L36.0845 43.3291Z" fill="#38E9FE" />
  <path d="M36.7397 42.9512L37.2857 42.6359L37.6009 43.1819L37.055 43.4972L36.7397 42.9512Z" fill="#0E00FF" />
  <path d="M37.3945 42.5725L37.9405 42.2573L38.2557 42.8033L37.7098 43.1185L37.3945 42.5725Z" fill="#0E00FF" />
  <path d="M38.7051 41.8157L39.2511 41.5005L39.5663 42.0464L39.0203 42.3617L38.7051 41.8157Z" fill="#0E00FF" />
  <path d="M37.7734 43.2283L38.3194 42.9131L38.6346 43.459L38.0887 43.7742L37.7734 43.2283Z" fill="#0E00FF" />
  <path d="M39.3604 41.4377L39.9063 41.1225L40.2215 41.6685L39.6756 41.9837L39.3604 41.4377Z" fill="#7600FF" />
  <path d="M20.0068 49.3457V48.7153H20.6373V49.3457H20.0068Z" fill="#7600FF" />
  <path d="M20.0068 50.1016V49.4711H20.6373V50.1016H20.0068Z" fill="#7600FF" />
  <path d="M19.6919 48.5898V47.9594H20.3223V48.5898H19.6919Z" fill="#FF00DA" />
  <path d="M19.3762 50.9841V50.3537H20.0067V50.9841H19.3762Z" fill="#FF0075" />
  <path d="M20.322 47.833V47.2026H20.9525V47.833H20.322Z" fill="#38E9FE" />
  <path d="M20.6375 47.0762V46.4457H21.2679V47.0762H20.6375Z" fill="#0E00FF" />
  <path d="M19.8806 46.3193V45.6889H20.5111V46.3193H19.8806Z" fill="#0E00FF" />
  <path d="M19.1243 46.3193V45.6889H19.7547V46.3193H19.1243Z" fill="#0E00FF" />
  <path d="M20.6375 45.5627V44.9323H21.2679V45.5627H20.6375Z" fill="#0E00FF" />
  <path d="M20.6375 44.8069V44.1764H21.2679V44.8069H20.6375Z" fill="#7600FF" />
  <path d="M20.6375 44.05V43.4196H21.2679V44.05H20.6375Z" fill="#7600FF" />
  <path d="M19.1243 41.7798V41.1493H19.7547V41.7798H19.1243Z" fill="#7600FF" />
  <path d="M19.5654 37.241V36.6105H20.1959V37.241H19.5654Z" fill="#FF00DA" />
  <path d="M19.8667 41.7798V41.1493H20.4971V41.7798H19.8667Z" fill="#FF0075" />
  <path d="M20.6375 41.7798V41.1493H21.2679V41.7798H20.6375Z" fill="#38E9FE" />
  <path d="M20.6375 41.0229V40.3925H21.2679V41.0229H20.6375Z" fill="#0E00FF" />
  <path d="M20.6375 40.2671V39.6367H21.2679V40.2671H20.6375Z" fill="#0E00FF" />
  <path d="M20.6375 39.5103V38.8798H21.2679V39.5103H20.6375Z" fill="#0E00FF" />
  <path d="M20.322 38.7544V38.124H20.9525V38.7544H20.322Z" fill="#0E00FF" />
  <path d="M20.6375 37.9976V37.3671H21.2679V37.9976H20.6375Z" fill="#7600FF" />
  <path d="M20.6375 37.241V36.6105H21.2679V37.241H20.6375Z" fill="#7600FF" />
  <path d="M20.6375 36.4841V35.8537H21.2679V36.4841H20.6375Z" fill="#7600FF" />
  <path d="M19.1243 30.3059V29.6755H19.7547V30.3059H19.1243Z" fill="#FF00DA" />
  <path d="M20.6375 35.7273V35.0969H21.2679V35.7273H20.6375Z" fill="#FF0075" />
  <path d="M19.8806 34.9714V34.341H20.5111V34.9714H19.8806Z" fill="#38E9FE" />
  <path d="M19.1243 34.2146V33.5842H19.7547V34.2146H19.1243Z" fill="#0E00FF" />
  <path d="M20.6375 33.458V32.8276H21.2679V33.458H20.6375Z" fill="#0E00FF" />
  <path d="M20.322 32.7019V32.0715H20.9525V32.7019H20.322Z" fill="#0E00FF" />
  <path d="M19.6919 29.1714V28.5409H20.3223V29.1714H19.6919Z" fill="#0E00FF" />
  <path d="M19.5654 31.8818V31.2514H20.1959V31.8818H19.5654Z" fill="#7600FF" />
  <path d="M21.2048 49.4714V48.841H21.8353V49.4714H21.2048Z" fill="#7600FF" />
  <path d="M21.3938 48.5898V47.9594H22.0242V48.5898H21.3938Z" fill="#7600FF" />
  <path d="M19.8806 51.8674V51.237H20.5111V51.8674H19.8806Z" fill="#FF00DA" />
  <path d="M21.3938 47.833V47.2026H22.0242V47.833H21.3938Z" fill="#FF0075" />
  <path d="M21.3938 47.0762V46.4457H22.0242V47.0762H21.3938Z" fill="#38E9FE" />
  <path d="M21.3938 46.3193V45.6889H22.0242V46.3193H21.3938Z" fill="#0E00FF" />
  <path d="M21.3938 45.5627V44.9323H22.0242V45.5627H21.3938Z" fill="#0E00FF" />
  <path d="M21.3938 44.8069V44.1764H22.0242V44.8069H21.3938Z" fill="#0E00FF" />
  <path d="M21.3938 44.05V43.4196H22.0242V44.05H21.3938Z" fill="#0E00FF" />
  <path d="M21.3938 43.2932V42.6628H22.0242V43.2932H21.3938Z" fill="#7600FF" />
  <path d="M21.3938 42.5364V41.9059H22.0242V42.5364H21.3938Z" fill="#7600FF" />
  <path d="M21.3938 41.7798V41.1493H22.0242V41.7798H21.3938Z" fill="#7600FF" />
  <path d="M21.3938 41.0229V40.3925H22.0242V41.0229H21.3938Z" fill="#FF00DA" />
  <path d="M21.3938 40.2671V39.6367H22.0242V40.2671H21.3938Z" fill="#FF0075" />
  <path d="M21.3938 39.5103V38.8798H22.0242V39.5103H21.3938Z" fill="#38E9FE" />
  <path d="M21.3938 38.7544V38.124H22.0242V38.7544H21.3938Z" fill="#0E00FF" />
  <path d="M21.3938 37.9976V37.3671H22.0242V37.9976H21.3938Z" fill="#0E00FF" />
  <path d="M21.3938 37.241V36.6105H22.0242V37.241H21.3938Z" fill="#0E00FF" />
  <path d="M21.3938 36.4841V35.8537H22.0242V36.4841H21.3938Z" fill="#0E00FF" />
  <path d="M21.3938 35.7273V35.0969H22.0242V35.7273H21.3938Z" fill="#7600FF" />
  <path d="M21.3938 34.9714V34.341H22.0242V34.9714H21.3938Z" fill="#7600FF" />
  <path d="M19.8806 31.126V30.4955H20.5111V31.126H19.8806Z" fill="#7600FF" />
  <path d="M20.6375 30.0537V29.4233H21.2679V30.0537H20.6375Z" fill="#FF00DA" />
  <path d="M21.3938 34.2146V33.5842H22.0242V34.2146H21.3938Z" fill="#FF0075" />
  <path d="M21.3938 33.458V32.8276H22.0242V33.458H21.3938Z" fill="#38E9FE" />
  <path d="M21.3938 32.7019V32.0715H22.0242V32.7019H21.3938Z" fill="#0E00FF" />
  <path d="M20.322 31.8818V31.2514H20.9525V31.8818H20.322Z" fill="#0E00FF" />
  <path d="M22.1504 47.833V47.2026H22.7808V47.833H22.1504Z" fill="#0E00FF" />
  <path d="M23.2219 47.0762V46.4457H23.8524V47.0762H23.2219Z" fill="#0E00FF" />
  <path d="M22.4656 46.3193V45.6889H23.096V46.3193H22.4656Z" fill="#7600FF" />
  <path d="M20.259 52.7498V52.1193H20.8895V52.7498H20.259Z" fill="#7600FF" />
  <path d="M22.1504 45.5627V44.9323H22.7808V45.5627H22.1504Z" fill="#7600FF" />
  <path d="M22.4656 44.8069V44.1764H23.096V44.8069H22.4656Z" fill="#FF00DA" />
  <path d="M22.9067 37.9976V37.3671H23.5372V37.9976H22.9067Z" fill="#FF0075" />
  <path d="M22.4656 44.05V43.4196H23.096V44.05H22.4656Z" fill="#38E9FE" />
  <path d="M22.1504 43.2932V42.6628H22.7808V43.2932H22.1504Z" fill="#0E00FF" />
  <path d="M22.9067 43.2932V42.6628H23.5372V43.2932H22.9067Z" fill="#0E00FF" />
  <path d="M23.8525 42.4741V41.8437H24.483V42.4741H23.8525Z" fill="#0E00FF" />
  <path d="M24.6091 42.4741V41.8437H25.2396V42.4741H24.6091Z" fill="#0E00FF" />
  <path d="M22.4656 41.7798V41.1493H23.096V41.7798H22.4656Z" fill="#7600FF" />
  <path d="M22.4656 41.0229V40.3925H23.096V41.0229H22.4656Z" fill="#7600FF" />
  <path d="M23.2219 40.2671V39.6367H23.8524V40.2671H23.2219Z" fill="#7600FF" />
  <path d="M23.2219 41.0229V40.3925H23.8524V41.0229H23.2219Z" fill="#FF00DA" />
  <path d="M22.1504 39.5103V38.8798H22.7808V39.5103H22.1504Z" fill="#FF0075" />
  <path d="M22.4656 38.7544V38.124H23.096V38.7544H22.4656Z" fill="#38E9FE" />
  <path d="M22.1504 37.9976V37.3671H22.7808V37.9976H22.1504Z" fill="#0E00FF" />
  <path d="M22.1504 37.241V36.6105H22.7808V37.241H22.1504Z" fill="#0E00FF" />
  <path d="M22.1504 36.4841V35.8537H22.7808V36.4841H22.1504Z" fill="#0E00FF" />
  <path d="M22.4656 35.7273V35.0969H23.096V35.7273H22.4656Z" fill="#0E00FF" />
  <path d="M20.9526 28.541V27.9106H21.5831V28.541H20.9526Z" fill="#7600FF" />
  <path d="M22.7808 34.9714V34.341H23.4112V34.9714H22.7808Z" fill="#7600FF" />
  <path d="M22.1504 34.2146V33.5842H22.7808V34.2146H22.1504Z" fill="#7600FF" />
  <path d="M22.1504 33.458V32.8276H22.7808V33.458H22.1504Z" fill="#FF00DA" />
  <path d="M22.1504 32.7019V32.0715H22.7808V32.7019H22.1504Z" fill="#FF0075" />
  <path d="M22.9067 33.0798V32.4494H23.5372V33.0798H22.9067Z" fill="#38E9FE" />
  <path d="M59.8506 52.3718V51.7414H60.481V52.3718H59.8506Z" fill="#0E00FF" />
  <path d="M59.5354 51.615V50.9846H60.1658V51.615H59.5354Z" fill="#0E00FF" />
  <path d="M57.7703 50.1016V49.4711H58.4007V50.1016H57.7703Z" fill="#0E00FF" />
  <path d="M57.4551 47.833V47.2026H58.0855V47.833H57.4551Z" fill="#7600FF" />
  <path d="M57.7703 47.0762V46.4457H58.4007V47.0762H57.7703Z" fill="#7600FF" />
  <path d="M57.0134 46.3193V45.6889H57.6439V46.3193H57.0134Z" fill="#7600FF" />
  <path d="M56.2571 46.3193V45.6889H56.8875V46.3193H56.2571Z" fill="#FF00DA" />
  <path d="M57.7703 45.5627V44.9323H58.4007V45.5627H57.7703Z" fill="#FF0075" />
  <path d="M57.7703 44.8069V44.1764H58.4007V44.8069H57.7703Z" fill="#38E9FE" />
  <path d="M57.7703 44.05V43.4196H58.4007V44.05H57.7703Z" fill="#0E00FF" />
  <path d="M56.2571 41.7798V41.1493H56.8875V41.7798H56.2571Z" fill="#0E00FF" />
  <path d="M56.6985 37.241V36.6105H57.3289V37.241H56.6985Z" fill="#0E00FF" />
  <path d="M56.9993 41.7798V41.1493H57.6297V41.7798H56.9993Z" fill="#0E00FF" />
  <path d="M57.7703 41.7798V41.1493H58.4007V41.7798H57.7703Z" fill="#7600FF" />
  <path d="M57.7703 41.0229V40.3925H58.4007V41.0229H57.7703Z" fill="#7600FF" />
  <path d="M57.7703 40.2671V39.6367H58.4007V40.2671H57.7703Z" fill="#7600FF" />
  <path d="M57.7703 39.5103V38.8798H58.4007V39.5103H57.7703Z" fill="#FF00DA" />
  <path d="M57.4551 38.7544V38.124H58.0855V38.7544H57.4551Z" fill="#FF0075" />
  <path d="M57.7703 37.9976V37.3671H58.4007V37.9976H57.7703Z" fill="#38E9FE" />
  <path d="M57.7703 37.241V36.6105H58.4007V37.241H57.7703Z" fill="#0E00FF" />
  <path d="M57.7703 36.4841V35.8537H58.4007V36.4841H57.7703Z" fill="#0E00FF" />
  <path d="M57.7703 35.7273V35.0969H58.4007V35.7273H57.7703Z" fill="#0E00FF" />
  <path d="M57.0134 34.9714V34.341H57.6439V34.9714H57.0134Z" fill="#0E00FF" />
  <path d="M60.7961 33.458V32.8276H61.4266V33.458H60.7961Z" fill="#7600FF" />
  <path d="M57.7703 33.458V32.8276H58.4007V33.458H57.7703Z" fill="#7600FF" />
  <path d="M60.2288 29.6758V29.0453H60.8592V29.6758H60.2288Z" fill="#7600FF" />
  <path d="M58.4006 28.9189V28.2885H59.0311V28.9189H58.4006Z" fill="#FF00DA" />
  <path d="M59.283 31.1892V30.5588H59.9134V31.1892H59.283Z" fill="#FF0075" />
  <path d="M60.6072 52.3718V51.7414H61.2376V52.3718H60.6072Z" fill="#38E9FE" />
  <path d="M60.2917 51.615V50.9846H60.9222V51.615H60.2917Z" fill="#0E00FF" />
  <path d="M58.5266 50.1016V49.4711H59.1571V50.1016H58.5266Z" fill="#0E00FF" />
  <path d="M58.5266 49.3457V48.7153H59.1571V49.3457H58.5266Z" fill="#0E00FF" />
  <path d="M58.5266 48.5898V47.9594H59.1571V48.5898H58.5266Z" fill="#0E00FF" />
  <path d="M58.5266 47.833V47.2026H59.1571V47.833H58.5266Z" fill="#7600FF" />
  <path d="M58.5266 47.0762V46.4457H59.1571V47.0762H58.5266Z" fill="#7600FF" />
  <path d="M58.5266 46.3193V45.6889H59.1571V46.3193H58.5266Z" fill="#7600FF" />
  <path d="M58.5266 45.5627V44.9323H59.1571V45.5627H58.5266Z" fill="#FF00DA" />
  <path d="M58.5266 44.8069V44.1764H59.1571V44.8069H58.5266Z" fill="#FF0075" />
  <path d="M58.5266 44.05V43.4196H59.1571V44.05H58.5266Z" fill="#7600FF" />
  <path d="M58.5266 43.2932V42.6628H59.1571V43.2932H58.5266Z" fill="#7600FF" />
  <path d="M58.5266 42.5364V41.9059H59.1571V42.5364H58.5266Z" fill="#FF00DA" />
  <path d="M58.5266 41.7798V41.1493H59.1571V41.7798H58.5266Z" fill="#FF0075" />
  <path d="M58.5266 41.0229V40.3925H59.1571V41.0229H58.5266Z" fill="#38E9FE" />
  <path d="M58.5266 40.2671V39.6367H59.1571V40.2671H58.5266Z" fill="#0E00FF" />
  <path d="M58.5266 39.5103V38.8798H59.1571V39.5103H58.5266Z" fill="#0E00FF" />
  <path d="M58.5266 38.7544V38.124H59.1571V38.7544H58.5266Z" fill="#0E00FF" />
  <path d="M58.5266 37.9976V37.3671H59.1571V37.9976H58.5266Z" fill="#0E00FF" />
  <path d="M58.5266 37.241V36.6105H59.1571V37.241H58.5266Z" fill="#7600FF" />
  <path d="M58.5266 36.4841V35.8537H59.1571V36.4841H58.5266Z" fill="#7600FF" />
  <path d="M58.5266 35.7273V35.0969H59.1571V35.7273H58.5266Z" fill="#7600FF" />
  <path d="M58.5266 34.9714V34.341H59.1571V34.9714H58.5266Z" fill="#FF00DA" />
  <path d="M58.5266 34.2146V33.5842H59.1571V34.2146H58.5266Z" fill="#FF0075" />
  <path d="M58.5266 33.458V32.8276H59.1571V33.458H58.5266Z" fill="#38E9FE" />
  <path d="M58.5266 32.7019V32.0715H59.1571V32.7019H58.5266Z" fill="#0E00FF" />
  <path d="M58.5266 31.9453V31.3149H59.1571V31.9453H58.5266Z" fill="#0E00FF" />
  <path d="M58.8418 29.6758V29.0453H59.4722V29.6758H58.8418Z" fill="#0E00FF" />
  <path d="M58.9678 53.1277V52.4972H59.5982V53.1277H58.9678Z" fill="#0E00FF" />
  <path d="M58.9678 52.3718V51.7414H59.5982V52.3718H58.9678Z" fill="#7600FF" />
  <path d="M60.0398 50.8584V50.228H60.6702V50.8584H60.0398Z" fill="#7600FF" />
  <path d="M59.2776 50.0896V49.4592H59.908V50.0896H59.2776Z" fill="#7600FF" />
  <path d="M59.283 49.3457V48.7153H59.9134V49.3457H59.283Z" fill="#FF00DA" />
  <path d="M57.0134 51.615V50.9846H57.6439V51.615H57.0134Z" fill="#FF0075" />
  <path d="M57.7703 51.615V50.9846H58.4007V51.615H57.7703Z" fill="#FF00DA" />
  <path d="M57.7703 50.8584V50.228H58.4007V50.8584H57.7703Z" fill="#FF0075" />
  <path d="M58.5212 51.6023V50.9719H59.1517V51.6023H58.5212Z" fill="#38E9FE" />
  <path d="M58.5266 50.8584V50.228H59.1571V50.8584H58.5266Z" fill="#0E00FF" />
  <path d="M59.283 48.5898V47.9594H59.9134V48.5898H59.283Z" fill="#0E00FF" />
  <path d="M59.283 47.833V47.2026H59.9134V47.833H59.283Z" fill="#0E00FF" />
  <path d="M60.355 47.0762V46.4457H60.9854V47.0762H60.355Z" fill="#0E00FF" />
  <path d="M59.5986 46.3193V45.6889H60.2291V46.3193H59.5986Z" fill="#7600FF" />
  <path d="M59.283 45.5627V44.9323H59.9134V45.5627H59.283Z" fill="#7600FF" />
  <path d="M59.5986 44.8069V44.1764H60.2291V44.8069H59.5986Z" fill="#7600FF" />
  <path d="M60.0398 37.9976V37.3671H60.6702V37.9976H60.0398Z" fill="#FF00DA" />
  <path d="M59.5986 44.05V43.4196H60.2291V44.05H59.5986Z" fill="#FF0075" />
  <path d="M59.283 43.2932V42.6628H59.9134V43.2932H59.283Z" fill="#38E9FE" />
  <path d="M60.0398 43.2932V42.6628H60.6702V43.2932H60.0398Z" fill="#0E00FF" />
  <path d="M60.9851 42.4741V41.8437H61.6155V42.4741H60.9851Z" fill="#0E00FF" />
  <path d="M60.6702 45.1848V44.5544H61.3006V45.1848H60.6702Z" fill="#FF00DA" />
  <path d="M59.5986 41.7798V41.1493H60.2291V41.7798H59.5986Z" fill="#0E00FF" />
  <path d="M59.5986 41.0229V40.3925H60.2291V41.0229H59.5986Z" fill="#7600FF" />
  <path d="M60.355 40.2671V39.6367H60.9854V40.2671H60.355Z" fill="#7600FF" />
  <path d="M60.355 41.0229V40.3925H60.9854V41.0229H60.355Z" fill="#7600FF" />
  <path d="M59.283 39.5103V38.8798H59.9134V39.5103H59.283Z" fill="#FF00DA" />
  <path d="M59.5986 38.7544V38.124H60.2291V38.7544H59.5986Z" fill="#FF0075" />
  <path d="M59.283 37.9976V37.3671H59.9134V37.9976H59.283Z" fill="#38E9FE" />
  <path d="M59.283 37.241V36.6105H59.9134V37.241H59.283Z" fill="#0E00FF" />
  <path d="M59.283 36.4841V35.8537H59.9134V36.4841H59.283Z" fill="#0E00FF" />
  <path d="M59.5986 35.7273V35.0969H60.2291V35.7273H59.5986Z" fill="#0E00FF" />
  <path d="M59.9138 34.9714V34.341H60.5443V34.9714H59.9138Z" fill="#0E00FF" />
  <path d="M59.5986 28.9189V28.2885H60.2291V28.9189H59.5986Z" fill="#7600FF" />
  <path d="M59.283 34.2146V33.5842H59.9134V34.2146H59.283Z" fill="#7600FF" />
  <path d="M59.283 33.458V32.8276H59.9134V33.458H59.283Z" fill="#7600FF" />
  <path d="M59.283 32.7019V32.0715H59.9134V32.7019H59.283Z" fill="#FF00DA" />
  <path d="M59.283 30.4326V29.8022H59.9134V30.4326H59.283Z" fill="#FF0075" />
  <path d="M60.0398 32.7019V32.0715H60.6702V32.7019H60.0398Z" fill="#38E9FE" />
  <path d="M60.0398 31.9453V31.3149H60.6702V31.9453H60.0398Z" fill="#0E00FF" />
  <path d="M19.8806 29.4236H20.5111V30.054H19.8806V29.4236Z" fill="#0E00FF" />
  <path d="M20.6375 28.6677H21.2679V29.2982H20.6375V28.6677Z" fill="#0E00FF" />
  <path d="M21.3938 29.7383H22.0242V30.3687H21.3938V29.7383Z" fill="#0E00FF" />
  <path d="M20.6375 30.4949H21.2679V31.1253H20.6375V30.4949Z" fill="#7600FF" />
  <path d="M21.3938 30.4949H22.0242V31.1253H21.3938V30.4949Z" fill="#7600FF" />
  <path d="M22.1504 30.4949H22.7808V31.1253H22.1504V30.4949Z" fill="#7600FF" />
  <path d="M21.3938 31.2517H22.0242V31.8821H21.3938V31.2517Z" fill="#FF00DA" />
  <path d="M22.1504 31.2517H22.7808V31.8821H22.1504V31.2517Z" fill="#FF0075" />
  <defs>
    <filter id="filter0_f" x="35.2435" y="0.471726" width="9.72311" height="38.308" filterUnits="userSpaceOnUse"
      color-interpolation-filters="sRGB">
      <feFlood flood-opacity="0" result="BackgroundImageFix" />
      <feBlend mode="normal" in="SourceGraphic" in2="BackgroundImageFix" result="shape" />
      <feGaussianBlur stdDeviation="1.50315" result="effect1_foregroundBlur" />
    </filter>
    <filter id="filter1_d" x="0.00860643" y="6.27396" width="68.514" height="97.4661" filterUnits="userSpaceOnUse"
      color-interpolation-filters="sRGB">
      <feFlood flood-opacity="0" result="BackgroundImageFix" />
      <feColorMatrix in="SourceAlpha" type="matrix" values="0 0 0 0 0 0 0 0 0 0 0 0 0 0 0 0 0 0 127 0" />
      <feOffset dx="-6.0126" dy="12.0252" />
      <feGaussianBlur stdDeviation="15.0315" />
      <feColorMatrix type="matrix" values="0 0 0 0 0 0 0 0 0 0.212167 0 0 0 0 0.279167 0 0 0 0.1 0" />
      <feBlend mode="normal" in2="BackgroundImageFix" result="effect1_dropShadow" />
      <feBlend mode="normal" in="SourceGraphic" in2="effect1_dropShadow" result="shape" />
    </filter>
  </defs>
</svg>