<svg width="232" height="408" viewBox="0 0 232 408" fill="none" xmlns="http://www.w3.org/2000/svg">
  <mask id="mask0" mask-type="alpha" maskUnits="userSpaceOnUse" x="0" y="0" width="232" height="408">
    <path d="M232 408V0H22.5L0 22.5V408H232Z" fill="#222121" />
  </mask>
  <g mask="url(#mask0)">
    <path
      d="M232.607 361.809L247 347.209V288.809L232.607 274H130.393L116 288.809V317.8H145.204V303.2H218.005V332.609H173.99L159.389 347.209V376.409H188.592V361.809H232.607ZM159.597 420H188.801V390.8H159.597V420Z"
      fill="#FF00DA" />
    <path
      d="M68.0557 355.071L73 350.071V330.071L68.0557 325H32.9443L28 330.071V340H38.0318V335H63.0398V345.071H47.9204L42.9045 350.071V360.071H52.9363V355.071H68.0557ZM42.9761 375H53.008V365H42.9761V375Z"
      fill="#CC00AE" />
    <path
      d="M25.1322 269.826L27 268.026V260.826L25.1322 259H11.8678L10 260.826V264.4H13.7898V262.6H23.2373V266.226H17.5255L15.6306 268.026V271.626H19.4204V269.826H25.1322ZM15.6576 277H19.4475V273.4H15.6576V277Z"
      fill="#660057" />
    <path
      d="M174.924 114.441L178 111.541V99.9414L174.924 97H153.076L150 99.9414V105.7H156.242V102.8H171.803V108.641H162.395L159.274 111.541V117.341H165.516V114.441H174.924ZM159.318 126H165.561V120.2H159.318V126Z"
      fill="#990083" />
    <path
      d="M220.011 16.0143L221 15.0143V11.0143L220.011 10H212.989L212 11.0143V13H214.006V12H219.008V14.0143H215.984L214.981 15.0143V17.0143H216.987V16.0143H220.011ZM214.995 20H217.002V18H214.995V20Z"
      fill="#660057" />
  </g>
</svg>