<svg width="600" height="682" viewBox="0 0 600 620" fill="none" xmlns="http://www.w3.org/2000/svg">
  <path
    d="M472.621 215H133.606C127.316 215 121.623 217.555 117.508 221.685L75.5 264.978V265C79.6106 260.904 83.2382 260.455 89.5 260.455H510.5C515.816 260.455 521.57 262.573 525.441 265.631L488.664 221.629C484.553 217.532 478.883 215 472.621 215Z"
    fill="#2F0066" />
  <rect x="73" y="260.454" width="454.546" height="300" rx="12" fill="#470099" />
  <path
    d="M43.9252 372.365C64.1121 333.481 124.611 311.92 148.598 306H300H451.402C475.389 311.92 535.888 333.481 556.075 372.365C576.262 411.249 593.769 554.323 600 621H300H0C6.23053 554.323 23.7383 411.249 43.9252 372.365Z"
    fill="#7600FF" />
  <path
    d="M141 445L140 444.991V445H141ZM99.8784 324.129C99.3971 323.858 98.7873 324.028 98.5164 324.509C98.2455 324.991 98.416 325.6 98.8973 325.871L99.8784 324.129ZM140 445V620.5H142V445H140ZM98.8973 325.871C114.878 334.868 140.729 367.715 140 444.991L142 445.009C142.732 367.374 116.762 333.633 99.8784 324.129L98.8973 325.871Z"
    fill="#2F0066" />
  <path
    d="M141 620.5V445C141.752 365.326 114.314 332.379 98 324.264L127.669 310.849C144.002 319.106 171.249 352.1 170.5 431.5V620.5H141Z"
    fill="#470099" />
  <path
    d="M459 445.001L460 444.992V445.001H459ZM500.122 324.13C500.603 323.859 501.213 324.03 501.484 324.511C501.755 324.992 501.584 325.602 501.103 325.873L500.122 324.13ZM460 445.001V620.501H458V445.001H460ZM501.103 325.873C485.122 334.869 459.271 367.716 460 444.992L458 445.011C457.268 367.376 483.238 333.634 500.122 324.13L501.103 325.873Z"
    fill="#2F0066" />
  <path
    d="M459 620.502V445.002C458.248 365.327 485.686 332.381 502 324.266L472.331 310.85C455.998 319.108 428.751 352.101 429.5 431.502V620.502H459Z"
    fill="#470099" />
  <rect x="211" y="328" width="14" height="40" fill="#470099" />
  <rect x="375" y="328" width="14" height="40" fill="#470099" />
  <path
    d="M388 364H212C208.679 364 205.673 365.349 203.5 367.529L183.529 391.5C185.7 389.337 188.694 388 192 388H408C411.584 388 414.801 389.571 417 392.063L396.471 367.5C394.3 365.337 391.306 364 388 364Z"
    fill="#470099" />
  <rect x="180" y="388" width="240" height="240" rx="12" fill="#5E00CC" />
  <path
    d="M199 597C199 603.627 204.373 609 211 609H252L264 597H336L348 609H389C395.627 609 401 603.627 401 597V556L389 544V472L401 460V419C401 412.373 395.627 407 389 407H348L336 419H264L252 407H211C204.373 407 199 412.373 199 419V460L211 472V544L199 556V597Z"
    fill="#2F0066" />
  <circle cx="300" cy="508" r="45" fill="#180033" />
  <circle cx="220" cy="428" r="8" fill="#180033" />
  <circle cx="380" cy="427" r="8" fill="#180033" />
  <path d="M138 282H462V306H138V282Z" fill="#9133FF" />
  <path
    d="M462 306C462 322.569 389.47 336 300 336C210.53 336 138 322.569 138 306C138 289.431 210.53 276 300 276C389.47 276 462 289.431 462 306Z"
    fill="#9133FF" />
  <ellipse cx="300" cy="282" rx="162" ry="30" fill="#7600FF" />
  <ellipse cx="300" cy="282" rx="150" ry="24" fill="#2F0066" />
  <path d="M205 198H395V282H205V198Z" fill="#7600FF" />
  <path
    d="M395 282C395 288.627 352.467 294 300 294C247.533 294 205 288.627 205 282C205 275.373 247.533 270 300 270C352.467 270 395 275.373 395 282Z"
    fill="#7600FF" />
  <circle cx="103" cy="298" r="12" fill="#180033" />
  <circle cx="497" cy="298" r="12" fill="#180033" />
  <path d="M147.974 141C107.5 141 53.5 220.5 101.5 296.5" stroke="#5E00CC" stroke-width="16" stroke-linecap="round" />
  <path d="M452 141C492.474 141 546.474 220.5 498.474 296.5" stroke="#5E00CC" stroke-width="16"
    stroke-linecap="round" />
  <rect x="139" y="119" width="16" height="48" rx="3" fill="#470099" />
  <rect x="445" y="119" width="16" height="48" rx="3" fill="#470099" />
  <circle cx="300" cy="140" r="140" fill="#7600FF" />
  <path
    d="M300 28C256.371 28 216.159 35.1992 184 47.3156C147 73 147.4 105.2 147 138C147.4 170.8 147 203 184 228.684C216.159 240.801 256.371 248 300 248C343.629 248 383.841 240.801 416 228.684C453 203 452.6 170.8 453 138C452.6 105.2 453 73 416 47.3156C383.841 35.1992 343.629 28 300 28Z"
    fill="#5E00CC" />
  <path
    d="M300 280C377.32 280 440 217.32 440 140C440 108.908 429.865 80.184 412.718 56.9505C381.124 46.2926 342.157 40 300 40C257.843 40 218.876 46.2926 187.282 56.9505C170.135 80.184 160 108.908 160 140C160 217.32 222.68 280 300 280Z"
    fill="#2F0066" />
  <path
    d="M300 268C370.692 268 428 210.692 428 140C428 112.604 419.393 87.2177 404.736 66.3985C374.661 57.2955 338.673 52 300 52C261.327 52 225.339 57.2955 195.264 66.3985C180.607 87.2177 172 112.604 172 140C172 210.692 229.308 268 300 268Z"
    fill="url(#paint0_linear_spaceman)" />
  <path
    d="M300 268C370.692 268 428 210.692 428 140C428 112.604 419.393 87.2177 404.736 66.3985C374.661 57.2955 338.673 52 300 52C261.327 52 225.339 57.2955 195.264 66.3985C180.607 87.2177 172 112.604 172 140C172 210.692 229.308 268 300 268Z"
    fill="url(#paint1_linear_spaceman)" style="mix-blend-mode:color" />
  <path
    d="M292.943 117.097C292.943 117.846 292.241 118.453 291.375 118.453C290.509 118.453 289.806 117.846 289.806 117.097C289.806 116.348 290.509 115.741 291.375 115.741C292.241 115.741 292.943 116.348 292.943 117.097Z"
    fill="#01E3FE" />
  <path
    d="M252.167 81.8371C252.167 82.586 251.465 83.1932 250.599 83.1932C249.733 83.1932 249.03 82.586 249.03 81.8371C249.03 81.0881 249.733 80.4809 250.599 80.4809C251.465 80.4809 252.167 81.0881 252.167 81.8371Z"
    fill="#01E3FE" />
  <path
    d="M355.676 214.74C355.676 215.489 354.973 216.096 354.107 216.096C353.241 216.096 352.539 215.489 352.539 214.74C352.539 213.991 353.241 213.383 354.107 213.383C354.973 213.383 355.676 213.991 355.676 214.74Z"
    fill="#01E3FE" />
  <path
    d="M236.484 100.823C236.484 101.572 235.782 102.179 234.915 102.179C234.049 102.179 233.347 101.572 233.347 100.823C233.347 100.074 234.049 99.4669 234.915 99.4669C235.782 99.4669 236.484 100.074 236.484 100.823Z"
    fill="#01E3FE" />
  <path
    d="M311.933 217.998C311.933 217.551 312.339 217.188 312.839 217.188C313.34 217.188 313.746 217.551 313.746 217.998C313.746 218.445 313.34 218.808 312.839 218.808C312.339 218.808 311.933 218.445 311.933 217.998Z"
    fill="#01E3FE" />
  <path
    d="M221.294 203.42C221.294 202.972 221.7 202.61 222.2 202.61C222.701 202.61 223.107 202.972 223.107 203.42C223.107 203.867 222.701 204.229 222.2 204.229C221.7 204.229 221.294 203.867 221.294 203.42Z"
    fill="#01E3FE" />
  <path
    d="M268.427 130.526C268.427 130.079 268.833 129.716 269.333 129.716C269.834 129.716 270.239 130.079 270.239 130.526C270.239 130.973 269.834 131.336 269.333 131.336C268.833 131.336 268.427 130.973 268.427 130.526Z"
    fill="#01E3FE" />
  <path
    d="M359.064 119.188C359.064 118.74 359.47 118.378 359.97 118.378C360.471 118.378 360.877 118.74 360.877 119.188C360.877 119.635 360.471 119.998 359.97 119.998C359.47 119.998 359.064 119.635 359.064 119.188Z"
    fill="#01E3FE" />
  <path
    d="M255.303 181.571C255.303 181.123 255.709 180.761 256.209 180.761C256.71 180.761 257.116 181.123 257.116 181.571C257.116 182.018 256.71 182.381 256.209 182.381C255.709 182.381 255.303 182.018 255.303 181.571Z"
    fill="#01E3FE" />
  <path
    d="M298.809 165.373C298.809 164.926 299.215 164.563 299.715 164.563C300.216 164.563 300.622 164.926 300.622 165.373C300.622 165.82 300.216 166.183 299.715 166.183C299.215 166.183 298.809 165.82 298.809 165.373Z"
    fill="#01E3FE" />
  <path
    d="M349.895 197.995C349.895 197.548 350.301 197.185 350.802 197.185C351.302 197.185 351.708 197.548 351.708 197.995C351.708 198.442 351.302 198.805 350.802 198.805C350.301 198.805 349.895 198.442 349.895 197.995Z"
    fill="#01E3FE" />
  <path
    d="M397.028 125.102C397.028 124.654 397.434 124.292 397.935 124.292C398.435 124.292 398.841 124.654 398.841 125.102C398.841 125.549 398.435 125.911 397.935 125.911C397.434 125.911 397.028 125.549 397.028 125.102Z"
    fill="#01E3FE" />
  <path
    d="M264.696 105.662C264.696 105.214 265.102 104.852 265.602 104.852C266.103 104.852 266.509 105.214 266.509 105.662C266.509 106.109 266.103 106.472 265.602 106.472C265.102 106.472 264.696 106.109 264.696 105.662Z"
    fill="#01E3FE" />
  <path
    d="M288.261 126.721C288.261 126.274 288.667 125.911 289.168 125.911C289.668 125.911 290.074 126.274 290.074 126.721C290.074 127.169 289.668 127.531 289.168 127.531C288.667 127.531 288.261 127.169 288.261 126.721Z"
    fill="#01E3FE" />
  <path
    d="M271.947 147.779C271.947 147.332 272.353 146.969 272.854 146.969C273.354 146.969 273.76 147.332 273.76 147.779C273.76 148.226 273.354 148.589 272.854 148.589C272.353 148.589 271.947 148.226 271.947 147.779Z"
    fill="#01E3FE" />
  <path
    d="M297.325 115.383C297.325 114.936 297.731 114.573 298.232 114.573C298.732 114.573 299.138 114.936 299.138 115.383C299.138 115.83 298.732 116.193 298.232 116.193C297.731 116.193 297.325 115.83 297.325 115.383Z"
    fill="#01E3FE" />
  <path
    d="M393.809 94.9272C393.809 94.4799 394.215 94.1173 394.715 94.1173C395.216 94.1173 395.622 94.4799 395.622 94.9272C395.622 95.3745 395.216 95.7371 394.715 95.7371C394.215 95.7371 393.809 95.3745 393.809 94.9272Z"
    fill="#01E3FE" />
  <path
    d="M323.098 76.5505C323.098 76.2814 323.342 76.0633 323.644 76.0633C323.945 76.0633 324.189 76.2814 324.189 76.5505C324.189 76.8195 323.945 77.0376 323.644 77.0376C323.342 77.0376 323.098 76.8195 323.098 76.5505Z"
    fill="#01E3FE" />
  <path
    d="M268.578 67.7814C268.578 67.5123 268.822 67.2942 269.123 67.2942C269.424 67.2942 269.668 67.5123 269.668 67.7814C269.668 68.0504 269.424 68.2686 269.123 68.2686C268.822 68.2686 268.578 68.0504 268.578 67.7814Z"
    fill="#01E3FE" />
  <path
    d="M374.161 155.994C374.161 155.725 374.405 155.506 374.706 155.506C375.007 155.506 375.251 155.725 375.251 155.994C375.251 156.263 375.007 156.481 374.706 156.481C374.405 156.481 374.161 156.263 374.161 155.994Z"
    fill="#01E3FE" />
  <path
    d="M388.335 168.662C388.335 168.393 388.579 168.175 388.88 168.175C389.181 168.175 389.425 168.393 389.425 168.662C389.425 168.931 389.181 169.149 388.88 169.149C388.579 169.149 388.335 168.931 388.335 168.662Z"
    fill="#01E3FE" />
  <path
    d="M378.521 181.329C378.521 181.06 378.765 180.842 379.067 180.842C379.368 180.842 379.612 181.06 379.612 181.329C379.612 181.598 379.368 181.817 379.067 181.817C378.765 181.817 378.521 181.598 378.521 181.329Z"
    fill="#01E3FE" />
  <path
    d="M328.362 137.48C328.362 137.211 328.606 136.993 328.907 136.993C329.208 136.993 329.452 137.211 329.452 137.48C329.452 137.749 329.208 137.967 328.907 137.967C328.606 137.967 328.362 137.749 328.362 137.48Z"
    fill="#01E3FE" />
  <path
    d="M318.548 147.225C318.548 146.956 318.792 146.738 319.093 146.738C319.395 146.738 319.639 146.956 319.639 147.225C319.639 147.494 319.395 147.712 319.093 147.712C318.792 147.712 318.548 147.494 318.548 147.225Z"
    fill="#01E3FE" />
  <path
    d="M298.921 131.636C298.921 131.366 299.165 131.148 299.466 131.148C299.767 131.148 300.011 131.366 300.011 131.636C300.011 131.905 299.767 132.123 299.466 132.123C299.165 132.123 298.921 131.905 298.921 131.636Z"
    fill="#01E3FE" />
  <path
    d="M255.304 90.7108C255.304 90.4417 255.548 90.2236 255.849 90.2236C256.151 90.2236 256.395 90.4417 256.395 90.7108C256.395 90.9798 256.151 91.1979 255.849 91.1979C255.548 91.1979 255.304 90.9798 255.304 90.7108Z"
    fill="#01E3FE" />
  <path
    d="M281.474 80.9685C281.474 80.6995 281.718 80.4813 282.019 80.4813C282.32 80.4813 282.564 80.6995 282.564 80.9685C282.564 81.2376 282.32 81.4557 282.019 81.4557C281.718 81.4557 281.474 81.2376 281.474 80.9685Z"
    fill="#01E3FE" />
  <path
    d="M352.352 120.918C352.352 120.649 352.596 120.43 352.897 120.43C353.198 120.43 353.442 120.649 353.442 120.918C353.442 121.187 353.198 121.405 352.897 121.405C352.596 121.405 352.352 121.187 352.352 120.918Z"
    fill="#01E3FE" />
  <path
    d="M393.787 161.843C393.787 161.574 394.031 161.356 394.332 161.356C394.633 161.356 394.877 161.574 394.877 161.843C394.877 162.112 394.633 162.33 394.332 162.33C394.031 162.33 393.787 162.112 393.787 161.843Z"
    fill="#01E3FE" />
  <path
    d="M412.647 98.4025C412.647 98.1334 412.891 97.9153 413.192 97.9153C413.493 97.9153 413.737 98.1334 413.737 98.4025C413.737 98.6716 413.493 98.8897 413.192 98.8897C412.891 98.8897 412.647 98.6716 412.647 98.4025Z"
    fill="#01E3FE" />
  <path
    d="M393.02 82.8115C393.02 82.5424 393.264 82.3243 393.565 82.3243C393.866 82.3243 394.11 82.5424 394.11 82.8115C394.11 83.0805 393.866 83.2987 393.565 83.2987C393.264 83.2987 393.02 83.0805 393.02 82.8115Z"
    fill="#01E3FE" />
  <path
    d="M402.726 125.97C402.726 125.701 402.97 125.483 403.271 125.483C403.572 125.483 403.816 125.701 403.816 125.97C403.816 126.239 403.572 126.457 403.271 126.457C402.97 126.457 402.726 126.239 402.726 125.97Z"
    fill="#01E3FE" />
  <path
    d="M323.098 157.919C323.098 157.65 323.342 157.432 323.644 157.432C323.945 157.432 324.189 157.65 324.189 157.919C324.189 158.189 323.945 158.407 323.644 158.407C323.342 158.407 323.098 158.189 323.098 157.919Z"
    fill="#01E3FE" />
  <path
    d="M268.577 149.15C268.577 148.88 268.821 148.662 269.122 148.662C269.423 148.662 269.667 148.88 269.667 149.15C269.667 149.419 269.423 149.637 269.122 149.637C268.821 149.637 268.577 149.419 268.577 149.15Z"
    fill="#01E3FE" />
  <path
    d="M296.929 105.303C296.929 105.034 297.173 104.816 297.474 104.816C297.775 104.816 298.02 105.034 298.02 105.303C298.02 105.572 297.775 105.79 297.474 105.79C297.173 105.79 296.929 105.572 296.929 105.303Z"
    fill="#01E3FE" />
  <path
    d="M217.328 93.6102C217.328 93.3411 217.572 93.123 217.873 93.123C218.174 93.123 218.418 93.3411 218.418 93.6102C218.418 93.8793 218.174 94.0974 217.873 94.0974C217.572 94.0974 217.328 93.8793 217.328 93.6102Z"
    fill="#01E3FE" />
  <path
    d="M231.503 106.278C231.503 106.009 231.747 105.791 232.048 105.791C232.349 105.791 232.593 106.009 232.593 106.278C232.593 106.547 232.349 106.765 232.048 106.765C231.747 106.765 231.503 106.547 231.503 106.278Z"
    fill="#01E3FE" />
  <path
    d="M221.689 118.945C221.689 118.676 221.934 118.458 222.235 118.458C222.536 118.458 222.78 118.676 222.78 118.945C222.78 119.214 222.536 119.432 222.235 119.432C221.934 119.432 221.689 119.214 221.689 118.945Z"
    fill="#01E3FE" />
  <path
    d="M236.955 99.4578C236.955 99.1887 237.199 98.9706 237.5 98.9706C237.801 98.9706 238.045 99.1887 238.045 99.4578C238.045 99.7269 237.801 99.945 237.5 99.945C237.199 99.945 236.955 99.7269 236.955 99.4578Z"
    fill="#01E3FE" />
  <path
    d="M351.45 98.4826C351.45 98.2135 351.694 97.9954 351.995 97.9954C352.296 97.9954 352.54 98.2135 352.54 98.4826C352.54 98.7516 352.296 98.9698 351.995 98.9698C351.694 98.9698 351.45 98.7516 351.45 98.4826Z"
    fill="#01E3FE" />
  <path
    d="M197.632 92.8244C197.632 92.5553 197.877 92.3372 198.178 92.3372C198.479 92.3372 198.723 92.5553 198.723 92.8244C198.723 93.0935 198.479 93.3116 198.178 93.3116C197.877 93.3116 197.632 93.0935 197.632 92.8244Z"
    fill="#01E3FE" />
  <path
    d="M221.649 189.384C221.649 189.115 221.893 188.897 222.194 188.897C222.495 188.897 222.739 189.115 222.739 189.384C222.739 189.653 222.495 189.872 222.194 189.872C221.893 189.872 221.649 189.653 221.649 189.384Z"
    fill="#01E3FE" />
  <path
    d="M276.169 182.562C276.169 182.293 276.414 182.075 276.715 182.075C277.016 182.075 277.26 182.293 277.26 182.562C277.26 182.831 277.016 183.049 276.715 183.049C276.414 183.049 276.169 182.831 276.169 182.562Z"
    fill="#01E3FE" />
  <path
    d="M330.248 240.073C330.248 239.804 330.492 239.586 330.793 239.586C331.094 239.586 331.338 239.804 331.338 240.073C331.338 240.342 331.094 240.56 330.793 240.56C330.492 240.56 330.248 240.342 330.248 240.073Z"
    fill="#01E3FE" />
  <path
    d="M284.449 221.56C284.449 221.291 284.693 221.072 284.995 221.072C285.296 221.072 285.54 221.291 285.54 221.56C285.54 221.829 285.296 222.047 284.995 222.047C284.693 222.047 284.449 221.829 284.449 221.56Z"
    fill="#01E3FE" />
  <path
    d="M274.635 231.304C274.635 231.035 274.879 230.817 275.18 230.817C275.481 230.817 275.725 231.035 275.725 231.304C275.725 231.573 275.481 231.792 275.18 231.792C274.879 231.792 274.635 231.573 274.635 231.304Z"
    fill="#01E3FE" />
  <path
    d="M255.007 215.713C255.007 215.444 255.251 215.226 255.552 215.226C255.853 215.226 256.097 215.444 256.097 215.713C256.097 215.982 255.853 216.201 255.552 216.201C255.251 216.201 255.007 215.982 255.007 215.713Z"
    fill="#01E3FE" />
  <path
    d="M211.391 174.791C211.391 174.522 211.635 174.304 211.936 174.304C212.237 174.304 212.481 174.522 212.481 174.791C212.481 175.06 212.237 175.278 211.936 175.278C211.635 175.278 211.391 175.06 211.391 174.791Z"
    fill="#01E3FE" />
  <path
    d="M237.561 165.048C237.561 164.779 237.805 164.561 238.106 164.561C238.407 164.561 238.651 164.779 238.651 165.048C238.651 165.317 238.407 165.535 238.106 165.535C237.805 165.535 237.561 165.317 237.561 165.048Z"
    fill="#01E3FE" />
  <path
    d="M308.439 204.995C308.439 204.726 308.683 204.508 308.984 204.508C309.285 204.508 309.529 204.726 309.529 204.995C309.529 205.265 309.285 205.483 308.984 205.483C308.683 205.483 308.439 205.265 308.439 204.995Z"
    fill="#01E3FE" />
  <path
    d="M390.179 128.684C390.179 128.415 390.423 128.196 390.725 128.196C391.026 128.196 391.27 128.415 391.27 128.684C391.27 128.953 391.026 129.171 390.725 129.171C390.423 129.171 390.179 128.953 390.179 128.684Z"
    fill="#01E3FE" />
  <path
    d="M416.35 118.94C416.35 118.671 416.594 118.453 416.895 118.453C417.196 118.453 417.44 118.671 417.44 118.94C417.44 119.209 417.196 119.427 416.895 119.427C416.594 119.427 416.35 119.209 416.35 118.94Z"
    fill="#01E3FE" />
  <path
    d="M315.814 218.847C315.814 218.578 316.058 218.36 316.36 218.36C316.661 218.36 316.905 218.578 316.905 218.847C316.905 219.116 316.661 219.335 316.36 219.335C316.058 219.335 315.814 219.116 315.814 218.847Z"
    fill="#01E3FE" />
  <path
    d="M306.002 228.592C306.002 228.323 306.246 228.105 306.547 228.105C306.848 228.105 307.092 228.323 307.092 228.592C307.092 228.861 306.848 229.079 306.547 229.079C306.246 229.079 306.002 228.861 306.002 228.592Z"
    fill="#01E3FE" />
  <path
    d="M286.374 213.002C286.374 212.733 286.618 212.515 286.92 212.515C287.221 212.515 287.465 212.733 287.465 213.002C287.465 213.271 287.221 213.49 286.92 213.49C286.618 213.49 286.374 213.271 286.374 213.002Z"
    fill="#01E3FE" />
  <path
    d="M242.758 172.079C242.758 171.81 243.002 171.592 243.303 171.592C243.604 171.592 243.848 171.81 243.848 172.079C243.848 172.348 243.604 172.566 243.303 172.566C243.002 172.566 242.758 172.348 242.758 172.079Z"
    fill="#01E3FE" />
  <path
    d="M268.927 162.335C268.927 162.066 269.171 161.848 269.472 161.848C269.774 161.848 270.018 162.066 270.018 162.335C270.018 162.604 269.774 162.823 269.472 162.823C269.171 162.823 268.927 162.604 268.927 162.335Z"
    fill="#01E3FE" />
  <path
    d="M339.804 202.284C339.804 202.015 340.048 201.797 340.349 201.797C340.65 201.797 340.894 202.015 340.894 202.284C340.894 202.554 340.65 202.772 340.349 202.772C340.048 202.772 339.804 202.554 339.804 202.284Z"
    fill="#01E3FE" />
  <path
    d="M235.272 130.796C235.272 130.527 235.516 130.309 235.817 130.309C236.118 130.309 236.362 130.527 236.362 130.796C236.362 131.065 236.118 131.283 235.817 131.283C235.516 131.283 235.272 131.065 235.272 130.796Z"
    fill="#01E3FE" />
  <path
    d="M180.751 122.028C180.751 121.758 180.995 121.54 181.296 121.54C181.597 121.54 181.842 121.758 181.842 122.028C181.842 122.297 181.597 122.515 181.296 122.515C180.995 122.515 180.751 122.297 180.751 122.028Z"
    fill="#01E3FE" />
  <path
    d="M209.102 78.18C209.102 77.9109 209.346 77.6928 209.647 77.6928C209.949 77.6928 210.193 77.9109 210.193 78.18C210.193 78.4491 209.949 78.6672 209.647 78.6672C209.346 78.6672 209.102 78.4491 209.102 78.18Z"
    fill="#01E3FE" />
  <path
    d="M263.623 71.3589C263.623 71.0898 263.867 70.8717 264.168 70.8717C264.469 70.8717 264.714 71.0898 264.714 71.3589C264.714 71.6279 264.469 71.8461 264.168 71.8461C263.867 71.8461 263.623 71.6279 263.623 71.3589Z"
    fill="#01E3FE" />
  <path
    d="M207.164 196.123C207.164 195.854 207.408 195.636 207.709 195.636C208.01 195.636 208.254 195.854 208.254 196.123C208.254 196.392 208.01 196.61 207.709 196.61C207.408 196.61 207.164 196.392 207.164 196.123Z"
    fill="#01E3FE" />
  <path
    d="M398.56 114.602C396.366 103.52 392.742 92.9535 387.887 83.1016H349.887C354.742 92.9535 358.366 103.52 360.56 114.602H398.56Z"
    fill="#E4CCFF" />
  <path d="M328.5 244C381.5 230.5 401 186 401 139.602H363C365.5 168.5 367.5 209 328.5 244Z" fill="#E4CCFF" />
  <defs>
    <linearGradient id="paint0_linear_spaceman" x1="422.144" y1="55.3927" x2="277.42" y2="324.66"
      gradientUnits="userSpaceOnUse">
      <stop stop-color="#373737" />
      <stop offset="0.4875" stop-color="#111111" />
      <stop offset="1" />
    </linearGradient>
    <linearGradient id="paint1_linear_spaceman" x1="322.529" y1="54.5569" x2="318.917" y2="267.224"
      gradientUnits="userSpaceOnUse">
      <stop stop-color="#FD00FF" />
      <stop offset="1" stop-color="#001AFF" />
    </linearGradient>
  </defs>
</svg>