<svg viewBox="0 0 467 678" fill="none" xmlns="http://www.w3.org/2000/svg">
  <g filter="url(#filter0_f_spaceship)">
    <path
      d="M228.402 261.21C235.506 267.216 236.397 277.843 230.392 284.947L-81.0434 627.281L204.665 263.2C210.67 256.096 221.298 255.205 228.402 261.21Z"
      fill="url(#paint0_linear_spaceship)" />
  </g>
  <path
    d="M228.402 261.21C235.506 267.216 236.397 277.843 230.392 284.947L-80.5904 626.745L204.665 263.2C210.67 256.096 221.298 255.205 228.402 261.21Z"
    fill="url(#paint1_linear_spaceship)" />
  <path opacity="0.7"
    d="M260.417 333.968C270.807 321.676 275.027 305.032 272.149 287.697C269.271 270.362 259.53 253.756 245.069 241.532C230.609 229.309 212.613 222.468 195.041 222.516C177.468 222.564 161.759 229.496 151.369 241.788L156.821 246.397C166.173 235.335 180.311 229.096 196.126 229.052C211.941 229.009 228.137 235.166 241.152 246.167C254.166 257.168 262.933 272.114 265.523 287.715C268.114 303.317 264.316 318.296 254.964 329.359L260.417 333.968Z"
    fill="#7600FF" />
  <g filter="url(#filter1_f_spaceship)">
    <g filter="url(#filter2_f_spaceship)">
      <ellipse cx="235.852" cy="252.437" rx="7.13942" ry="264.158" transform="rotate(40.2083 235.852 252.437)"
        fill="#7600FF" />
    </g>
    <g filter="url(#filter3_f_spaceship)">
      <ellipse cx="289.954" cy="293.497" rx="3.56971" ry="153.497" transform="rotate(40.2083 289.954 293.497)"
        fill="#7600FF" />
    </g>
    <g filter="url(#filter4_f_spaceship)">
      <ellipse cx="186.358" cy="205.926" rx="3.56971" ry="153.497" transform="rotate(40.2083 186.358 205.926)"
        fill="#7600FF" />
    </g>
  </g>
  <ellipse opacity="0.9" cx="235.852" cy="252.437" rx="14.2788" ry="221.322" transform="rotate(40.2083 235.852 252.437)"
    fill="#7600FF" />
  <ellipse cx="287.65" cy="296.222" rx="3.56971" ry="128.51" transform="rotate(40.2083 287.65 296.222)"
    fill="#7600FF" />
  <ellipse cx="184.054" cy="208.651" rx="3.56971" ry="128.51" transform="rotate(40.2083 184.054 208.651)"
    fill="#7600FF" />
  <g filter="url(#filter5_f_spaceship)">
    <ellipse cx="238.578" cy="254.741" rx="17.8485" ry="107.091" transform="rotate(40.2083 238.578 254.741)"
      fill="#7600FF" />
    <ellipse cx="235.852" cy="252.437" rx="42.8365" ry="85.673" transform="rotate(40.2083 235.852 252.437)"
      fill="#7600FF" />
    <ellipse cx="287.747" cy="291.63" rx="6.45947" ry="153.497" transform="rotate(40.2083 287.747 291.63)"
      fill="#7600FF" />
    <ellipse cx="194.018" cy="212.4" rx="6.45947" ry="153.497" transform="rotate(40.2083 194.018 212.4)"
      fill="#7600FF" />
  </g>
  <g opacity="0.8" filter="url(#filter6_f_spaceship)">
    <ellipse cx="238.156" cy="249.711" rx="28.5577" ry="103.522" transform="rotate(40.2083 238.156 249.711)"
      fill="#7600FF" />
    <ellipse cx="294.727" cy="287.849" rx="10.7091" ry="36.972" transform="rotate(40.2083 294.727 287.849)"
      fill="#7600FF" />
    <ellipse cx="191.132" cy="200.279" rx="10.7091" ry="36.972" transform="rotate(40.2083 191.132 200.279)"
      fill="#7600FF" />
  </g>
  <ellipse opacity="0.4" cx="240.461" cy="246.984" rx="28.5577" ry="49.9759" transform="rotate(40.2083 240.461 246.984)"
    fill="#7600FF" />
  <ellipse opacity="0.4" cx="294.563" cy="288.043" rx="10.7091" ry="17.8485" transform="rotate(40.2083 294.563 288.043)"
    fill="#7600FF" />
  <ellipse opacity="0.4" cx="190.968" cy="200.473" rx="10.7091" ry="17.8485" transform="rotate(40.2083 190.968 200.473)"
    fill="#7600FF" />
  <g filter="url(#filter7_f_spaceship)">
    <g filter="url(#filter8_f_spaceship)">
      <ellipse cx="235.852" cy="252.437" rx="7.13942" ry="264.158" transform="rotate(40.2083 235.852 252.437)"
        fill="url(#paint2_linear_spaceship)" style="mix-blend-mode:color" />
    </g>
    <g filter="url(#filter9_f_spaceship)">
      <ellipse cx="289.954" cy="293.497" rx="3.56971" ry="153.497" transform="rotate(40.2083 289.954 293.497)"
        fill="url(#paint3_linear_spaceship)" style="mix-blend-mode:color" />
    </g>
    <g filter="url(#filter10_f_spaceship)">
      <ellipse cx="186.358" cy="205.926" rx="3.56971" ry="153.497" transform="rotate(40.2083 186.358 205.926)"
        fill="url(#paint4_linear_spaceship)" style="mix-blend-mode:color" />
    </g>
  </g>
  <g opacity="0.9">
    <ellipse cx="235.852" cy="252.437" rx="14.2788" ry="221.322" transform="rotate(40.2083 235.852 252.437)"
      fill="url(#paint5_linear_spaceship)" style="mix-blend-mode:color" />
  </g>
  <ellipse cx="287.65" cy="296.222" rx="3.56971" ry="128.51" transform="rotate(40.2083 287.65 296.222)"
    fill="url(#paint6_linear_spaceship)" style="mix-blend-mode:color" />
  <ellipse cx="184.054" cy="208.651" rx="3.56971" ry="128.51" transform="rotate(40.2083 184.054 208.651)"
    fill="url(#paint7_linear_spaceship)" style="mix-blend-mode:color" />
  <g opacity="0.8" filter="url(#filter11_f_spaceship)">
    <ellipse cx="238.156" cy="249.711" rx="28.5577" ry="103.522" transform="rotate(40.2083 238.156 249.711)"
      fill="url(#paint8_linear_spaceship)" style="mix-blend-mode:color" />
    <ellipse cx="294.727" cy="287.849" rx="10.7091" ry="36.972" transform="rotate(40.2083 294.727 287.849)"
      fill="url(#paint9_linear_spaceship)" style="mix-blend-mode:color" />
    <ellipse cx="191.132" cy="200.279" rx="10.7091" ry="36.972" transform="rotate(40.2083 191.132 200.279)"
      fill="url(#paint10_linear_spaceship)" style="mix-blend-mode:color" />
  </g>
  <g opacity="0.4">
    <ellipse cx="240.461" cy="246.984" rx="28.5577" ry="49.9759" transform="rotate(40.2083 240.461 246.984)"
      fill="url(#paint11_linear_spaceship)" style="mix-blend-mode:color" />
  </g>
  <g opacity="0.4">
    <ellipse cx="294.563" cy="288.043" rx="10.7091" ry="17.8485" transform="rotate(40.2083 294.563 288.043)"
      fill="url(#paint12_linear_spaceship)" style="mix-blend-mode:color" />
  </g>
  <g opacity="0.4">
    <ellipse cx="190.968" cy="200.473" rx="10.7091" ry="17.8485" transform="rotate(40.2083 190.968 200.473)"
      fill="url(#paint13_linear_spaceship)" style="mix-blend-mode:color" />
  </g>
  <defs>
    <filter id="filter0_f_spaceship" x="-117.907" y="226.337" width="383.172" height="435.818"
      filterUnits="userSpaceOnUse" color-interpolation-filters="sRGB">
      <feFlood flood-opacity="0" result="BackgroundImageFix" />
      <feBlend mode="normal" in="SourceGraphic" in2="BackgroundImageFix" result="shape" />
      <feGaussianBlur stdDeviation="12" result="effect1_foregroundBlur" />
    </filter>
    <filter id="filter1_f_spaceship" x="54.7804" y="41.0034" width="362.143" height="422.868"
      filterUnits="userSpaceOnUse" color-interpolation-filters="sRGB">
      <feFlood flood-opacity="0" result="BackgroundImageFix" />
      <feBlend mode="normal" in="SourceGraphic" in2="BackgroundImageFix" result="shape" />
      <feGaussianBlur stdDeviation="2.54321" result="effect1_foregroundBlur" />
    </filter>
    <filter id="filter2_f_spaceship" x="39.5211" y="25.7442" width="392.661" height="453.386"
      filterUnits="userSpaceOnUse" color-interpolation-filters="sRGB">
      <feFlood flood-opacity="0" result="BackgroundImageFix" />
      <feBlend mode="normal" in="SourceGraphic" in2="BackgroundImageFix" result="shape" />
      <feGaussianBlur stdDeviation="10.1728" result="effect1_foregroundBlur" />
    </filter>
    <filter id="filter3_f_spaceship" x="167.789" y="153.62" width="244.33" height="279.753" filterUnits="userSpaceOnUse"
      color-interpolation-filters="sRGB">
      <feFlood flood-opacity="0" result="BackgroundImageFix" />
      <feBlend mode="normal" in="SourceGraphic" in2="BackgroundImageFix" result="shape" />
      <feGaussianBlur stdDeviation="10.1728" result="effect1_foregroundBlur" />
    </filter>
    <filter id="filter4_f_spaceship" x="64.1933" y="66.0496" width="244.33" height="279.753"
      filterUnits="userSpaceOnUse" color-interpolation-filters="sRGB">
      <feFlood flood-opacity="0" result="BackgroundImageFix" />
      <feBlend mode="normal" in="SourceGraphic" in2="BackgroundImageFix" result="shape" />
      <feGaussianBlur stdDeviation="10.1728" result="effect1_foregroundBlur" />
    </filter>
    <filter id="filter5_f_spaceship" x="18.7819" y="19.7935" width="444.201" height="464.443"
      filterUnits="userSpaceOnUse" color-interpolation-filters="sRGB">
      <feFlood flood-opacity="0" result="BackgroundImageFix" />
      <feBlend mode="normal" in="SourceGraphic" in2="BackgroundImageFix" result="shape" />
      <feGaussianBlur stdDeviation="35.6049" result="effect1_foregroundBlur" />
    </filter>
    <filter id="filter6_f_spaceship" x="139.343" y="142.043" width="197.625" height="215.337"
      filterUnits="userSpaceOnUse" color-interpolation-filters="sRGB">
      <feFlood flood-opacity="0" result="BackgroundImageFix" />
      <feBlend mode="normal" in="SourceGraphic" in2="BackgroundImageFix" result="shape" />
      <feGaussianBlur stdDeviation="5.08642" result="effect1_foregroundBlur" />
    </filter>
    <filter id="filter7_f_spaceship" x="54.7804" y="41.0034" width="362.143" height="422.868"
      filterUnits="userSpaceOnUse" color-interpolation-filters="sRGB">
      <feFlood flood-opacity="0" result="BackgroundImageFix" />
      <feBlend mode="normal" in="SourceGraphic" in2="BackgroundImageFix" result="shape" />
      <feGaussianBlur stdDeviation="2.54321" result="effect1_foregroundBlur" />
    </filter>
    <filter id="filter8_f_spaceship" x="39.5211" y="25.7442" width="392.661" height="453.386"
      filterUnits="userSpaceOnUse" color-interpolation-filters="sRGB">
      <feFlood flood-opacity="0" result="BackgroundImageFix" />
      <feBlend mode="normal" in="SourceGraphic" in2="BackgroundImageFix" result="shape" />
      <feGaussianBlur stdDeviation="10.1728" result="effect1_foregroundBlur" />
    </filter>
    <filter id="filter9_f_spaceship" x="167.789" y="153.62" width="244.33" height="279.753" filterUnits="userSpaceOnUse"
      color-interpolation-filters="sRGB">
      <feFlood flood-opacity="0" result="BackgroundImageFix" />
      <feBlend mode="normal" in="SourceGraphic" in2="BackgroundImageFix" result="shape" />
      <feGaussianBlur stdDeviation="10.1728" result="effect1_foregroundBlur" />
    </filter>
    <filter id="filter10_f_spaceship" x="64.1933" y="66.0496" width="244.33" height="279.753"
      filterUnits="userSpaceOnUse" color-interpolation-filters="sRGB">
      <feFlood flood-opacity="0" result="BackgroundImageFix" />
      <feBlend mode="normal" in="SourceGraphic" in2="BackgroundImageFix" result="shape" />
      <feGaussianBlur stdDeviation="10.1728" result="effect1_foregroundBlur" />
    </filter>
    <filter id="filter11_f_spaceship" x="139.343" y="142.043" width="197.625" height="215.337"
      filterUnits="userSpaceOnUse" color-interpolation-filters="sRGB">
      <feFlood flood-opacity="0" result="BackgroundImageFix" />
      <feBlend mode="normal" in="SourceGraphic" in2="BackgroundImageFix" result="shape" />
      <feGaussianBlur stdDeviation="5.08642" result="effect1_foregroundBlur" />
    </filter>
    <linearGradient id="paint0_linear_spaceship" x1="228.402" y1="261.21" x2="-81.0434" y2="627.281"
      gradientUnits="userSpaceOnUse">
      <stop stop-color="#FF0075" />
      <stop offset="1" stop-color="#FF0075" stop-opacity="0" />
    </linearGradient>
    <linearGradient id="paint1_linear_spaceship" x1="228.402" y1="261.21" x2="-80.5904" y2="626.745"
      gradientUnits="userSpaceOnUse">
      <stop stop-color="#FF0075" />
      <stop offset="1" stop-color="#FF0075" stop-opacity="0" />
    </linearGradient>
    <linearGradient id="paint2_linear_spaceship" x1="235.852" y1="516.596" x2="235.852" y2="-11.7213"
      gradientUnits="userSpaceOnUse">
      <stop stop-color="#231557" />
      <stop offset="1" stop-color="#FF0084" />
    </linearGradient>
    <linearGradient id="paint3_linear_spaceship" x1="289.954" y1="446.994" x2="289.954" y2="139.999"
      gradientUnits="userSpaceOnUse">
      <stop stop-color="#231557" />
      <stop offset="1" stop-color="#FF0084" />
    </linearGradient>
    <linearGradient id="paint4_linear_spaceship" x1="186.358" y1="359.424" x2="186.358" y2="52.4286"
      gradientUnits="userSpaceOnUse">
      <stop stop-color="#231557" />
      <stop offset="1" stop-color="#FF0084" />
    </linearGradient>
    <linearGradient id="paint5_linear_spaceship" x1="235.852" y1="473.759" x2="235.852" y2="31.1151"
      gradientUnits="userSpaceOnUse">
      <stop stop-color="#231557" />
      <stop offset="1" stop-color="#FF0084" />
    </linearGradient>
    <linearGradient id="paint6_linear_spaceship" x1="287.65" y1="424.732" x2="287.65" y2="167.713"
      gradientUnits="userSpaceOnUse">
      <stop stop-color="#231557" />
      <stop offset="1" stop-color="#FF0084" />
    </linearGradient>
    <linearGradient id="paint7_linear_spaceship" x1="184.054" y1="337.161" x2="184.054" y2="80.1418"
      gradientUnits="userSpaceOnUse">
      <stop stop-color="#231557" />
      <stop offset="1" stop-color="#FF0084" />
    </linearGradient>
    <linearGradient id="paint8_linear_spaceship" x1="238.156" y1="353.233" x2="238.156" y2="146.19"
      gradientUnits="userSpaceOnUse">
      <stop stop-color="#231557" />
      <stop offset="1" stop-color="#FF0084" />
    </linearGradient>
    <linearGradient id="paint9_linear_spaceship" x1="294.727" y1="324.821" x2="294.727" y2="250.877"
      gradientUnits="userSpaceOnUse">
      <stop stop-color="#231557" />
      <stop offset="1" stop-color="#FF0084" />
    </linearGradient>
    <linearGradient id="paint10_linear_spaceship" x1="191.132" y1="237.251" x2="191.132" y2="163.307"
      gradientUnits="userSpaceOnUse">
      <stop stop-color="#231557" />
      <stop offset="1" stop-color="#FF0084" />
    </linearGradient>
    <linearGradient id="paint11_linear_spaceship" x1="240.461" y1="296.96" x2="240.461" y2="197.009"
      gradientUnits="userSpaceOnUse">
      <stop stop-color="#231557" />
      <stop offset="1" stop-color="#FF0084" />
    </linearGradient>
    <linearGradient id="paint12_linear_spaceship" x1="294.563" y1="305.892" x2="294.563" y2="270.195"
      gradientUnits="userSpaceOnUse">
      <stop stop-color="#231557" />
      <stop offset="1" stop-color="#FF0084" />
    </linearGradient>
    <linearGradient id="paint13_linear_spaceship" x1="190.968" y1="218.322" x2="190.968" y2="182.625"
      gradientUnits="userSpaceOnUse">
      <stop stop-color="#231557" />
      <stop offset="1" stop-color="#FF0084" />
    </linearGradient>
  </defs>
</svg>