<svg width="522" height="126" viewBox="0 0 522 126" fill="none" xmlns="http://www.w3.org/2000/svg">
<path d="M120.33 80.93L117.22 77.82C117.079 77.6795 117 77.4889 117 77.29V71.15C117.003 70.9519 117.082 70.7626 117.223 70.6225C117.363 70.4824 117.552 70.4026 117.75 70.4H123.45C123.648 70.4026 123.837 70.4824 123.977 70.6225C124.118 70.7626 124.197 70.9519 124.2 71.15V74H142.2V66.8H120.6L117 64.23V49.11C117.001 48.9132 117.076 48.7238 117.21 48.58L120.33 45.38C120.399 45.3064 120.483 45.2479 120.576 45.2083C120.669 45.1688 120.769 45.1489 120.87 45.15H145.43C145.531 45.1495 145.631 45.1696 145.724 45.2092C145.817 45.2487 145.9 45.3069 145.97 45.38L149.09 48.58C149.224 48.7238 149.299 48.9132 149.3 49.11V55.2C149.3 55.3989 149.221 55.5897 149.08 55.7303C148.94 55.871 148.749 55.95 148.55 55.95H142.9C142.801 55.9514 142.703 55.9329 142.611 55.8957C142.52 55.8584 142.437 55.8032 142.367 55.7333C142.297 55.6634 142.242 55.5802 142.204 55.4886C142.167 55.397 142.149 55.2989 142.15 55.2V52.35H124.15V59.55H145.38C145.481 59.5489 145.581 59.5688 145.674 59.6083C145.767 59.6479 145.851 59.7064 145.92 59.78L149.03 62.93C149.171 63.0705 149.25 63.2612 149.25 63.46V77.29C149.25 77.4889 149.171 77.6795 149.03 77.82L146 80.93C145.859 81.0707 145.669 81.1498 145.47 81.15H120.86C120.661 81.1498 120.471 81.0707 120.33 80.93Z" fill="#0099F2"/>
<path d="M157 80.4V45.9C157 45.7011 157.079 45.5104 157.22 45.3697C157.36 45.229 157.551 45.15 157.75 45.15H185.43C185.529 45.1497 185.628 45.1699 185.719 45.2095C185.81 45.2491 185.892 45.3072 185.96 45.38L189.08 48.58C189.148 48.6501 189.202 48.733 189.238 48.824C189.274 48.915 189.292 49.0122 189.29 49.11V66.5C189.291 66.5963 189.273 66.6918 189.237 66.781C189.201 66.8702 189.148 66.9515 189.08 67.02L186 70.18C185.859 70.3207 185.669 70.3999 185.47 70.4H164.22V80.4C164.22 80.5989 164.141 80.7897 164 80.9304C163.86 81.071 163.669 81.15 163.47 81.15H157.77C157.669 81.1541 157.569 81.1377 157.475 81.1017C157.381 81.0657 157.296 81.0109 157.224 80.9407C157.152 80.8705 157.095 80.7864 157.056 80.6934C157.018 80.6004 156.999 80.5006 157 80.4V80.4ZM182.14 63.2V52.35H164.22V63.2H182.14Z" fill="#0099F2"/>
<path d="M203.72 45.9V74H221.66V45.9C221.663 45.7019 221.742 45.5127 221.883 45.3726C222.023 45.2325 222.212 45.1526 222.41 45.15H228.06C228.259 45.15 228.45 45.229 228.59 45.3697C228.731 45.5103 228.81 45.7011 228.81 45.9V77.29C228.81 77.4889 228.731 77.6795 228.59 77.82L225.48 80.93C225.339 81.0707 225.149 81.1498 224.95 81.15H200.38C200.179 81.1482 199.985 81.0695 199.84 80.93L196.74 77.82C196.599 77.6795 196.52 77.4889 196.52 77.29V45.9C196.52 45.7011 196.599 45.5103 196.74 45.3697C196.88 45.229 197.071 45.15 197.27 45.15H203C203.193 45.1602 203.375 45.2433 203.508 45.3826C203.642 45.522 203.718 45.7069 203.72 45.9V45.9Z" fill="#0099F2"/>
<path d="M247.59 80.4V52.35H235.74C235.641 52.3514 235.543 52.3329 235.451 52.2957C235.36 52.2585 235.277 52.2033 235.207 52.1334C235.137 52.0634 235.082 51.9802 235.044 51.8886C235.007 51.797 234.989 51.6989 234.99 51.6V45.9C234.99 45.7011 235.069 45.5103 235.21 45.3697C235.35 45.229 235.541 45.15 235.74 45.15H266.54C266.738 45.1526 266.927 45.2325 267.067 45.3726C267.208 45.5127 267.287 45.7019 267.29 45.9V51.6C267.29 51.7989 267.211 51.9897 267.07 52.1304C266.93 52.271 266.739 52.35 266.54 52.35H254.79V80.4C254.79 80.5989 254.711 80.7897 254.57 80.9304C254.43 81.071 254.239 81.15 254.04 81.15H248.34C248.241 81.1514 248.143 81.1329 248.051 81.0957C247.96 81.0585 247.877 81.0033 247.807 80.9333C247.737 80.8634 247.682 80.7802 247.644 80.6886C247.607 80.597 247.589 80.4989 247.59 80.4V80.4Z" fill="#0099F2"/>
<path d="M298.38 80.85L280.66 57.13V80.4C280.661 80.4989 280.643 80.597 280.606 80.6886C280.568 80.7802 280.513 80.8634 280.443 80.9333C280.373 81.0033 280.29 81.0585 280.199 81.0957C280.107 81.1329 280.009 81.1514 279.91 81.15H274.21C274.011 81.15 273.82 81.071 273.68 80.9304C273.539 80.7897 273.46 80.5989 273.46 80.4V45.9C273.463 45.7019 273.542 45.5127 273.682 45.3726C273.823 45.2325 274.012 45.1526 274.21 45.15H280.29C280.406 45.1515 280.52 45.1793 280.624 45.2313C280.728 45.2832 280.819 45.358 280.89 45.45L298.61 69.12V45.9C298.613 45.7019 298.692 45.5127 298.832 45.3726C298.973 45.2325 299.162 45.1526 299.36 45.15H305C305.198 45.1526 305.387 45.2325 305.527 45.3726C305.668 45.5127 305.747 45.7019 305.75 45.9V80.4C305.75 80.5989 305.671 80.7897 305.53 80.9304C305.39 81.071 305.199 81.15 305 81.15H299C298.88 81.1516 298.762 81.1253 298.655 81.0732C298.547 81.0211 298.453 80.9447 298.38 80.85V80.85Z" fill="#0099F2"/>
<path d="M313.48 80.4V45.9C313.48 45.7011 313.559 45.5103 313.7 45.3697C313.84 45.229 314.031 45.15 314.23 45.15H319.93C320.128 45.1526 320.317 45.2325 320.457 45.3726C320.598 45.5127 320.677 45.7019 320.68 45.9V80.4C320.68 80.5989 320.601 80.7897 320.46 80.9304C320.32 81.071 320.129 81.15 319.93 81.15H314.23C314.131 81.1514 314.033 81.1329 313.941 81.0957C313.85 81.0585 313.767 81.0033 313.697 80.9333C313.627 80.8634 313.572 80.7802 313.534 80.6886C313.497 80.597 313.479 80.4989 313.48 80.4V80.4Z" fill="#0099F2"/>
<path d="M328.39 80.4V45.9C328.393 45.7019 328.472 45.5127 328.613 45.3726C328.753 45.2325 328.942 45.1526 329.14 45.15H334.84C335.039 45.15 335.23 45.229 335.37 45.3697C335.511 45.5103 335.59 45.7011 335.59 45.9V59.6H346.34L353.54 52.4V45.9C353.543 45.7019 353.622 45.5127 353.763 45.3726C353.903 45.2325 354.092 45.1526 354.29 45.15H359.94C360.138 45.1526 360.327 45.2325 360.467 45.3726C360.608 45.5127 360.687 45.7019 360.69 45.9V55.69C360.69 55.8889 360.611 56.0795 360.47 56.22L353.54 63.22L360.47 70.22C360.611 70.3605 360.69 70.5512 360.69 70.75V80.4C360.69 80.5989 360.611 80.7897 360.47 80.9304C360.33 81.071 360.139 81.15 359.94 81.15H354.29C354.091 81.15 353.9 81.071 353.76 80.9304C353.619 80.7897 353.54 80.5989 353.54 80.4V74L346.34 66.85H335.59V80.4C335.591 80.4989 335.573 80.597 335.536 80.6886C335.498 80.7802 335.443 80.8634 335.373 80.9333C335.303 81.0033 335.22 81.0585 335.129 81.0957C335.037 81.1329 334.939 81.1514 334.84 81.15H329.14C328.941 81.15 328.75 81.071 328.61 80.9304C328.469 80.7897 328.39 80.5989 328.39 80.4Z" fill="#0099F2"/>
<path d="M410.08 77.82L407 80.93C406.859 81.0707 406.669 81.1498 406.47 81.15H378.75C378.551 81.15 378.36 81.071 378.22 80.9304C378.079 80.7897 378 80.5989 378 80.4V45.9C378.003 45.7019 378.082 45.5127 378.223 45.3726C378.363 45.2325 378.552 45.1526 378.75 45.15H399.24C399.439 45.1502 399.629 45.2293 399.77 45.37L410.08 55.73C410.221 55.8705 410.3 56.0612 410.3 56.26V77.26C410.304 77.3635 410.286 77.4667 410.249 77.563C410.211 77.6594 410.153 77.7469 410.08 77.82V77.82ZM403.15 59.55L395.95 52.35H385.2V74H403.15V59.55Z" fill="black"/>
<path d="M417 80.4V56.31C416.998 56.2122 417.016 56.115 417.052 56.024C417.088 55.933 417.142 55.8501 417.21 55.78L427.52 45.37C427.665 45.2305 427.859 45.1518 428.06 45.15H448.54C448.739 45.15 448.93 45.229 449.07 45.3697C449.211 45.5103 449.29 45.7011 449.29 45.9V80.4C449.291 80.4989 449.273 80.597 449.236 80.6886C449.198 80.7802 449.143 80.8634 449.073 80.9333C449.003 81.0033 448.92 81.0585 448.829 81.0957C448.737 81.1329 448.639 81.1514 448.54 81.15H442.89C442.691 81.15 442.5 81.071 442.36 80.9304C442.219 80.7897 442.14 80.5989 442.14 80.4V70.4H424.19V80.4C424.19 80.5989 424.111 80.7897 423.97 80.9304C423.83 81.071 423.639 81.15 423.44 81.15H417.74C417.642 81.15 417.545 81.1306 417.454 81.0928C417.364 81.0549 417.282 80.9995 417.213 80.9298C417.144 80.86 417.09 80.7772 417.053 80.6863C417.017 80.5953 416.999 80.498 417 80.4V80.4ZM442.14 63.2V52.35H431.34L424.19 59.6V63.2H442.14Z" fill="black"/>
<path d="M460.33 80.93L457.22 77.82C457.079 77.6795 457 77.4889 457 77.29V49.11C457.001 48.9132 457.076 48.7238 457.21 48.58L460.33 45.38C460.399 45.3064 460.483 45.2479 460.576 45.2083C460.669 45.1688 460.769 45.1489 460.87 45.15H485.43C485.531 45.1489 485.631 45.1688 485.724 45.2083C485.817 45.2479 485.901 45.3064 485.97 45.38L489.09 48.58C489.224 48.7238 489.299 48.9132 489.3 49.11V77.29C489.3 77.4889 489.221 77.6795 489.08 77.82L486 80.93C485.859 81.0707 485.669 81.1498 485.47 81.15H460.86C460.661 81.1498 460.471 81.0707 460.33 80.93V80.93ZM482.15 73.93V52.35H464.2V74L482.15 73.93Z" fill="black"/>
<path d="M63 99C82.8823 99 99 82.8823 99 63C99 43.1177 82.8823 27 63 27C43.1177 27 27 43.1177 27 63C27 82.8823 43.1177 99 63 99Z" fill="#0099F2"/>
<path d="M83.88 76.75C83.7114 75.8569 83.3383 75.0149 82.79 74.29C82.79 74.29 82.79 74.29 82.79 74.23C82.72 74.15 82.66 74.07 82.59 74L68.83 57.32C68.6375 57.1121 68.3727 56.9856 68.09 56.9666C67.8073 56.9476 67.528 57.0374 67.3093 57.2177C67.0907 57.398 66.9493 57.655 66.9141 57.9362C66.8789 58.2174 66.9526 58.5014 67.12 58.73L77.92 71.84C77.527 71.8403 77.135 71.8805 76.75 71.96C75.932 72.1316 75.1588 72.4722 74.48 72.96L53.09 51.52V51.47C53.4015 51.0139 53.6536 50.5199 53.84 50L82.74 54.13H82.89C83.1625 54.119 83.4214 54.008 83.6172 53.8183C83.8131 53.6286 83.9323 53.3734 83.9521 53.1014C83.9719 52.8294 83.8909 52.5597 83.7245 52.3437C83.5581 52.1276 83.318 51.9804 83.05 51.93L54.15 47.8C54.1381 47.4909 54.1013 47.1832 54.04 46.88C53.8542 45.8863 53.4169 44.9568 52.77 44.18H73C73.2534 44.1312 73.4818 43.9958 73.6461 43.7968C73.8104 43.5979 73.9003 43.348 73.9003 43.09C73.9003 42.832 73.8104 42.5821 73.6461 42.3832C73.4818 42.1842 73.2534 42.0488 73 42H48.13C47.7207 41.9969 47.3121 42.0337 46.91 42.11C46.1204 42.2612 45.3685 42.5669 44.6975 43.0097C44.0265 43.4525 43.4496 44.0235 43 44.69C42.5525 45.3513 42.2416 46.0952 42.0853 46.8783C41.9291 47.6613 41.9307 48.4676 42.09 49.25C42.2587 50.1431 42.6317 50.9851 43.18 51.71C43.18 51.71 43.18 51.71 43.18 51.77C43.25 51.85 43.31 51.93 43.38 52L57.17 68.68C57.2758 68.805 57.4075 68.9055 57.556 68.9746C57.7045 69.0437 57.8662 69.0796 58.03 69.08C58.2406 69.0819 58.4472 69.0233 58.6255 68.9112C58.8037 68.7991 58.946 68.6382 59.0355 68.4476C59.1251 68.257 59.158 68.0448 59.1304 67.836C59.1028 67.6273 59.0159 67.4308 58.88 67.27L48.08 54.16C49.3108 54.1543 50.512 53.7817 51.53 53.09L72.91 74.48C72.5946 74.9517 72.3425 75.4627 72.16 76L43.26 71.87C43.1022 71.8068 42.9319 71.7807 42.7624 71.7938C42.5929 71.8068 42.4286 71.8586 42.2823 71.9452C42.136 72.0318 42.0115 72.1509 41.9185 72.2932C41.8254 72.4355 41.7663 72.5973 41.7457 72.766C41.7251 72.9348 41.7436 73.106 41.7996 73.2666C41.8557 73.4271 41.9479 73.5725 42.0691 73.6918C42.1903 73.811 42.3373 73.9008 42.4987 73.9543C42.6601 74.0077 42.8316 74.0234 43 74L71.9 78.13C71.9136 78.4385 71.947 78.7458 72 79.05C72.1922 80.0435 72.6325 80.9723 73.28 81.75H53.05C52.7751 81.7762 52.5198 81.9039 52.334 82.1082C52.1482 82.3126 52.0453 82.5788 52.0453 82.855C52.0453 83.1312 52.1482 83.3974 52.334 83.6018C52.5198 83.8061 52.7751 83.9338 53.05 83.96H78C78.8919 83.9538 79.7714 83.7506 80.5755 83.3647C81.3796 82.9789 82.0885 82.42 82.6513 81.7282C83.2142 81.0363 83.6171 80.2285 83.8313 79.3627C84.0454 78.4969 84.0655 77.5945 83.89 76.72L83.88 76.75Z" fill="white"/>
</svg>
