<svg width="127" height="13" viewBox="0 0 127 13" fill="none" xmlns="http://www.w3.org/2000/svg">
<path d="M10.2149 12.7915L11.4758 11.5306V6.39576L10.2149 5.11661H2.55831V2.55831H8.93579V3.83746H11.4758V1.29743L10.2149 0H1.26088L0 1.29743V6.77951L1.26088 7.69319H8.93579V10.2332H2.55831V8.97234H0V11.5306L1.26088 12.7915H10.2149Z" fill="white"/>
<path d="M16.584 6.41404V2.55831H22.9615V6.41404H16.584ZM16.584 12.7915V8.97234H24.2407L25.5015 7.69319V1.29743L24.2407 0H14.0257V12.7915H16.584Z" fill="white"/>
<path d="M27.873 0V11.5306L29.1338 12.7915H38.0879L39.3488 11.5306V0H36.8088V10.2332H30.4313V0H27.873Z" fill="white"/>
<path d="M48.3858 12.7915V2.55831H52.8263V0H41.3505V2.55831H45.8275V12.7915H48.3858Z" fill="white"/>
<path d="M66.3116 12.7915V0H63.7716V8.5155L57.3941 0H54.8358V12.7915H57.3941V4.25775L63.7716 12.7915H66.3116Z" fill="white"/>
<path d="M71.4198 12.7915V0H68.8615V12.7915H71.4198Z" fill="white"/>
<path d="M76.5407 12.7915V7.69319H80.3599L82.9182 10.2332V12.7915H85.4582V8.97234L82.9182 6.41404L85.4582 3.85573V0H82.9182V2.57658L80.3599 5.13488H76.5407V0H73.9824V12.7915H76.5407Z" fill="white"/>
<path d="M99.3055 3.83746L95.4863 0H87.8297V12.7915H98.0446L99.3055 11.5306V3.83746ZM96.7655 10.2332H90.388V2.55831H94.2072L96.7655 5.11661V10.2332Z" fill="white"/>
<path d="M104.052 6.41404V5.13488L106.593 2.55831H110.43V6.41404H104.052ZM104.052 12.7915V8.97234H110.43V12.7915H112.97V0H105.313L101.494 3.85573V12.7915H104.052Z" fill="white"/>
<path d="M118.082 10.2332V2.55831H124.46V10.2332H118.082ZM125.739 12.7915L127 11.5306V1.29743L125.739 0H116.785L115.524 1.29743V11.5306L116.785 12.7915H125.739Z" fill="white"/>
</svg>
